<?xml version="1.0" encoding="UTF-8"?>
<svg xmlns="http://www.w3.org/2000/svg" xmlns:xlink="http://www.w3.org/1999/xlink"
     width="600" height="600" viewBox="0 -300 300 300">
<defs>
</defs>
<path stroke-width="0.5" fill="none" stroke="red" fill-opacity="0.5" d="M90.00024795532227,-169.1413402557373" />
<path stroke-width="0.5" fill="none" stroke="red" fill-opacity="0.5" d="M95.0002670288086,-171.51200771331787" />
<path stroke-width="0.5" fill="none" stroke="red" fill-opacity="0.5" d="M102.50027179718018,-169.1413402557373" />
<path stroke-width="0.5" fill="none" stroke="red" fill-opacity="0.5" d="M95.0002670288086,-169.1413402557373" />
<path stroke-width="0.5" fill="none" stroke="red" fill-opacity="0.5" d="M97.50027656555176,-176.253342628479" />
<path stroke-width="0.5" fill="none" stroke="red" fill-opacity="0.5" d="M95.0002670288086,-188.10667991638184" />
<path stroke-width="0.5" fill="none" stroke="red" fill-opacity="0.5" d="M100.00028610229492,-183.3653450012207" />
<path stroke-width="0.5" fill="none" stroke="red" fill-opacity="0.5" d="M95.0002670288086,-180.99467754364014" />
<path stroke-width="0.5" fill="none" stroke="red" fill-opacity="0.5" d="M95.0002670288086,-180.99467754364014" />
<path stroke-width="0.5" fill="none" stroke="red" fill-opacity="0.5" d="M100.00026226043701,-162.0293378829956" />
<path stroke-width="0.5" fill="none" stroke="red" fill-opacity="0.5" d="M110.00032424926758,-173.88267517089844" />
<path stroke-width="0.5" fill="none" stroke="red" fill-opacity="0.5" d="M107.50031471252441,-188.10667991638184" />
<path stroke-width="0.5" fill="none" stroke="red" fill-opacity="0.5" d="M117.50035285949707,-199.95999336242676" />
<path stroke-width="0.5" fill="none" stroke="red" fill-opacity="0.5" d="M117.50035285949707,-211.8133544921875" />
<path stroke-width="0.5" fill="none" stroke="red" fill-opacity="0.5" d="M117.50035285949707,-211.8133544921875" />
<path stroke-width="0.5" fill="none" stroke="red" fill-opacity="0.5" d="M117.50035285949707,-211.8133544921875" />
<path stroke-width="0.5" fill="none" stroke="red" fill-opacity="0.5" d="M117.50035285949707,-211.8133544921875" />
<path stroke-width="0.5" fill="none" stroke="red" fill-opacity="0.5" d="M150.0004768371582,-169.1413402557373" />
<path stroke-width="0.5" fill="none" stroke="red" fill-opacity="0.5" d="M140.00043869018555,-147.8053331375122" />
<path stroke-width="0.5" fill="none" stroke="red" fill-opacity="0.5" d="M135.00044345855713,-131.21068477630615" />
<path stroke-width="0.5" fill="none" stroke="red" fill-opacity="0.5" d="M145.00048160552979,-133.5813283920288" />
<path stroke-width="0.5" fill="none" stroke="red" fill-opacity="0.5" d="M147.50049114227295,-147.8053331375122" />
<path stroke-width="0.5" fill="none" stroke="red" fill-opacity="0.5" d="M152.50051021575928,-164.40000534057617" />
<path stroke-width="0.5" fill="none" stroke="red" fill-opacity="0.5" d="M157.5005292892456,-188.10667991638184" />
<path stroke-width="0.5" fill="none" stroke="red" fill-opacity="0.5" d="M155.00049591064453,-195.21868228912354" />
<path stroke-width="0.5" fill="none" stroke="red" fill-opacity="0.5" d="M155.00049591064453,-195.21868228912354" />
<path stroke-width="0.5" fill="none" stroke="red" fill-opacity="0.5" d="M152.50051021575928,-157.28800296783447" />
<path stroke-width="0.5" fill="none" stroke="red" fill-opacity="0.5" d="M152.50051021575928,-164.40000534057617" />
<path stroke-width="0.5" fill="none" stroke="red" fill-opacity="0.5" d="M162.50054836273193,-185.73601245880127" />
<path stroke-width="0.5" fill="none" stroke="red" fill-opacity="0.5" d="M162.50054836273193,-185.73601245880127" />
<path stroke-width="0.5" fill="none" stroke="red" fill-opacity="0.5" d="M165.0005578994751,-162.0293378829956" />
<path stroke-width="0.5" fill="none" stroke="red" fill-opacity="0.5" d="M170.00057697296143,-145.43466567993164" />
<path stroke-width="0.5" fill="none" stroke="red" fill-opacity="0.5" d="M175.00059604644775,-162.0293378829956" />
<path stroke-width="0.5" fill="none" stroke="red" fill-opacity="0.5" d="M177.50060558319092,-166.77067279815674" />
<path stroke-width="0.5" fill="none" stroke="red" fill-opacity="0.5" d="M177.50060558319092,-166.77067279815674" />
<path stroke-width="0.5" fill="none" stroke="red" fill-opacity="0.5" d="M177.50060558319092,-166.77067279815674" />
<path stroke-width="0.5" fill="none" stroke="red" fill-opacity="0.5" d="M177.50060558319092,-166.77067279815674" />
<path stroke-width="0.5" fill="none" stroke="red" fill-opacity="0.5" d="M177.50060558319092,-166.77067279815674" />
<path stroke-width="0.5" fill="none" stroke="red" fill-opacity="0.5" d="M177.50060558319092,-166.77067279815674" />
<path stroke-width="0.5" fill="none" stroke="red" fill-opacity="0.5" d="M177.50060558319092,-166.77067279815674" />
<path stroke-width="0.5" fill="none" stroke="red" fill-opacity="0.5" d="M90.00024795532227,-169.1413402557373 L95.0002670288086,-171.51200771331787 L102.50027179718018,-169.1413402557373 L95.0002670288086,-169.1413402557373 L97.50027656555176,-176.253342628479 L95.0002670288086,-188.10667991638184 L100.00028610229492,-183.3653450012207 L95.0002670288086,-180.99467754364014 L95.0002670288086,-180.99467754364014 L100.00026226043701,-162.0293378829956 L110.00032424926758,-173.88267517089844 L107.50031471252441,-188.10667991638184 L117.50035285949707,-199.95999336242676 L117.50035285949707,-211.8133544921875 L117.50035285949707,-211.8133544921875 L117.50035285949707,-211.8133544921875 L117.50035285949707,-211.8133544921875 L150.0004768371582,-169.1413402557373 L140.00043869018555,-147.8053331375122 L135.00044345855713,-131.21068477630615 L145.00048160552979,-133.5813283920288 L147.50049114227295,-147.8053331375122 L152.50051021575928,-164.40000534057617 L157.5005292892456,-188.10667991638184 L155.00049591064453,-195.21868228912354 L155.00049591064453,-195.21868228912354 L152.50051021575928,-157.28800296783447 L152.50051021575928,-164.40000534057617 L162.50054836273193,-185.73601245880127 L162.50054836273193,-185.73601245880127 L165.0005578994751,-162.0293378829956 L170.00057697296143,-145.43466567993164 L175.00059604644775,-162.0293378829956 L177.50060558319092,-166.77067279815674 L177.50060558319092,-166.77067279815674 L177.50060558319092,-166.77067279815674 L177.50060558319092,-166.77067279815674 L177.50060558319092,-166.77067279815674 L177.50060558319092,-166.77067279815674 L177.50060558319092,-166.77067279815674" />
<path stroke-width="0.5" fill="none" stroke="red" fill-opacity="0.5" d="M90.00024795532227,-169.1413402557373" />
<path stroke-width="0.5" fill="none" stroke="red" fill-opacity="0.5" d="M91.33896827697754,-169.15698051452637" />
<path stroke-width="0.5" fill="none" stroke="red" fill-opacity="0.5" d="M92.89379119873047,-169.1974401473999" />
<path stroke-width="0.5" fill="none" stroke="red" fill-opacity="0.5" d="M93.15595626831055,-169.19715404510498" />
<path stroke-width="0.5" fill="none" stroke="red" fill-opacity="0.5" d="M93.44704151153564,-169.33271884918213" />
<path stroke-width="0.5" fill="none" stroke="red" fill-opacity="0.5" d="M93.75417232513428,-173.04046154022217" />
<path stroke-width="0.5" fill="none" stroke="red" fill-opacity="0.5" d="M93.85299682617188,-176.93383693695068" />
<path stroke-width="0.5" fill="none" stroke="red" fill-opacity="0.5" d="M93.89815330505371,-177.7383327484131" />
<path stroke-width="0.5" fill="none" stroke="red" fill-opacity="0.5" d="M93.93067359924316,-177.9914140701294" />
<path stroke-width="0.5" fill="none" stroke="red" fill-opacity="0.5" d="M94.07498836517334,-177.61211395263672" />
<path stroke-width="0.5" fill="none" stroke="red" fill-opacity="0.5" d="M96.51281833648682,-175.8747100830078" />
<path stroke-width="0.5" fill="none" stroke="red" fill-opacity="0.5" d="M98.93779754638672,-176.90656185150146" />
<path stroke-width="0.5" fill="none" stroke="red" fill-opacity="0.5" d="M102.90296077728271,-182.62314796447754" />
<path stroke-width="0.5" fill="none" stroke="red" fill-opacity="0.5" d="M106.48291110992432,-192.10703372955322" />
<path stroke-width="0.5" fill="none" stroke="red" fill-opacity="0.5" d="M108.86731147766113,-198.7246036529541" />
<path stroke-width="0.5" fill="none" stroke="red" fill-opacity="0.5" d="M110.40143966674805,-202.01234817504883" />
<path stroke-width="0.5" fill="none" stroke="red" fill-opacity="0.5" d="M111.46800518035889,-203.95288467407227" />
<path stroke-width="0.5" fill="none" stroke="red" fill-opacity="0.5" d="M128.65071296691895,-192.95766353607178" />
<path stroke-width="0.5" fill="none" stroke="red" fill-opacity="0.5" d="M133.48219394683838,-174.93338584899902" />
<path stroke-width="0.5" fill="none" stroke="red" fill-opacity="0.5" d="M133.8780641555786,-154.39352989196777" />
<path stroke-width="0.5" fill="none" stroke="red" fill-opacity="0.5" d="M134.36732292175293,-145.7857370376587" />
<path stroke-width="0.5" fill="none" stroke="red" fill-opacity="0.5" d="M136.05046272277832,-144.95925903320312" />
<path stroke-width="0.5" fill="none" stroke="red" fill-opacity="0.5" d="M140.49570560455322,-147.21477031707764" />
<path stroke-width="0.5" fill="none" stroke="red" fill-opacity="0.5" d="M145.27714252471924,-160.38882732391357" />
<path stroke-width="0.5" fill="none" stroke="red" fill-opacity="0.5" d="M147.33045101165771,-176.12199783325195" />
<path stroke-width="0.5" fill="none" stroke="red" fill-opacity="0.5" d="M148.567795753479,-182.5373888015747" />
<path stroke-width="0.5" fill="none" stroke="red" fill-opacity="0.5" d="M149.6671438217163,-180.08863925933838" />
<path stroke-width="0.5" fill="none" stroke="red" fill-opacity="0.5" d="M150.23036003112793,-171.8148946762085" />
<path stroke-width="0.5" fill="none" stroke="red" fill-opacity="0.5" d="M151.54404640197754,-172.72393703460693" />
<path stroke-width="0.5" fill="none" stroke="red" fill-opacity="0.5" d="M153.80656719207764,-175.7606029510498" />
<path stroke-width="0.5" fill="none" stroke="red" fill-opacity="0.5" d="M156.9279909133911,-175.94997882843018" />
<path stroke-width="0.5" fill="none" stroke="red" fill-opacity="0.5" d="M159.0341567993164,-165.20156860351562" />
<path stroke-width="0.5" fill="none" stroke="red" fill-opacity="0.5" d="M161.46018505096436,-162.2969388961792" />
<path stroke-width="0.5" fill="none" stroke="red" fill-opacity="0.5" d="M165.74406623840332,-162.54289150238037" />
<path stroke-width="0.5" fill="none" stroke="red" fill-opacity="0.5" d="M168.43669414520264,-162.93694972991943" />
<path stroke-width="0.5" fill="none" stroke="red" fill-opacity="0.5" d="M170.11592388153076,-163.27099800109863" />
<path stroke-width="0.5" fill="none" stroke="red" fill-opacity="0.5" d="M171.26400470733643,-163.5523796081543" />
<path stroke-width="0.5" fill="none" stroke="red" fill-opacity="0.5" d="M172.10097312927246,-163.79246711730957" />
<path stroke-width="0.5" fill="none" stroke="red" fill-opacity="0.5" d="M172.73941040039062,-163.99974822998047" />
<path stroke-width="0.5" fill="none" stroke="red" fill-opacity="0.5" d="M173.24304580688477,-164.1805648803711" />
<path stroke-width="0.5" fill="none" stroke="black" fill-opacity="0.5" d="M90.00024795532227,-169.1413402557373 L91.33896827697754,-169.15698051452637 L92.89379119873047,-169.1974401473999 L93.15595626831055,-169.19715404510498 L93.44704151153564,-169.33271884918213 L93.75417232513428,-173.04046154022217 L93.85299682617188,-176.93383693695068 L93.89815330505371,-177.7383327484131 L93.93067359924316,-177.9914140701294 L94.07498836517334,-177.61211395263672 L96.51281833648682,-175.8747100830078 L98.93779754638672,-176.90656185150146 L102.90296077728271,-182.62314796447754 L106.48291110992432,-192.10703372955322 L108.86731147766113,-198.7246036529541 L110.40143966674805,-202.01234817504883 L111.46800518035889,-203.95288467407227 L128.65071296691895,-192.95766353607178 L133.48219394683838,-174.93338584899902 L133.8780641555786,-154.39352989196777 L134.36732292175293,-145.7857370376587 L136.05046272277832,-144.95925903320312 L140.49570560455322,-147.21477031707764 L145.27714252471924,-160.38882732391357 L147.33045101165771,-176.12199783325195 L148.567795753479,-182.5373888015747 L149.6671438217163,-180.08863925933838 L150.23036003112793,-171.8148946762085 L151.54404640197754,-172.72393703460693 L153.80656719207764,-175.7606029510498 L156.9279909133911,-175.94997882843018 L159.0341567993164,-165.20156860351562 L161.46018505096436,-162.2969388961792 L165.74406623840332,-162.54289150238037 L168.43669414520264,-162.93694972991943 L170.11592388153076,-163.27099800109863 L171.26400470733643,-163.5523796081543 L172.10097312927246,-163.79246711730957 L172.73941040039062,-163.99974822998047 L173.24304580688477,-164.1805648803711" />
</svg>