<?xml version="1.0" encoding="UTF-8"?>
<svg xmlns="http://www.w3.org/2000/svg" xmlns:xlink="http://www.w3.org/1999/xlink"
     width="600" height="600" viewBox="0 -300 300 300">
<defs>
</defs>
<path stroke-width="0.5" fill="none" stroke="red" fill-opacity="0.5" d="M82.50019550323486,-166.77067279815674" />
<path stroke-width="0.5" fill="none" stroke="red" fill-opacity="0.5" d="M82.50019550323486,-166.77067279815674" />
<path stroke-width="0.5" fill="none" stroke="red" fill-opacity="0.5" d="M82.50019550323486,-166.77067279815674" />
<path stroke-width="0.5" fill="none" stroke="red" fill-opacity="0.5" d="M82.50019550323486,-166.77067279815674" />
<path stroke-width="0.5" fill="none" stroke="red" fill-opacity="0.5" d="M80.0001859664917,-169.1413402557373" />
<path stroke-width="0.5" fill="none" stroke="red" fill-opacity="0.5" d="M75.00016689300537,-166.77067279815674" />
<path stroke-width="0.5" fill="none" stroke="red" fill-opacity="0.5" d="M85.00020503997803,-176.253342628479" />
<path stroke-width="0.5" fill="none" stroke="red" fill-opacity="0.5" d="M70.00014781951904,-176.253342628479" />
<path stroke-width="0.5" fill="none" stroke="red" fill-opacity="0.5" d="M55.00006675720215,-143.06399822235107" />
<path stroke-width="0.5" fill="none" stroke="red" fill-opacity="0.5" d="M55.00006675720215,-143.06399822235107" />
<path stroke-width="0.5" fill="none" stroke="red" fill-opacity="0.5" d="M55.00006675720215,-143.06399822235107" />
<path stroke-width="0.5" fill="none" stroke="red" fill-opacity="0.5" d="M87.50019073486328,-169.1413402557373" />
<path stroke-width="0.5" fill="none" stroke="red" fill-opacity="0.5" d="M82.50017166137695,-180.99467754364014" />
<path stroke-width="0.5" fill="none" stroke="red" fill-opacity="0.5" d="M85.00020503997803,-190.4773473739624" />
<path stroke-width="0.5" fill="none" stroke="red" fill-opacity="0.5" d="M82.50019550323486,-190.4773473739624" />
<path stroke-width="0.5" fill="none" stroke="red" fill-opacity="0.5" d="M85.00018119812012,-192.84801483154297" />
<path stroke-width="0.5" fill="none" stroke="red" fill-opacity="0.5" d="M90.00020027160645,-207.07201957702637" />
<path stroke-width="0.5" fill="none" stroke="red" fill-opacity="0.5" d="M95.00024318695068,-206.4793586730957" />
<path stroke-width="0.5" fill="none" stroke="red" fill-opacity="0.5" d="M95.00024318695068,-206.4793586730957" />
<path stroke-width="0.5" fill="none" stroke="red" fill-opacity="0.5" d="M95.00024318695068,-206.4793586730957" />
<path stroke-width="0.5" fill="none" stroke="red" fill-opacity="0.5" d="M102.50027179718018,-216.55473709106445" />
<path stroke-width="0.5" fill="none" stroke="red" fill-opacity="0.5" d="M102.50027179718018,-216.55473709106445" />
<path stroke-width="0.5" fill="none" stroke="red" fill-opacity="0.5" d="M102.50027179718018,-216.55473709106445" />
<path stroke-width="0.5" fill="none" stroke="red" fill-opacity="0.5" d="M102.50027179718018,-216.55473709106445" />
<path stroke-width="0.5" fill="none" stroke="red" fill-opacity="0.5" d="M102.50027179718018,-216.55473709106445" />
<path stroke-width="0.5" fill="none" stroke="red" fill-opacity="0.5" d="M102.50027179718018,-216.55473709106445" />
<path stroke-width="0.5" fill="none" stroke="red" fill-opacity="0.5" d="M102.50027179718018,-216.55473709106445" />
<path stroke-width="0.5" fill="none" stroke="red" fill-opacity="0.5" d="M102.50027179718018,-216.55473709106445" />
<path stroke-width="0.5" fill="none" stroke="red" fill-opacity="0.5" d="M82.50019550323486,-166.77067279815674 L82.50019550323486,-166.77067279815674 L82.50019550323486,-166.77067279815674 L82.50019550323486,-166.77067279815674 L80.0001859664917,-169.1413402557373 L75.00016689300537,-166.77067279815674 L85.00020503997803,-176.253342628479 L70.00014781951904,-176.253342628479 L55.00006675720215,-143.06399822235107 L55.00006675720215,-143.06399822235107 L55.00006675720215,-143.06399822235107 L87.50019073486328,-169.1413402557373 L82.50017166137695,-180.99467754364014 L85.00020503997803,-190.4773473739624 L82.50019550323486,-190.4773473739624 L85.00018119812012,-192.84801483154297 L90.00020027160645,-207.07201957702637 L95.00024318695068,-206.4793586730957 L95.00024318695068,-206.4793586730957 L95.00024318695068,-206.4793586730957 L102.50027179718018,-216.55473709106445 L102.50027179718018,-216.55473709106445 L102.50027179718018,-216.55473709106445 L102.50027179718018,-216.55473709106445 L102.50027179718018,-216.55473709106445 L102.50027179718018,-216.55473709106445 L102.50027179718018,-216.55473709106445 L102.50027179718018,-216.55473709106445" />
<path stroke-width="0.5" fill="none" stroke="red" fill-opacity="0.5" d="M82.50019550323486,-166.77067279815674" />
<path stroke-width="0.5" fill="none" stroke="red" fill-opacity="0.5" d="M82.50019550323486,-166.77067279815674" />
<path stroke-width="0.5" fill="none" stroke="red" fill-opacity="0.5" d="M82.50019550323486,-166.77067279815674" />
<path stroke-width="0.5" fill="none" stroke="red" fill-opacity="0.5" d="M82.50019550323486,-166.77067279815674" />
<path stroke-width="0.5" fill="none" stroke="red" fill-opacity="0.5" d="M82.24325180053711,-166.85566902160645" />
<path stroke-width="0.5" fill="none" stroke="red" fill-opacity="0.5" d="M81.7204475402832,-166.85457229614258" />
<path stroke-width="0.5" fill="none" stroke="red" fill-opacity="0.5" d="M81.78830146789551,-167.60895252227783" />
<path stroke-width="0.5" fill="none" stroke="red" fill-opacity="0.5" d="M81.02800846099854,-168.92242431640625" />
<path stroke-width="0.5" fill="none" stroke="red" fill-opacity="0.5" d="M73.03521633148193,-161.6567850112915" />
<path stroke-width="0.5" fill="none" stroke="red" fill-opacity="0.5" d="M67.33779907226562,-155.66716194152832" />
<path stroke-width="0.5" fill="none" stroke="red" fill-opacity="0.5" d="M64.38381671905518,-152.59733200073242" />
<path stroke-width="0.5" fill="none" stroke="red" fill-opacity="0.5" d="M70.98920345306396,-154.2006492614746" />
<path stroke-width="0.5" fill="none" stroke="red" fill-opacity="0.5" d="M74.63297843933105,-162.0121955871582" />
<path stroke-width="0.5" fill="none" stroke="red" fill-opacity="0.5" d="M76.31809711456299,-170.40081024169922" />
<path stroke-width="0.5" fill="none" stroke="red" fill-opacity="0.5" d="M77.20329761505127,-177.44169235229492" />
<path stroke-width="0.5" fill="none" stroke="red" fill-opacity="0.5" d="M77.82289981842041,-181.75406455993652" />
<path stroke-width="0.5" fill="none" stroke="red" fill-opacity="0.5" d="M79.71994876861572,-188.7075901031494" />
<path stroke-width="0.5" fill="none" stroke="red" fill-opacity="0.5" d="M82.69326686859131,-194.6755886077881" />
<path stroke-width="0.5" fill="none" stroke="red" fill-opacity="0.5" d="M85.5710506439209,-197.42121696472168" />
<path stroke-width="0.5" fill="none" stroke="red" fill-opacity="0.5" d="M87.37554550170898,-199.0997314453125" />
<path stroke-width="0.5" fill="none" stroke="red" fill-opacity="0.5" d="M89.15133476257324,-201.04069709777832" />
<path stroke-width="0.5" fill="none" stroke="red" fill-opacity="0.5" d="M92.35572814941406,-205.19332885742188" />
<path stroke-width="0.5" fill="none" stroke="red" fill-opacity="0.5" d="M94.41535472869873,-207.72600173950195" />
<path stroke-width="0.5" fill="none" stroke="red" fill-opacity="0.5" d="M95.7740306854248,-209.32555198669434" />
<path stroke-width="0.5" fill="none" stroke="red" fill-opacity="0.5" d="M96.73831462860107,-210.42890548706055" />
<path stroke-width="0.5" fill="none" stroke="red" fill-opacity="0.5" d="M97.45972156524658,-211.2382411956787" />
<path stroke-width="0.5" fill="none" stroke="red" fill-opacity="0.5" d="M98.02055358886719,-211.85832023620605" />
<path stroke-width="0.5" fill="none" stroke="red" fill-opacity="0.5" d="M98.46944808959961,-212.3490810394287" />
<path stroke-width="0.5" fill="none" stroke="black" fill-opacity="0.5" d="M82.50019550323486,-166.77067279815674 L82.50019550323486,-166.77067279815674 L82.50019550323486,-166.77067279815674 L82.50019550323486,-166.77067279815674 L82.24325180053711,-166.85566902160645 L81.7204475402832,-166.85457229614258 L81.78830146789551,-167.60895252227783 L81.02800846099854,-168.92242431640625 L73.03521633148193,-161.6567850112915 L67.33779907226562,-155.66716194152832 L64.38381671905518,-152.59733200073242 L70.98920345306396,-154.2006492614746 L74.63297843933105,-162.0121955871582 L76.31809711456299,-170.40081024169922 L77.20329761505127,-177.44169235229492 L77.82289981842041,-181.75406455993652 L79.71994876861572,-188.7075901031494 L82.69326686859131,-194.6755886077881 L85.5710506439209,-197.42121696472168 L87.37554550170898,-199.0997314453125 L89.15133476257324,-201.04069709777832 L92.35572814941406,-205.19332885742188 L94.41535472869873,-207.72600173950195 L95.7740306854248,-209.32555198669434 L96.73831462860107,-210.42890548706055 L97.45972156524658,-211.2382411956787 L98.02055358886719,-211.85832023620605 L98.46944808959961,-212.3490810394287" />
</svg>