<?xml version="1.0" encoding="UTF-8"?>
<svg xmlns="http://www.w3.org/2000/svg" xmlns:xlink="http://www.w3.org/1999/xlink"
     width="600" height="600" viewBox="0 -300 300 300">
<defs>
</defs>
<path stroke-width="0.5" fill="none" stroke="red" fill-opacity="0.5" d="M127.50039100646973,-207.07201957702637" />
<path stroke-width="0.5" fill="none" stroke="red" fill-opacity="0.5" d="M127.50039100646973,-204.10871505737305" />
<path stroke-width="0.5" fill="none" stroke="red" fill-opacity="0.5" d="M132.50041007995605,-207.07201957702637" />
<path stroke-width="0.5" fill="none" stroke="red" fill-opacity="0.5" d="M132.50041007995605,-197.5893497467041" />
<path stroke-width="0.5" fill="none" stroke="red" fill-opacity="0.5" d="M132.50041007995605,-209.44271087646484" />
<path stroke-width="0.5" fill="none" stroke="red" fill-opacity="0.5" d="M132.50041007995605,-199.95999336242676" />
<path stroke-width="0.5" fill="none" stroke="red" fill-opacity="0.5" d="M127.50041484832764,-204.7013282775879" />
<path stroke-width="0.5" fill="none" stroke="red" fill-opacity="0.5" d="M125.00038146972656,-194.62599754333496" />
<path stroke-width="0.5" fill="none" stroke="red" fill-opacity="0.5" d="M120.00036239624023,-190.4773473739624" />
<path stroke-width="0.5" fill="none" stroke="red" fill-opacity="0.5" d="M112.50033378601074,-199.95999336242676" />
<path stroke-width="0.5" fill="none" stroke="red" fill-opacity="0.5" d="M107.50031471252441,-197.5893497467041" />
<path stroke-width="0.5" fill="none" stroke="red" fill-opacity="0.5" d="M102.50029563903809,-197.5893497467041" />
<path stroke-width="0.5" fill="none" stroke="red" fill-opacity="0.5" d="M95.0002670288086,-197.5893497467041" />
<path stroke-width="0.5" fill="none" stroke="red" fill-opacity="0.5" d="M90.00024795532227,-195.21868228912354" />
<path stroke-width="0.5" fill="none" stroke="red" fill-opacity="0.5" d="M87.5002384185791,-192.84801483154297" />
<path stroke-width="0.5" fill="none" stroke="red" fill-opacity="0.5" d="M82.50021934509277,-190.4773473739624" />
<path stroke-width="0.5" fill="none" stroke="red" fill-opacity="0.5" d="M82.50021934509277,-185.73601245880127" />
<path stroke-width="0.5" fill="none" stroke="red" fill-opacity="0.5" d="M85.00022888183594,-180.99467754364014" />
<path stroke-width="0.5" fill="none" stroke="red" fill-opacity="0.5" d="M82.50021934509277,-178.62401008605957" />
<path stroke-width="0.5" fill="none" stroke="red" fill-opacity="0.5" d="M90.00024795532227,-176.253342628479" />
<path stroke-width="0.5" fill="none" stroke="red" fill-opacity="0.5" d="M95.0002670288086,-176.253342628479" />
<path stroke-width="0.5" fill="none" stroke="red" fill-opacity="0.5" d="M100.00028610229492,-176.253342628479" />
<path stroke-width="0.5" fill="none" stroke="red" fill-opacity="0.5" d="M110.00032424926758,-176.253342628479" />
<path stroke-width="0.5" fill="none" stroke="red" fill-opacity="0.5" d="M115.0003433227539,-178.62401008605957" />
<path stroke-width="0.5" fill="none" stroke="red" fill-opacity="0.5" d="M122.5003719329834,-180.99467754364014" />
<path stroke-width="0.5" fill="none" stroke="red" fill-opacity="0.5" d="M130.0004005432129,-180.99467754364014" />
<path stroke-width="0.5" fill="none" stroke="red" fill-opacity="0.5" d="M132.50043392181396,-185.73601245880127" />
<path stroke-width="0.5" fill="none" stroke="red" fill-opacity="0.5" d="M137.50042915344238,-190.4773473739624" />
<path stroke-width="0.5" fill="none" stroke="red" fill-opacity="0.5" d="M140.00046253204346,-195.21868228912354" />
<path stroke-width="0.5" fill="none" stroke="red" fill-opacity="0.5" d="M142.5004482269287,-199.95999336242676" />
<path stroke-width="0.5" fill="none" stroke="red" fill-opacity="0.5" d="M145.00048160552979,-202.33068466186523" />
<path stroke-width="0.5" fill="none" stroke="red" fill-opacity="0.5" d="M145.00045776367188,-207.07201957702637" />
<path stroke-width="0.5" fill="none" stroke="red" fill-opacity="0.5" d="M147.50049114227295,-211.8133544921875" />
<path stroke-width="0.5" fill="none" stroke="red" fill-opacity="0.5" d="M150.0005006790161,-208.85004997253418" />
<path stroke-width="0.5" fill="none" stroke="red" fill-opacity="0.5" d="M155.00051975250244,-211.22074127197266" />
<path stroke-width="0.5" fill="none" stroke="red" fill-opacity="0.5" d="M157.5005054473877,-211.22074127197266" />
<path stroke-width="0.5" fill="none" stroke="red" fill-opacity="0.5" d="M165.0005578994751,-206.4793586730957" />
<path stroke-width="0.5" fill="none" stroke="red" fill-opacity="0.5" d="M165.0005578994751,-206.4793586730957" />
<path stroke-width="0.5" fill="none" stroke="red" fill-opacity="0.5" d="M165.0005578994751,-206.4793586730957" />
<path stroke-width="0.5" fill="none" stroke="red" fill-opacity="0.5" d="M165.0005578994751,-206.4793586730957" />
<path stroke-width="0.5" fill="none" stroke="red" fill-opacity="0.5" d="M165.0005578994751,-206.4793586730957" />
<path stroke-width="0.5" fill="none" stroke="red" fill-opacity="0.5" d="M165.0005578994751,-206.4793586730957" />
<path stroke-width="0.5" fill="none" stroke="red" fill-opacity="0.5" d="M180.00061511993408,-183.3653450012207" />
<path stroke-width="0.5" fill="none" stroke="red" fill-opacity="0.5" d="M177.50060558319092,-176.253342628479" />
<path stroke-width="0.5" fill="none" stroke="red" fill-opacity="0.5" d="M177.50060558319092,-169.1413402557373" />
<path stroke-width="0.5" fill="none" stroke="red" fill-opacity="0.5" d="M170.00057697296143,-164.40000534057617" />
<path stroke-width="0.5" fill="none" stroke="red" fill-opacity="0.5" d="M165.0005340576172,-162.0293378829956" />
<path stroke-width="0.5" fill="none" stroke="red" fill-opacity="0.5" d="M150.0004768371582,-152.54666805267334" />
<path stroke-width="0.5" fill="none" stroke="red" fill-opacity="0.5" d="M137.50042915344238,-150.17600059509277" />
<path stroke-width="0.5" fill="none" stroke="red" fill-opacity="0.5" d="M120.00036239624023,-150.17600059509277" />
<path stroke-width="0.5" fill="none" stroke="red" fill-opacity="0.5" d="M102.50029563903809,-157.28800296783447" />
<path stroke-width="0.5" fill="none" stroke="red" fill-opacity="0.5" d="M127.50039100646973,-207.07201957702637 L127.50039100646973,-204.10871505737305 L132.50041007995605,-207.07201957702637 L132.50041007995605,-197.5893497467041 L132.50041007995605,-209.44271087646484 L132.50041007995605,-199.95999336242676 L127.50041484832764,-204.7013282775879 L125.00038146972656,-194.62599754333496 L120.00036239624023,-190.4773473739624 L112.50033378601074,-199.95999336242676 L107.50031471252441,-197.5893497467041 L102.50029563903809,-197.5893497467041 L95.0002670288086,-197.5893497467041 L90.00024795532227,-195.21868228912354 L87.5002384185791,-192.84801483154297 L82.50021934509277,-190.4773473739624 L82.50021934509277,-185.73601245880127 L85.00022888183594,-180.99467754364014 L82.50021934509277,-178.62401008605957 L90.00024795532227,-176.253342628479 L95.0002670288086,-176.253342628479 L100.00028610229492,-176.253342628479 L110.00032424926758,-176.253342628479 L115.0003433227539,-178.62401008605957 L122.5003719329834,-180.99467754364014 L130.0004005432129,-180.99467754364014 L132.50043392181396,-185.73601245880127 L137.50042915344238,-190.4773473739624 L140.00046253204346,-195.21868228912354 L142.5004482269287,-199.95999336242676 L145.00048160552979,-202.33068466186523 L145.00045776367188,-207.07201957702637 L147.50049114227295,-211.8133544921875 L150.0005006790161,-208.85004997253418 L155.00051975250244,-211.22074127197266 L157.5005054473877,-211.22074127197266 L165.0005578994751,-206.4793586730957 L165.0005578994751,-206.4793586730957 L165.0005578994751,-206.4793586730957 L165.0005578994751,-206.4793586730957 L165.0005578994751,-206.4793586730957 L165.0005578994751,-206.4793586730957 L180.00061511993408,-183.3653450012207 L177.50060558319092,-176.253342628479 L177.50060558319092,-169.1413402557373 L170.00057697296143,-164.40000534057617 L165.0005340576172,-162.0293378829956 L150.0004768371582,-152.54666805267334 L137.50042915344238,-150.17600059509277 L120.00036239624023,-150.17600059509277 L102.50029563903809,-157.28800296783447" />
<path stroke-width="0.5" fill="none" stroke="red" fill-opacity="0.5" d="M127.50039100646973,-207.07201957702637" />
<path stroke-width="0.5" fill="none" stroke="red" fill-opacity="0.5" d="M127.63714790344238,-206.44207000732422" />
<path stroke-width="0.5" fill="none" stroke="red" fill-opacity="0.5" d="M128.12001705169678,-205.8919906616211" />
<path stroke-width="0.5" fill="none" stroke="red" fill-opacity="0.5" d="M128.69155406951904,-205.01041412353516" />
<path stroke-width="0.5" fill="none" stroke="red" fill-opacity="0.5" d="M129.40080165863037,-204.5915126800537" />
<path stroke-width="0.5" fill="none" stroke="red" fill-opacity="0.5" d="M129.78601455688477,-204.2989730834961" />
<path stroke-width="0.5" fill="none" stroke="red" fill-opacity="0.5" d="M129.84447479248047,-204.24351692199707" />
<path stroke-width="0.5" fill="none" stroke="red" fill-opacity="0.5" d="M129.51252460479736,-204.0933132171631" />
<path stroke-width="0.5" fill="none" stroke="red" fill-opacity="0.5" d="M128.55408191680908,-203.42769622802734" />
<path stroke-width="0.5" fill="none" stroke="red" fill-opacity="0.5" d="M126.23980045318604,-202.52346992492676" />
<path stroke-width="0.5" fill="none" stroke="red" fill-opacity="0.5" d="M121.51474952697754,-202.3068904876709" />
<path stroke-width="0.5" fill="none" stroke="red" fill-opacity="0.5" d="M116.16756916046143,-202.09760665893555" />
<path stroke-width="0.5" fill="none" stroke="red" fill-opacity="0.5" d="M111.41307353973389,-201.67617797851562" />
<path stroke-width="0.5" fill="none" stroke="red" fill-opacity="0.5" d="M106.70087337493896,-200.46892166137695" />
<path stroke-width="0.5" fill="none" stroke="red" fill-opacity="0.5" d="M101.28941535949707,-199.58016872406006" />
<path stroke-width="0.5" fill="none" stroke="red" fill-opacity="0.5" d="M96.66786193847656,-198.15783500671387" />
<path stroke-width="0.5" fill="none" stroke="red" fill-opacity="0.5" d="M93.50073337554932,-196.1484670639038" />
<path stroke-width="0.5" fill="none" stroke="red" fill-opacity="0.5" d="M91.68193340301514,-192.96472072601318" />
<path stroke-width="0.5" fill="none" stroke="red" fill-opacity="0.5" d="M90.4221773147583,-189.76519107818604" />
<path stroke-width="0.5" fill="none" stroke="red" fill-opacity="0.5" d="M89.82000350952148,-187.143874168396" />
<path stroke-width="0.5" fill="none" stroke="red" fill-opacity="0.5" d="M89.93990421295166,-185.0433349609375" />
<path stroke-width="0.5" fill="none" stroke="red" fill-opacity="0.5" d="M91.3745641708374,-183.07559490203857" />
<path stroke-width="0.5" fill="none" stroke="red" fill-opacity="0.5" d="M96.25186920166016,-181.55946731567383" />
<path stroke-width="0.5" fill="none" stroke="red" fill-opacity="0.5" d="M101.38545036315918,-180.9990644454956" />
<path stroke-width="0.5" fill="none" stroke="red" fill-opacity="0.5" d="M107.15153217315674,-180.88417053222656" />
<path stroke-width="0.5" fill="none" stroke="red" fill-opacity="0.5" d="M113.86535167694092,-180.88507652282715" />
<path stroke-width="0.5" fill="none" stroke="red" fill-opacity="0.5" d="M119.61851119995117,-181.06472492218018" />
<path stroke-width="0.5" fill="none" stroke="red" fill-opacity="0.5" d="M124.6828556060791,-181.95242881774902" />
<path stroke-width="0.5" fill="none" stroke="red" fill-opacity="0.5" d="M128.45699787139893,-184.33606624603271" />
<path stroke-width="0.5" fill="none" stroke="red" fill-opacity="0.5" d="M131.7279815673828,-187.39144802093506" />
<path stroke-width="0.5" fill="none" stroke="red" fill-opacity="0.5" d="M134.22236442565918,-190.72458744049072" />
<path stroke-width="0.5" fill="none" stroke="red" fill-opacity="0.5" d="M136.47403717041016,-195.02761363983154" />
<path stroke-width="0.5" fill="none" stroke="red" fill-opacity="0.5" d="M138.2411241531372,-198.0114221572876" />
<path stroke-width="0.5" fill="none" stroke="red" fill-opacity="0.5" d="M140.44945240020752,-200.77028274536133" />
<path stroke-width="0.5" fill="none" stroke="red" fill-opacity="0.5" d="M142.67001152038574,-201.58658027648926" />
<path stroke-width="0.5" fill="none" stroke="red" fill-opacity="0.5" d="M145.92573642730713,-203.31697463989258" />
<path stroke-width="0.5" fill="none" stroke="red" fill-opacity="0.5" d="M149.8764991760254,-203.65796089172363" />
<path stroke-width="0.5" fill="none" stroke="red" fill-opacity="0.5" d="M154.01933193206787,-203.84840965270996" />
<path stroke-width="0.5" fill="none" stroke="red" fill-opacity="0.5" d="M156.4060926437378,-204.01248931884766" />
<path stroke-width="0.5" fill="none" stroke="red" fill-opacity="0.5" d="M157.92818069458008,-204.1576862335205" />
<path stroke-width="0.5" fill="none" stroke="red" fill-opacity="0.5" d="M158.98730754852295,-204.28709983825684" />
<path stroke-width="0.5" fill="none" stroke="red" fill-opacity="0.5" d="M159.76896286010742,-204.4032096862793" />
<path stroke-width="0.5" fill="none" stroke="red" fill-opacity="0.5" d="M165.10443687438965,-202.0556926727295" />
<path stroke-width="0.5" fill="none" stroke="red" fill-opacity="0.5" d="M168.9929485321045,-195.37134170532227" />
<path stroke-width="0.5" fill="none" stroke="red" fill-opacity="0.5" d="M170.56288719177246,-187.2673749923706" />
<path stroke-width="0.5" fill="none" stroke="red" fill-opacity="0.5" d="M170.975661277771,-180.3358793258667" />
<path stroke-width="0.5" fill="none" stroke="red" fill-opacity="0.5" d="M170.81658840179443,-175.20816326141357" />
<path stroke-width="0.5" fill="none" stroke="red" fill-opacity="0.5" d="M165.97952842712402,-169.2061185836792" />
<path stroke-width="0.5" fill="none" stroke="red" fill-opacity="0.5" d="M156.31022453308105,-163.4284496307373" />
<path stroke-width="0.5" fill="none" stroke="red" fill-opacity="0.5" d="M144.0201997756958,-160.08245944976807" />
<path stroke-width="0.5" fill="none" stroke="red" fill-opacity="0.5" d="M129.92961406707764,-158.41245651245117" />
<path stroke-width="0.5" fill="none" stroke="black" fill-opacity="0.5" d="M127.50039100646973,-207.07201957702637 L127.63714790344238,-206.44207000732422 L128.12001705169678,-205.8919906616211 L128.69155406951904,-205.01041412353516 L129.40080165863037,-204.5915126800537 L129.78601455688477,-204.2989730834961 L129.84447479248047,-204.24351692199707 L129.51252460479736,-204.0933132171631 L128.55408191680908,-203.42769622802734 L126.23980045318604,-202.52346992492676 L121.51474952697754,-202.3068904876709 L116.16756916046143,-202.09760665893555 L111.41307353973389,-201.67617797851562 L106.70087337493896,-200.46892166137695 L101.28941535949707,-199.58016872406006 L96.66786193847656,-198.15783500671387 L93.50073337554932,-196.1484670639038 L91.68193340301514,-192.96472072601318 L90.4221773147583,-189.76519107818604 L89.82000350952148,-187.143874168396 L89.93990421295166,-185.0433349609375 L91.3745641708374,-183.07559490203857 L96.25186920166016,-181.55946731567383 L101.38545036315918,-180.9990644454956 L107.15153217315674,-180.88417053222656 L113.86535167694092,-180.88507652282715 L119.61851119995117,-181.06472492218018 L124.6828556060791,-181.95242881774902 L128.45699787139893,-184.33606624603271 L131.7279815673828,-187.39144802093506 L134.22236442565918,-190.72458744049072 L136.47403717041016,-195.02761363983154 L138.2411241531372,-198.0114221572876 L140.44945240020752,-200.77028274536133 L142.67001152038574,-201.58658027648926 L145.92573642730713,-203.31697463989258 L149.8764991760254,-203.65796089172363 L154.01933193206787,-203.84840965270996 L156.4060926437378,-204.01248931884766 L157.92818069458008,-204.1576862335205 L158.98730754852295,-204.28709983825684 L159.76896286010742,-204.4032096862793 L165.10443687438965,-202.0556926727295 L168.9929485321045,-195.37134170532227 L170.56288719177246,-187.2673749923706 L170.975661277771,-180.3358793258667 L170.81658840179443,-175.20816326141357 L165.97952842712402,-169.2061185836792 L156.31022453308105,-163.4284496307373 L144.0201997756958,-160.08245944976807 L129.92961406707764,-158.41245651245117" />
</svg>