<?xml version="1.0" encoding="UTF-8"?>
<svg xmlns="http://www.w3.org/2000/svg" xmlns:xlink="http://www.w3.org/1999/xlink"
     width="600" height="600" viewBox="0 -300 300 300">
<defs>
</defs>
<path stroke-width="0.5" fill="none" stroke="red" fill-opacity="0.5" d="M95.00024318695068,-173.88267517089844" />
<path stroke-width="0.5" fill="none" stroke="red" fill-opacity="0.5" d="M97.50025272369385,-176.253342628479" />
<path stroke-width="0.5" fill="none" stroke="red" fill-opacity="0.5" d="M95.00024318695068,-171.51200771331787" />
<path stroke-width="0.5" fill="none" stroke="red" fill-opacity="0.5" d="M117.50035285949707,-159.65867042541504" />
<path stroke-width="0.5" fill="none" stroke="red" fill-opacity="0.5" d="M115.0003433227539,-183.3653450012207" />
<path stroke-width="0.5" fill="none" stroke="red" fill-opacity="0.5" d="M115.00036716461182,-190.4773473739624" />
<path stroke-width="0.5" fill="none" stroke="red" fill-opacity="0.5" d="M112.50033378601074,-197.5893497467041" />
<path stroke-width="0.5" fill="none" stroke="red" fill-opacity="0.5" d="M115.00036716461182,-199.95999336242676" />
<path stroke-width="0.5" fill="none" stroke="red" fill-opacity="0.5" d="M132.50041007995605,-196.99666500091553" />
<path stroke-width="0.5" fill="none" stroke="red" fill-opacity="0.5" d="M140.00043869018555,-207.07201957702637" />
<path stroke-width="0.5" fill="none" stroke="red" fill-opacity="0.5" d="M145.00048160552979,-202.33068466186523" />
<path stroke-width="0.5" fill="none" stroke="red" fill-opacity="0.5" d="M155.00049591064453,-188.10667991638184" />
<path stroke-width="0.5" fill="none" stroke="red" fill-opacity="0.5" d="M157.5005054473877,-188.10667991638184" />
<path stroke-width="0.5" fill="none" stroke="red" fill-opacity="0.5" d="M157.5005054473877,-188.10667991638184" />
<path stroke-width="0.5" fill="none" stroke="red" fill-opacity="0.5" d="M165.0005340576172,-164.40000534057617" />
<path stroke-width="0.5" fill="none" stroke="red" fill-opacity="0.5" d="M165.0005340576172,-164.40000534057617" />
<path stroke-width="0.5" fill="none" stroke="red" fill-opacity="0.5" d="M165.0005340576172,-164.40000534057617" />
<path stroke-width="0.5" fill="none" stroke="red" fill-opacity="0.5" d="M165.0005340576172,-164.40000534057617" />
<path stroke-width="0.5" fill="none" stroke="red" fill-opacity="0.5" d="M165.0005340576172,-164.40000534057617" />
<path stroke-width="0.5" fill="none" stroke="red" fill-opacity="0.5" d="M165.0005340576172,-164.40000534057617" />
<path stroke-width="0.5" fill="none" stroke="red" fill-opacity="0.5" d="M137.50042915344238,-197.5893497467041" />
<path stroke-width="0.5" fill="none" stroke="red" fill-opacity="0.5" d="M137.50042915344238,-197.5893497467041" />
<path stroke-width="0.5" fill="none" stroke="red" fill-opacity="0.5" d="M137.50042915344238,-197.5893497467041" />
<path stroke-width="0.5" fill="none" stroke="red" fill-opacity="0.5" d="M137.50042915344238,-197.5893497467041" />
<path stroke-width="0.5" fill="none" stroke="red" fill-opacity="0.5" d="M137.50042915344238,-197.5893497467041" />
<path stroke-width="0.5" fill="none" stroke="red" fill-opacity="0.5" d="M137.50042915344238,-197.5893497467041" />
<path stroke-width="0.5" fill="none" stroke="red" fill-opacity="0.5" d="M137.50042915344238,-197.5893497467041" />
<path stroke-width="0.5" fill="none" stroke="red" fill-opacity="0.5" d="M137.50042915344238,-197.5893497467041" />
<path stroke-width="0.5" fill="none" stroke="red" fill-opacity="0.5" d="M95.00024318695068,-173.88267517089844 L97.50025272369385,-176.253342628479 L95.00024318695068,-171.51200771331787 L117.50035285949707,-159.65867042541504 L115.0003433227539,-183.3653450012207 L115.00036716461182,-190.4773473739624 L112.50033378601074,-197.5893497467041 L115.00036716461182,-199.95999336242676 L132.50041007995605,-196.99666500091553 L140.00043869018555,-207.07201957702637 L145.00048160552979,-202.33068466186523 L155.00049591064453,-188.10667991638184 L157.5005054473877,-188.10667991638184 L157.5005054473877,-188.10667991638184 L165.0005340576172,-164.40000534057617 L165.0005340576172,-164.40000534057617 L165.0005340576172,-164.40000534057617 L165.0005340576172,-164.40000534057617 L165.0005340576172,-164.40000534057617 L165.0005340576172,-164.40000534057617 L137.50042915344238,-197.5893497467041 L137.50042915344238,-197.5893497467041 L137.50042915344238,-197.5893497467041 L137.50042915344238,-197.5893497467041 L137.50042915344238,-197.5893497467041 L137.50042915344238,-197.5893497467041 L137.50042915344238,-197.5893497467041 L137.50042915344238,-197.5893497467041" />
<path stroke-width="0.5" fill="none" stroke="red" fill-opacity="0.5" d="M95.00024318695068,-173.88267517089844" />
<path stroke-width="0.5" fill="none" stroke="red" fill-opacity="0.5" d="M94.98128890991211,-174.0194797515869" />
<path stroke-width="0.5" fill="none" stroke="red" fill-opacity="0.5" d="M95.01330852508545,-174.02262687683105" />
<path stroke-width="0.5" fill="none" stroke="red" fill-opacity="0.5" d="M98.907470703125,-172.03781604766846" />
<path stroke-width="0.5" fill="none" stroke="red" fill-opacity="0.5" d="M103.52311134338379,-172.06881046295166" />
<path stroke-width="0.5" fill="none" stroke="red" fill-opacity="0.5" d="M105.88443279266357,-176.4134645462036" />
<path stroke-width="0.5" fill="none" stroke="red" fill-opacity="0.5" d="M107.34119415283203,-182.11798667907715" />
<path stroke-width="0.5" fill="none" stroke="red" fill-opacity="0.5" d="M108.79533290863037,-186.24582290649414" />
<path stroke-width="0.5" fill="none" stroke="red" fill-opacity="0.5" d="M112.41176128387451,-190.13452529907227" />
<path stroke-width="0.5" fill="none" stroke="red" fill-opacity="0.5" d="M120.38507461547852,-192.18285083770752" />
<path stroke-width="0.5" fill="none" stroke="red" fill-opacity="0.5" d="M128.53219509124756,-194.77882385253906" />
<path stroke-width="0.5" fill="none" stroke="red" fill-opacity="0.5" d="M138.1408452987671,-194.22776699066162" />
<path stroke-width="0.5" fill="none" stroke="red" fill-opacity="0.5" d="M144.02921199798584,-193.39532852172852" />
<path stroke-width="0.5" fill="none" stroke="red" fill-opacity="0.5" d="M147.4724292755127,-192.78051853179932" />
<path stroke-width="0.5" fill="none" stroke="red" fill-opacity="0.5" d="M152.1113634109497,-183.45637321472168" />
<path stroke-width="0.5" fill="none" stroke="red" fill-opacity="0.5" d="M155.28056621551514,-177.1608829498291" />
<path stroke-width="0.5" fill="none" stroke="red" fill-opacity="0.5" d="M157.19051361083984,-174.0190029144287" />
<path stroke-width="0.5" fill="none" stroke="red" fill-opacity="0.5" d="M158.46481323242188,-172.14431762695312" />
<path stroke-width="0.5" fill="none" stroke="red" fill-opacity="0.5" d="M159.37862396240234,-170.88985443115234" />
<path stroke-width="0.5" fill="none" stroke="red" fill-opacity="0.5" d="M160.06741523742676,-169.98803615570068" />
<path stroke-width="0.5" fill="none" stroke="red" fill-opacity="0.5" d="M158.4874391555786,-172.4203109741211" />
<path stroke-width="0.5" fill="none" stroke="red" fill-opacity="0.5" d="M151.5941619873047,-181.80959224700928" />
<path stroke-width="0.5" fill="none" stroke="red" fill-opacity="0.5" d="M147.8571891784668,-186.38596534729004" />
<path stroke-width="0.5" fill="none" stroke="red" fill-opacity="0.5" d="M145.71006298065186,-188.86616230010986" />
<path stroke-width="0.5" fill="none" stroke="red" fill-opacity="0.5" d="M144.31190490722656,-190.43092727661133" />
<path stroke-width="0.5" fill="none" stroke="red" fill-opacity="0.5" d="M143.324613571167,-191.514253616333" />
<path stroke-width="0.5" fill="none" stroke="red" fill-opacity="0.5" d="M142.5884485244751,-192.31104850769043" />
<path stroke-width="0.5" fill="none" stroke="red" fill-opacity="0.5" d="M142.01760292053223,-192.9227590560913" />
<path stroke-width="0.5" fill="none" stroke="black" fill-opacity="0.5" d="M95.00024318695068,-173.88267517089844 L94.98128890991211,-174.0194797515869 L95.01330852508545,-174.02262687683105 L98.907470703125,-172.03781604766846 L103.52311134338379,-172.06881046295166 L105.88443279266357,-176.4134645462036 L107.34119415283203,-182.11798667907715 L108.79533290863037,-186.24582290649414 L112.41176128387451,-190.13452529907227 L120.38507461547852,-192.18285083770752 L128.53219509124756,-194.77882385253906 L138.1408452987671,-194.22776699066162 L144.02921199798584,-193.39532852172852 L147.4724292755127,-192.78051853179932 L152.1113634109497,-183.45637321472168 L155.28056621551514,-177.1608829498291 L157.19051361083984,-174.0190029144287 L158.46481323242188,-172.14431762695312 L159.37862396240234,-170.88985443115234 L160.06741523742676,-169.98803615570068 L158.4874391555786,-172.4203109741211 L151.5941619873047,-181.80959224700928 L147.8571891784668,-186.38596534729004 L145.71006298065186,-188.86616230010986 L144.31190490722656,-190.43092727661133 L143.324613571167,-191.514253616333 L142.5884485244751,-192.31104850769043 L142.01760292053223,-192.9227590560913" />
</svg>