<?xml version="1.0" encoding="UTF-8"?>
<svg xmlns="http://www.w3.org/2000/svg" xmlns:xlink="http://www.w3.org/1999/xlink"
     width="600" height="600" viewBox="0 -300 300 300">
<defs>
</defs>
<path stroke-width="0.5" fill="none" stroke="red" fill-opacity="0.5" d="M90.00022411346436,-176.253342628479" />
<path stroke-width="0.5" fill="none" stroke="red" fill-opacity="0.5" d="M92.50025749206543,-176.253342628479" />
<path stroke-width="0.5" fill="none" stroke="red" fill-opacity="0.5" d="M90.00024795532227,-178.62401008605957" />
<path stroke-width="0.5" fill="none" stroke="red" fill-opacity="0.5" d="M130.00037670135498,-166.77067279815674" />
<path stroke-width="0.5" fill="none" stroke="red" fill-opacity="0.5" d="M127.50039100646973,-176.253342628479" />
<path stroke-width="0.5" fill="none" stroke="red" fill-opacity="0.5" d="M127.50039100646973,-176.253342628479" />
<path stroke-width="0.5" fill="none" stroke="red" fill-opacity="0.5" d="M135.00041961669922,-178.62401008605957" />
<path stroke-width="0.5" fill="none" stroke="red" fill-opacity="0.5" d="M130.0004005432129,-190.4773473739624" />
<path stroke-width="0.5" fill="none" stroke="red" fill-opacity="0.5" d="M132.50043392181396,-185.73601245880127" />
<path stroke-width="0.5" fill="none" stroke="red" fill-opacity="0.5" d="M132.50043392181396,-185.73601245880127" />
<path stroke-width="0.5" fill="none" stroke="red" fill-opacity="0.5" d="M132.50043392181396,-185.73601245880127" />
<path stroke-width="0.5" fill="none" stroke="red" fill-opacity="0.5" d="M135.00041961669922,-211.8133544921875" />
<path stroke-width="0.5" fill="none" stroke="red" fill-opacity="0.5" d="M125.00038146972656,-214.18404579162598" />
<path stroke-width="0.5" fill="none" stroke="red" fill-opacity="0.5" d="M125.00038146972656,-214.18404579162598" />
<path stroke-width="0.5" fill="none" stroke="red" fill-opacity="0.5" d="M107.5002908706665,-207.07201957702637" />
<path stroke-width="0.5" fill="none" stroke="red" fill-opacity="0.5" d="M102.50027179718018,-202.33068466186523" />
<path stroke-width="0.5" fill="none" stroke="red" fill-opacity="0.5" d="M97.50025272369385,-199.95999336242676" />
<path stroke-width="0.5" fill="none" stroke="red" fill-opacity="0.5" d="M95.00024318695068,-190.4773473739624" />
<path stroke-width="0.5" fill="none" stroke="red" fill-opacity="0.5" d="M95.0002670288086,-185.73601245880127" />
<path stroke-width="0.5" fill="none" stroke="red" fill-opacity="0.5" d="M87.50021457672119,-178.62401008605957" />
<path stroke-width="0.5" fill="none" stroke="red" fill-opacity="0.5" d="M87.5002384185791,-171.51200771331787" />
<path stroke-width="0.5" fill="none" stroke="red" fill-opacity="0.5" d="M77.50017642974854,-169.1413402557373" />
<path stroke-width="0.5" fill="none" stroke="red" fill-opacity="0.5" d="M70.00014781951904,-169.1413402557373" />
<path stroke-width="0.5" fill="none" stroke="red" fill-opacity="0.5" d="M67.50013828277588,-171.51200771331787" />
<path stroke-width="0.5" fill="none" stroke="red" fill-opacity="0.5" d="M57.50010013580322,-173.88267517089844" />
<path stroke-width="0.5" fill="none" stroke="red" fill-opacity="0.5" d="M52.500081062316895,-171.51200771331787" />
<path stroke-width="0.5" fill="none" stroke="red" fill-opacity="0.5" d="M82.50019550323486,-173.88267517089844" />
<path stroke-width="0.5" fill="none" stroke="red" fill-opacity="0.5" d="M47.500038146972656,-180.99467754364014" />
<path stroke-width="0.5" fill="none" stroke="red" fill-opacity="0.5" d="M90.00024795532227,-195.21868228912354" />
<path stroke-width="0.5" fill="none" stroke="red" fill-opacity="0.5" d="M90.00024795532227,-195.21868228912354" />
<path stroke-width="0.5" fill="none" stroke="red" fill-opacity="0.5" d="M90.00024795532227,-195.21868228912354" />
<path stroke-width="0.5" fill="none" stroke="red" fill-opacity="0.5" d="M90.00024795532227,-195.21868228912354" />
<path stroke-width="0.5" fill="none" stroke="red" fill-opacity="0.5" d="M90.00024795532227,-195.21868228912354" />
<path stroke-width="0.5" fill="none" stroke="red" fill-opacity="0.5" d="M90.00024795532227,-195.21868228912354" />
<path stroke-width="0.5" fill="none" stroke="red" fill-opacity="0.5" d="M90.00024795532227,-195.21868228912354" />
<path stroke-width="0.5" fill="none" stroke="red" fill-opacity="0.5" d="M90.00024795532227,-195.21868228912354" />
<path stroke-width="0.5" fill="none" stroke="red" fill-opacity="0.5" d="M90.00022411346436,-176.253342628479 L92.50025749206543,-176.253342628479 L90.00024795532227,-178.62401008605957 L130.00037670135498,-166.77067279815674 L127.50039100646973,-176.253342628479 L127.50039100646973,-176.253342628479 L135.00041961669922,-178.62401008605957 L130.0004005432129,-190.4773473739624 L132.50043392181396,-185.73601245880127 L132.50043392181396,-185.73601245880127 L132.50043392181396,-185.73601245880127 L135.00041961669922,-211.8133544921875 L125.00038146972656,-214.18404579162598 L125.00038146972656,-214.18404579162598 L107.5002908706665,-207.07201957702637 L102.50027179718018,-202.33068466186523 L97.50025272369385,-199.95999336242676 L95.00024318695068,-190.4773473739624 L95.0002670288086,-185.73601245880127 L87.50021457672119,-178.62401008605957 L87.5002384185791,-171.51200771331787 L77.50017642974854,-169.1413402557373 L70.00014781951904,-169.1413402557373 L67.50013828277588,-171.51200771331787 L57.50010013580322,-173.88267517089844 L52.500081062316895,-171.51200771331787 L82.50019550323486,-173.88267517089844 L47.500038146972656,-180.99467754364014 L90.00024795532227,-195.21868228912354 L90.00024795532227,-195.21868228912354 L90.00024795532227,-195.21868228912354 L90.00024795532227,-195.21868228912354 L90.00024795532227,-195.21868228912354 L90.00024795532227,-195.21868228912354 L90.00024795532227,-195.21868228912354 L90.00024795532227,-195.21868228912354" />
<path stroke-width="0.5" fill="none" stroke="red" fill-opacity="0.5" d="M90.00022411346436,-176.253342628479" />
<path stroke-width="0.5" fill="none" stroke="red" fill-opacity="0.5" d="M89.84344005584717,-176.2653112411499" />
<path stroke-width="0.5" fill="none" stroke="red" fill-opacity="0.5" d="M89.8402214050293,-176.29201412200928" />
<path stroke-width="0.5" fill="none" stroke="red" fill-opacity="0.5" d="M94.71065998077393,-172.951340675354" />
<path stroke-width="0.5" fill="none" stroke="red" fill-opacity="0.5" d="M109.3472957611084,-172.63641357421875" />
<path stroke-width="0.5" fill="none" stroke="red" fill-opacity="0.5" d="M115.27230739593506,-172.9022979736328" />
<path stroke-width="0.5" fill="none" stroke="red" fill-opacity="0.5" d="M118.78335475921631,-173.40679168701172" />
<path stroke-width="0.5" fill="none" stroke="red" fill-opacity="0.5" d="M123.1001615524292,-174.36785697937012" />
<path stroke-width="0.5" fill="none" stroke="red" fill-opacity="0.5" d="M124.63927268981934,-177.4308204650879" />
<path stroke-width="0.5" fill="none" stroke="red" fill-opacity="0.5" d="M125.92129707336426,-178.8726568222046" />
<path stroke-width="0.5" fill="none" stroke="red" fill-opacity="0.5" d="M126.84621810913086,-179.8745632171631" />
<path stroke-width="0.5" fill="none" stroke="red" fill-opacity="0.5" d="M127.74126529693604,-185.10258197784424" />
<path stroke-width="0.5" fill="none" stroke="red" fill-opacity="0.5" d="M127.32846736907959,-197.47636318206787" />
<path stroke-width="0.5" fill="none" stroke="red" fill-opacity="0.5" d="M127.14781761169434,-202.62951850891113" />
<path stroke-width="0.5" fill="none" stroke="red" fill-opacity="0.5" d="M124.80533123016357,-203.91526222229004" />
<path stroke-width="0.5" fill="none" stroke="red" fill-opacity="0.5" d="M119.90561485290527,-204.2931079864502" />
<path stroke-width="0.5" fill="none" stroke="red" fill-opacity="0.5" d="M113.80043029785156,-204.22067642211914" />
<path stroke-width="0.5" fill="none" stroke="red" fill-opacity="0.5" d="M108.34083557128906,-202.74276733398438" />
<path stroke-width="0.5" fill="none" stroke="red" fill-opacity="0.5" d="M104.80449199676514,-199.5321750640869" />
<path stroke-width="0.5" fill="none" stroke="red" fill-opacity="0.5" d="M100.75860023498535,-194.3354606628418" />
<path stroke-width="0.5" fill="none" stroke="red" fill-opacity="0.5" d="M96.93975448608398,-188.04428577423096" />
<path stroke-width="0.5" fill="none" stroke="red" fill-opacity="0.5" d="M92.8504228591919,-182.49893188476562" />
<path stroke-width="0.5" fill="none" stroke="red" fill-opacity="0.5" d="M87.29450702667236,-179.1126251220703" />
<path stroke-width="0.5" fill="none" stroke="red" fill-opacity="0.5" d="M81.7173719406128,-177.53286361694336" />
<path stroke-width="0.5" fill="none" stroke="red" fill-opacity="0.5" d="M76.1807918548584,-177.01153755187988" />
<path stroke-width="0.5" fill="none" stroke="red" fill-opacity="0.5" d="M72.22063541412354,-177.9789924621582" />
<path stroke-width="0.5" fill="none" stroke="red" fill-opacity="0.5" d="M65.57526588439941,-177.86948680877686" />
<path stroke-width="0.5" fill="none" stroke="red" fill-opacity="0.5" d="M64.14744853973389,-177.84011363983154" />
<path stroke-width="0.5" fill="none" stroke="red" fill-opacity="0.5" d="M67.08998680114746,-180.93900680541992" />
<path stroke-width="0.5" fill="none" stroke="red" fill-opacity="0.5" d="M75.40595531463623,-184.68053340911865" />
<path stroke-width="0.5" fill="none" stroke="red" fill-opacity="0.5" d="M79.39794063568115,-186.8938684463501" />
<path stroke-width="0.5" fill="none" stroke="red" fill-opacity="0.5" d="M81.64005279541016,-188.32859992980957" />
<path stroke-width="0.5" fill="none" stroke="red" fill-opacity="0.5" d="M83.0862283706665,-189.33727741241455" />
<path stroke-width="0.5" fill="none" stroke="red" fill-opacity="0.5" d="M84.10143852233887,-190.08705615997314" />
<path stroke-width="0.5" fill="none" stroke="red" fill-opacity="0.5" d="M84.85541343688965,-190.66715240478516" />
<path stroke-width="0.5" fill="none" stroke="red" fill-opacity="0.5" d="M85.43829917907715,-191.12975597381592" />
<path stroke-width="0.5" fill="none" stroke="black" fill-opacity="0.5" d="M90.00022411346436,-176.253342628479 L89.84344005584717,-176.2653112411499 L89.8402214050293,-176.29201412200928 L94.71065998077393,-172.951340675354 L109.3472957611084,-172.63641357421875 L115.27230739593506,-172.9022979736328 L118.78335475921631,-173.40679168701172 L123.1001615524292,-174.36785697937012 L124.63927268981934,-177.4308204650879 L125.92129707336426,-178.8726568222046 L126.84621810913086,-179.8745632171631 L127.74126529693604,-185.10258197784424 L127.32846736907959,-197.47636318206787 L127.14781761169434,-202.62951850891113 L124.80533123016357,-203.91526222229004 L119.90561485290527,-204.2931079864502 L113.80043029785156,-204.22067642211914 L108.34083557128906,-202.74276733398438 L104.80449199676514,-199.5321750640869 L100.75860023498535,-194.3354606628418 L96.93975448608398,-188.04428577423096 L92.8504228591919,-182.49893188476562 L87.29450702667236,-179.1126251220703 L81.7173719406128,-177.53286361694336 L76.1807918548584,-177.01153755187988 L72.22063541412354,-177.9789924621582 L65.57526588439941,-177.86948680877686 L64.14744853973389,-177.84011363983154 L67.08998680114746,-180.93900680541992 L75.40595531463623,-184.68053340911865 L79.39794063568115,-186.8938684463501 L81.64005279541016,-188.32859992980957 L83.0862283706665,-189.33727741241455 L84.10143852233887,-190.08705615997314 L84.85541343688965,-190.66715240478516 L85.43829917907715,-191.12975597381592" />
</svg>