<?xml version="1.0" encoding="UTF-8"?>
<svg xmlns="http://www.w3.org/2000/svg" xmlns:xlink="http://www.w3.org/1999/xlink"
     width="600" height="600" viewBox="0 -300 300 300">
<defs>
</defs>
<path stroke-width="0.5" fill="none" stroke="red" fill-opacity="0.5" d="M130.0004005432129,-206.4793586730957" />
<path stroke-width="0.5" fill="none" stroke="red" fill-opacity="0.5" d="M135.00041961669922,-202.33068466186523" />
<path stroke-width="0.5" fill="none" stroke="red" fill-opacity="0.5" d="M142.5004482269287,-208.85004997253418" />
<path stroke-width="0.5" fill="none" stroke="red" fill-opacity="0.5" d="M140.00043869018555,-204.7013282775879" />
<path stroke-width="0.5" fill="none" stroke="red" fill-opacity="0.5" d="M150.0004768371582,-204.7013282775879" />
<path stroke-width="0.5" fill="none" stroke="red" fill-opacity="0.5" d="M145.00045776367188,-202.33068466186523" />
<path stroke-width="0.5" fill="none" stroke="red" fill-opacity="0.5" d="M155.00051975250244,-197.5893497467041" />
<path stroke-width="0.5" fill="none" stroke="red" fill-opacity="0.5" d="M160.00053882598877,-202.33068466186523" />
<path stroke-width="0.5" fill="none" stroke="red" fill-opacity="0.5" d="M162.50054836273193,-197.5893497467041" />
<path stroke-width="0.5" fill="none" stroke="red" fill-opacity="0.5" d="M167.50056743621826,-192.84801483154297" />
<path stroke-width="0.5" fill="none" stroke="red" fill-opacity="0.5" d="M167.50056743621826,-190.4773473739624" />
<path stroke-width="0.5" fill="none" stroke="red" fill-opacity="0.5" d="M170.00057697296143,-188.10667991638184" />
<path stroke-width="0.5" fill="none" stroke="red" fill-opacity="0.5" d="M170.00057697296143,-183.3653450012207" />
<path stroke-width="0.5" fill="none" stroke="red" fill-opacity="0.5" d="M172.5005865097046,-180.99467754364014" />
<path stroke-width="0.5" fill="none" stroke="red" fill-opacity="0.5" d="M175.00059604644775,-178.62401008605957" />
<path stroke-width="0.5" fill="none" stroke="red" fill-opacity="0.5" d="M175.00059604644775,-180.99467754364014" />
<path stroke-width="0.5" fill="none" stroke="red" fill-opacity="0.5" d="M180.00061511993408,-183.3653450012207" />
<path stroke-width="0.5" fill="none" stroke="red" fill-opacity="0.5" d="M180.000638961792,-185.73601245880127" />
<path stroke-width="0.5" fill="none" stroke="red" fill-opacity="0.5" d="M177.50060558319092,-188.10667991638184" />
<path stroke-width="0.5" fill="none" stroke="red" fill-opacity="0.5" d="M180.000638961792,-195.21868228912354" />
<path stroke-width="0.5" fill="none" stroke="red" fill-opacity="0.5" d="M182.50064849853516,-185.73601245880127" />
<path stroke-width="0.5" fill="none" stroke="red" fill-opacity="0.5" d="M182.50064849853516,-202.33068466186523" />
<path stroke-width="0.5" fill="none" stroke="red" fill-opacity="0.5" d="M190.00067710876465,-192.84801483154297" />
<path stroke-width="0.5" fill="none" stroke="red" fill-opacity="0.5" d="M190.00067710876465,-195.21868228912354" />
<path stroke-width="0.5" fill="none" stroke="red" fill-opacity="0.5" d="M197.50070571899414,-190.4773473739624" />
<path stroke-width="0.5" fill="none" stroke="red" fill-opacity="0.5" d="M197.50070571899414,-188.10667991638184" />
<path stroke-width="0.5" fill="none" stroke="red" fill-opacity="0.5" d="M197.50070571899414,-188.10667991638184" />
<path stroke-width="0.5" fill="none" stroke="red" fill-opacity="0.5" d="M197.50070571899414,-188.10667991638184" />
<path stroke-width="0.5" fill="none" stroke="red" fill-opacity="0.5" d="M197.50070571899414,-188.10667991638184" />
<path stroke-width="0.5" fill="none" stroke="red" fill-opacity="0.5" d="M197.50070571899414,-188.10667991638184" />
<path stroke-width="0.5" fill="none" stroke="red" fill-opacity="0.5" d="M197.50070571899414,-188.10667991638184" />
<path stroke-width="0.5" fill="none" stroke="red" fill-opacity="0.5" d="M197.50070571899414,-188.10667991638184" />
<path stroke-width="0.5" fill="none" stroke="red" fill-opacity="0.5" d="M130.0004005432129,-206.4793586730957 L135.00041961669922,-202.33068466186523 L142.5004482269287,-208.85004997253418 L140.00043869018555,-204.7013282775879 L150.0004768371582,-204.7013282775879 L145.00045776367188,-202.33068466186523 L155.00051975250244,-197.5893497467041 L160.00053882598877,-202.33068466186523 L162.50054836273193,-197.5893497467041 L167.50056743621826,-192.84801483154297 L167.50056743621826,-190.4773473739624 L170.00057697296143,-188.10667991638184 L170.00057697296143,-183.3653450012207 L172.5005865097046,-180.99467754364014 L175.00059604644775,-178.62401008605957 L175.00059604644775,-180.99467754364014 L180.00061511993408,-183.3653450012207 L180.000638961792,-185.73601245880127 L177.50060558319092,-188.10667991638184 L180.000638961792,-195.21868228912354 L182.50064849853516,-185.73601245880127 L182.50064849853516,-202.33068466186523 L190.00067710876465,-192.84801483154297 L190.00067710876465,-195.21868228912354 L197.50070571899414,-190.4773473739624 L197.50070571899414,-188.10667991638184 L197.50070571899414,-188.10667991638184 L197.50070571899414,-188.10667991638184 L197.50070571899414,-188.10667991638184 L197.50070571899414,-188.10667991638184 L197.50070571899414,-188.10667991638184 L197.50070571899414,-188.10667991638184" />
<path stroke-width="0.5" fill="none" stroke="red" fill-opacity="0.5" d="M130.0004005432129,-206.4793586730957" />
<path stroke-width="0.5" fill="none" stroke="red" fill-opacity="0.5" d="M130.21774291992188,-206.5117359161377" />
<path stroke-width="0.5" fill="none" stroke="red" fill-opacity="0.5" d="M131.55531883239746,-206.40482902526855" />
<path stroke-width="0.5" fill="none" stroke="red" fill-opacity="0.5" d="M132.79681205749512,-206.71839714050293" />
<path stroke-width="0.5" fill="none" stroke="red" fill-opacity="0.5" d="M135.87946891784668,-206.49428367614746" />
<path stroke-width="0.5" fill="none" stroke="red" fill-opacity="0.5" d="M138.816237449646,-206.0173511505127" />
<path stroke-width="0.5" fill="none" stroke="red" fill-opacity="0.5" d="M142.32406616210938,-205.52334785461426" />
<path stroke-width="0.5" fill="none" stroke="red" fill-opacity="0.5" d="M145.13840675354004,-204.0290355682373" />
<path stroke-width="0.5" fill="none" stroke="red" fill-opacity="0.5" d="M150.1539707183838,-203.45144271850586" />
<path stroke-width="0.5" fill="none" stroke="red" fill-opacity="0.5" d="M153.37350368499756,-201.3720989227295" />
<path stroke-width="0.5" fill="none" stroke="red" fill-opacity="0.5" d="M156.75692558288574,-199.5194911956787" />
<path stroke-width="0.5" fill="none" stroke="red" fill-opacity="0.5" d="M159.01687145233154,-196.9796657562256" />
<path stroke-width="0.5" fill="none" stroke="red" fill-opacity="0.5" d="M161.2924337387085,-193.59123706817627" />
<path stroke-width="0.5" fill="none" stroke="red" fill-opacity="0.5" d="M163.2662534713745,-190.44125080108643" />
<path stroke-width="0.5" fill="none" stroke="red" fill-opacity="0.5" d="M164.80789184570312,-187.8182888031006" />
<path stroke-width="0.5" fill="none" stroke="red" fill-opacity="0.5" d="M166.8118715286255,-186.58134937286377" />
<path stroke-width="0.5" fill="none" stroke="red" fill-opacity="0.5" d="M169.16205883026123,-185.96160411834717" />
<path stroke-width="0.5" fill="none" stroke="red" fill-opacity="0.5" d="M170.81749439239502,-185.95526218414307" />
<path stroke-width="0.5" fill="none" stroke="red" fill-opacity="0.5" d="M172.17063903808594,-185.9346628189087" />
<path stroke-width="0.5" fill="none" stroke="red" fill-opacity="0.5" d="M173.83732795715332,-186.18037700653076" />
<path stroke-width="0.5" fill="none" stroke="red" fill-opacity="0.5" d="M175.7397174835205,-186.24062538146973" />
<path stroke-width="0.5" fill="none" stroke="red" fill-opacity="0.5" d="M176.75659656524658,-188.04824352264404" />
<path stroke-width="0.5" fill="none" stroke="red" fill-opacity="0.5" d="M178.8715124130249,-188.45431804656982" />
<path stroke-width="0.5" fill="none" stroke="red" fill-opacity="0.5" d="M180.83746433258057,-189.10057544708252" />
<path stroke-width="0.5" fill="none" stroke="red" fill-opacity="0.5" d="M183.15613269805908,-190.00916481018066" />
<path stroke-width="0.5" fill="none" stroke="red" fill-opacity="0.5" d="M186.3499641418457,-190.20051956176758" />
<path stroke-width="0.5" fill="none" stroke="red" fill-opacity="0.5" d="M188.7859344482422,-190.10093212127686" />
<path stroke-width="0.5" fill="none" stroke="red" fill-opacity="0.5" d="M190.3470516204834,-190.00403881072998" />
<path stroke-width="0.5" fill="none" stroke="red" fill-opacity="0.5" d="M191.4289951324463,-189.9155616760254" />
<path stroke-width="0.5" fill="none" stroke="red" fill-opacity="0.5" d="M192.22495555877686,-189.83469009399414" />
<path stroke-width="0.5" fill="none" stroke="red" fill-opacity="0.5" d="M192.8361415863037,-189.76047039031982" />
<path stroke-width="0.5" fill="none" stroke="red" fill-opacity="0.5" d="M193.32067966461182,-189.69213962554932" />
<path stroke-width="0.5" fill="none" stroke="black" fill-opacity="0.5" d="M130.0004005432129,-206.4793586730957 L130.21774291992188,-206.5117359161377 L131.55531883239746,-206.40482902526855 L132.79681205749512,-206.71839714050293 L135.87946891784668,-206.49428367614746 L138.816237449646,-206.0173511505127 L142.32406616210938,-205.52334785461426 L145.13840675354004,-204.0290355682373 L150.1539707183838,-203.45144271850586 L153.37350368499756,-201.3720989227295 L156.75692558288574,-199.5194911956787 L159.01687145233154,-196.9796657562256 L161.2924337387085,-193.59123706817627 L163.2662534713745,-190.44125080108643 L164.80789184570312,-187.8182888031006 L166.8118715286255,-186.58134937286377 L169.16205883026123,-185.96160411834717 L170.81749439239502,-185.95526218414307 L172.17063903808594,-185.9346628189087 L173.83732795715332,-186.18037700653076 L175.7397174835205,-186.24062538146973 L176.75659656524658,-188.04824352264404 L178.8715124130249,-188.45431804656982 L180.83746433258057,-189.10057544708252 L183.15613269805908,-190.00916481018066 L186.3499641418457,-190.20051956176758 L188.7859344482422,-190.10093212127686 L190.3470516204834,-190.00403881072998 L191.4289951324463,-189.9155616760254 L192.22495555877686,-189.83469009399414 L192.8361415863037,-189.76047039031982 L193.32067966461182,-189.69213962554932" />
</svg>