<?xml version="1.0" encoding="UTF-8"?>
<svg xmlns="http://www.w3.org/2000/svg" xmlns:xlink="http://www.w3.org/1999/xlink"
     width="600" height="600" viewBox="0 -300 300 300">
<defs>
</defs>
<path stroke-width="0.5" fill="none" stroke="red" fill-opacity="0.5" d="M85.00020503997803,-164.40000534057617" />
<path stroke-width="0.5" fill="none" stroke="red" fill-opacity="0.5" d="M85.00020503997803,-178.62401008605957" />
<path stroke-width="0.5" fill="none" stroke="red" fill-opacity="0.5" d="M87.50021457672119,-178.62401008605957" />
<path stroke-width="0.5" fill="none" stroke="red" fill-opacity="0.5" d="M92.50025749206543,-173.88267517089844" />
<path stroke-width="0.5" fill="none" stroke="red" fill-opacity="0.5" d="M125.00040531158447,-157.28800296783447" />
<path stroke-width="0.5" fill="none" stroke="red" fill-opacity="0.5" d="M107.50031471252441,-169.1413402557373" />
<path stroke-width="0.5" fill="none" stroke="red" fill-opacity="0.5" d="M110.00032424926758,-171.51200771331787" />
<path stroke-width="0.5" fill="none" stroke="red" fill-opacity="0.5" d="M115.0003433227539,-176.253342628479" />
<path stroke-width="0.5" fill="none" stroke="red" fill-opacity="0.5" d="M115.00036716461182,-188.10667991638184" />
<path stroke-width="0.5" fill="none" stroke="red" fill-opacity="0.5" d="M130.0004005432129,-192.84801483154297" />
<path stroke-width="0.5" fill="none" stroke="red" fill-opacity="0.5" d="M125.00038146972656,-209.44271087646484" />
<path stroke-width="0.5" fill="none" stroke="red" fill-opacity="0.5" d="M137.50042915344238,-197.5893497467041" />
<path stroke-width="0.5" fill="none" stroke="red" fill-opacity="0.5" d="M137.50042915344238,-197.5893497467041" />
<path stroke-width="0.5" fill="none" stroke="red" fill-opacity="0.5" d="M137.50042915344238,-197.5893497467041" />
<path stroke-width="0.5" fill="none" stroke="red" fill-opacity="0.5" d="M137.50042915344238,-197.5893497467041" />
<path stroke-width="0.5" fill="none" stroke="red" fill-opacity="0.5" d="M137.50042915344238,-197.5893497467041" />
<path stroke-width="0.5" fill="none" stroke="red" fill-opacity="0.5" d="M145.00045776367188,-190.4773473739624" />
<path stroke-width="0.5" fill="none" stroke="red" fill-opacity="0.5" d="M140.00043869018555,-176.253342628479" />
<path stroke-width="0.5" fill="none" stroke="red" fill-opacity="0.5" d="M127.50036716461182,-169.1413402557373" />
<path stroke-width="0.5" fill="none" stroke="red" fill-opacity="0.5" d="M120.00036239624023,-164.40000534057617" />
<path stroke-width="0.5" fill="none" stroke="red" fill-opacity="0.5" d="M125.00035762786865,-152.54666805267334" />
<path stroke-width="0.5" fill="none" stroke="red" fill-opacity="0.5" d="M125.00038146972656,-147.8053331375122" />
<path stroke-width="0.5" fill="none" stroke="red" fill-opacity="0.5" d="M140.00043869018555,-147.8053331375122" />
<path stroke-width="0.5" fill="none" stroke="red" fill-opacity="0.5" d="M150.0004768371582,-154.9173355102539" />
<path stroke-width="0.5" fill="none" stroke="red" fill-opacity="0.5" d="M160.00051498413086,-164.40000534057617" />
<path stroke-width="0.5" fill="none" stroke="red" fill-opacity="0.5" d="M160.00053882598877,-176.253342628479" />
<path stroke-width="0.5" fill="none" stroke="red" fill-opacity="0.5" d="M165.0005578994751,-185.73601245880127" />
<path stroke-width="0.5" fill="none" stroke="red" fill-opacity="0.5" d="M167.50056743621826,-192.84801483154297" />
<path stroke-width="0.5" fill="none" stroke="red" fill-opacity="0.5" d="M170.00057697296143,-199.367356300354" />
<path stroke-width="0.5" fill="none" stroke="red" fill-opacity="0.5" d="M175.00059604644775,-197.5893497467041" />
<path stroke-width="0.5" fill="none" stroke="red" fill-opacity="0.5" d="M175.00059604644775,-197.5893497467041" />
<path stroke-width="0.5" fill="none" stroke="red" fill-opacity="0.5" d="M175.00059604644775,-197.5893497467041" />
<path stroke-width="0.5" fill="none" stroke="red" fill-opacity="0.5" d="M175.00059604644775,-197.5893497467041" />
<path stroke-width="0.5" fill="none" stroke="red" fill-opacity="0.5" d="M175.00059604644775,-197.5893497467041" />
<path stroke-width="0.5" fill="none" stroke="red" fill-opacity="0.5" d="M185.00065803527832,-178.62401008605957" />
<path stroke-width="0.5" fill="none" stroke="red" fill-opacity="0.5" d="M177.50060558319092,-173.88267517089844" />
<path stroke-width="0.5" fill="none" stroke="red" fill-opacity="0.5" d="M177.50060558319092,-171.51200771331787" />
<path stroke-width="0.5" fill="none" stroke="red" fill-opacity="0.5" d="M165.0005578994751,-164.40000534057617" />
<path stroke-width="0.5" fill="none" stroke="red" fill-opacity="0.5" d="M152.50051021575928,-162.0293378829956" />
<path stroke-width="0.5" fill="none" stroke="red" fill-opacity="0.5" d="M147.50046730041504,-154.9173355102539" />
<path stroke-width="0.5" fill="none" stroke="red" fill-opacity="0.5" d="M152.50048637390137,-147.8053331375122" />
<path stroke-width="0.5" fill="none" stroke="red" fill-opacity="0.5" d="M160.00053882598877,-147.8053331375122" />
<path stroke-width="0.5" fill="none" stroke="red" fill-opacity="0.5" d="M170.00057697296143,-154.9173355102539" />
<path stroke-width="0.5" fill="none" stroke="red" fill-opacity="0.5" d="M180.000638961792,-164.40000534057617" />
<path stroke-width="0.5" fill="none" stroke="red" fill-opacity="0.5" d="M187.50066757202148,-176.253342628479" />
<path stroke-width="0.5" fill="none" stroke="red" fill-opacity="0.5" d="M195.00069618225098,-183.3653450012207" />
<path stroke-width="0.5" fill="none" stroke="red" fill-opacity="0.5" d="M202.50072479248047,-188.10667991638184" />
<path stroke-width="0.5" fill="none" stroke="red" fill-opacity="0.5" d="M202.50072479248047,-190.4773473739624" />
<path stroke-width="0.5" fill="none" stroke="red" fill-opacity="0.5" d="M202.50072479248047,-190.4773473739624" />
<path stroke-width="0.5" fill="none" stroke="red" fill-opacity="0.5" d="M202.50072479248047,-190.4773473739624" />
<path stroke-width="0.5" fill="none" stroke="red" fill-opacity="0.5" d="M202.50072479248047,-190.4773473739624" />
<path stroke-width="0.5" fill="none" stroke="red" fill-opacity="0.5" d="M85.00020503997803,-164.40000534057617 L85.00020503997803,-178.62401008605957 L87.50021457672119,-178.62401008605957 L92.50025749206543,-173.88267517089844 L125.00040531158447,-157.28800296783447 L107.50031471252441,-169.1413402557373 L110.00032424926758,-171.51200771331787 L115.0003433227539,-176.253342628479 L115.00036716461182,-188.10667991638184 L130.0004005432129,-192.84801483154297 L125.00038146972656,-209.44271087646484 L137.50042915344238,-197.5893497467041 L137.50042915344238,-197.5893497467041 L137.50042915344238,-197.5893497467041 L137.50042915344238,-197.5893497467041 L137.50042915344238,-197.5893497467041 L145.00045776367188,-190.4773473739624 L140.00043869018555,-176.253342628479 L127.50036716461182,-169.1413402557373 L120.00036239624023,-164.40000534057617 L125.00035762786865,-152.54666805267334 L125.00038146972656,-147.8053331375122 L140.00043869018555,-147.8053331375122 L150.0004768371582,-154.9173355102539 L160.00051498413086,-164.40000534057617 L160.00053882598877,-176.253342628479 L165.0005578994751,-185.73601245880127 L167.50056743621826,-192.84801483154297 L170.00057697296143,-199.367356300354 L175.00059604644775,-197.5893497467041 L175.00059604644775,-197.5893497467041 L175.00059604644775,-197.5893497467041 L175.00059604644775,-197.5893497467041 L175.00059604644775,-197.5893497467041 L185.00065803527832,-178.62401008605957 L177.50060558319092,-173.88267517089844 L177.50060558319092,-171.51200771331787 L165.0005578994751,-164.40000534057617 L152.50051021575928,-162.0293378829956 L147.50046730041504,-154.9173355102539 L152.50048637390137,-147.8053331375122 L160.00053882598877,-147.8053331375122 L170.00057697296143,-154.9173355102539 L180.000638961792,-164.40000534057617 L187.50066757202148,-176.253342628479 L195.00069618225098,-183.3653450012207 L202.50072479248047,-188.10667991638184 L202.50072479248047,-190.4773473739624 L202.50072479248047,-190.4773473739624 L202.50072479248047,-190.4773473739624 L202.50072479248047,-190.4773473739624" />
<path stroke-width="0.5" fill="none" stroke="red" fill-opacity="0.5" d="M85.00020503997803,-164.40000534057617" />
<path stroke-width="0.5" fill="none" stroke="red" fill-opacity="0.5" d="M87.61589527130127,-171.61133289337158" />
<path stroke-width="0.5" fill="none" stroke="red" fill-opacity="0.5" d="M87.6774787902832,-172.4048376083374" />
<path stroke-width="0.5" fill="none" stroke="red" fill-opacity="0.5" d="M88.13738822937012,-172.42388725280762" />
<path stroke-width="0.5" fill="none" stroke="red" fill-opacity="0.5" d="M107.32765197753906,-168.09053421020508" />
<path stroke-width="0.5" fill="none" stroke="red" fill-opacity="0.5" d="M109.37347412109375,-167.35084056854248" />
<path stroke-width="0.5" fill="none" stroke="red" fill-opacity="0.5" d="M109.3203067779541,-167.52831935882568" />
<path stroke-width="0.5" fill="none" stroke="red" fill-opacity="0.5" d="M109.46764945983887,-168.5234546661377" />
<path stroke-width="0.5" fill="none" stroke="red" fill-opacity="0.5" d="M109.69130992889404,-172.7468967437744" />
<path stroke-width="0.5" fill="none" stroke="red" fill-opacity="0.5" d="M112.13657855987549,-180.23579120635986" />
<path stroke-width="0.5" fill="none" stroke="red" fill-opacity="0.5" d="M114.59071636199951,-190.31121730804443" />
<path stroke-width="0.5" fill="none" stroke="red" fill-opacity="0.5" d="M122.23210334777832,-192.25730895996094" />
<path stroke-width="0.5" fill="none" stroke="red" fill-opacity="0.5" d="M126.53050422668457,-192.90411472320557" />
<path stroke-width="0.5" fill="none" stroke="red" fill-opacity="0.5" d="M128.9161205291748,-193.39351654052734" />
<path stroke-width="0.5" fill="none" stroke="red" fill-opacity="0.5" d="M130.43501377105713,-193.7901735305786" />
<path stroke-width="0.5" fill="none" stroke="red" fill-opacity="0.5" d="M131.49220943450928,-194.11888122558594" />
<path stroke-width="0.5" fill="none" stroke="red" fill-opacity="0.5" d="M132.7542543411255,-194.30863857269287" />
<path stroke-width="0.5" fill="none" stroke="red" fill-opacity="0.5" d="M134.967303276062,-190.67869186401367" />
<path stroke-width="0.5" fill="none" stroke="red" fill-opacity="0.5" d="M134.72564220428467,-184.63997840881348" />
<path stroke-width="0.5" fill="none" stroke="red" fill-opacity="0.5" d="M132.29210376739502,-179.40673828125" />
<path stroke-width="0.5" fill="none" stroke="red" fill-opacity="0.5" d="M130.2137851715088,-171.69885635375977" />
<path stroke-width="0.5" fill="none" stroke="red" fill-opacity="0.5" d="M129.1512966156006,-164.34144973754883" />
<path stroke-width="0.5" fill="none" stroke="red" fill-opacity="0.5" d="M129.89108562469482,-159.45298671722412" />
<path stroke-width="0.5" fill="none" stroke="red" fill-opacity="0.5" d="M133.46154689788818,-158.32226276397705" />
<path stroke-width="0.5" fill="none" stroke="red" fill-opacity="0.5" d="M139.9860382080078,-158.32538604736328" />
<path stroke-width="0.5" fill="none" stroke="red" fill-opacity="0.5" d="M146.8547821044922,-161.183762550354" />
<path stroke-width="0.5" fill="none" stroke="red" fill-opacity="0.5" d="M152.04710960388184,-167.63601303100586" />
<path stroke-width="0.5" fill="none" stroke="red" fill-opacity="0.5" d="M155.35883903503418,-176.19268894195557" />
<path stroke-width="0.5" fill="none" stroke="red" fill-opacity="0.5" d="M158.2364320755005,-183.62014293670654" />
<path stroke-width="0.5" fill="none" stroke="red" fill-opacity="0.5" d="M162.8791332244873,-187.33062744140625" />
<path stroke-width="0.5" fill="none" stroke="red" fill-opacity="0.5" d="M165.72396755218506,-189.4418478012085" />
<path stroke-width="0.5" fill="none" stroke="red" fill-opacity="0.5" d="M167.47665405273438,-190.82050323486328" />
<path stroke-width="0.5" fill="none" stroke="red" fill-opacity="0.5" d="M168.66540908813477,-191.79623126983643" />
<path stroke-width="0.5" fill="none" stroke="red" fill-opacity="0.5" d="M169.52736377716064,-192.52498149871826" />
<path stroke-width="0.5" fill="none" stroke="red" fill-opacity="0.5" d="M170.47476768493652,-192.94376373291016" />
<path stroke-width="0.5" fill="none" stroke="red" fill-opacity="0.5" d="M174.65715408325195,-190.68117141723633" />
<path stroke-width="0.5" fill="none" stroke="red" fill-opacity="0.5" d="M175.4357099533081,-186.03453636169434" />
<path stroke-width="0.5" fill="none" stroke="red" fill-opacity="0.5" d="M174.67541694641113,-180.27639389038086" />
<path stroke-width="0.5" fill="none" stroke="red" fill-opacity="0.5" d="M170.57409286499023,-175.52406787872314" />
<path stroke-width="0.5" fill="none" stroke="red" fill-opacity="0.5" d="M163.4141206741333,-170.8385705947876" />
<path stroke-width="0.5" fill="none" stroke="red" fill-opacity="0.5" d="M159.39526557922363,-164.02666568756104" />
<path stroke-width="0.5" fill="none" stroke="red" fill-opacity="0.5" d="M158.33392143249512,-159.30452346801758" />
<path stroke-width="0.5" fill="none" stroke="red" fill-opacity="0.5" d="M159.57746505737305,-157.66570568084717" />
<path stroke-width="0.5" fill="none" stroke="red" fill-opacity="0.5" d="M163.64705562591553,-157.76982307434082" />
<path stroke-width="0.5" fill="none" stroke="red" fill-opacity="0.5" d="M170.16921043395996,-160.05289554595947" />
<path stroke-width="0.5" fill="none" stroke="red" fill-opacity="0.5" d="M177.99530029296875,-166.43493175506592" />
<path stroke-width="0.5" fill="none" stroke="red" fill-opacity="0.5" d="M184.84599590301514,-174.570894241333" />
<path stroke-width="0.5" fill="none" stroke="red" fill-opacity="0.5" d="M190.26315212249756,-179.11913394927979" />
<path stroke-width="0.5" fill="none" stroke="red" fill-opacity="0.5" d="M193.17057132720947,-181.65855407714844" />
<path stroke-width="0.5" fill="none" stroke="red" fill-opacity="0.5" d="M194.94247436523438,-183.25510025024414" />
<path stroke-width="0.5" fill="none" stroke="red" fill-opacity="0.5" d="M196.14136219024658,-184.35649871826172" />
<path stroke-width="0.5" fill="none" stroke="black" fill-opacity="0.5" d="M85.00020503997803,-164.40000534057617 L87.61589527130127,-171.61133289337158 L87.6774787902832,-172.4048376083374 L88.13738822937012,-172.42388725280762 L107.32765197753906,-168.09053421020508 L109.37347412109375,-167.35084056854248 L109.3203067779541,-167.52831935882568 L109.46764945983887,-168.5234546661377 L109.69130992889404,-172.7468967437744 L112.13657855987549,-180.23579120635986 L114.59071636199951,-190.31121730804443 L122.23210334777832,-192.25730895996094 L126.53050422668457,-192.90411472320557 L128.9161205291748,-193.39351654052734 L130.43501377105713,-193.7901735305786 L131.49220943450928,-194.11888122558594 L132.7542543411255,-194.30863857269287 L134.967303276062,-190.67869186401367 L134.72564220428467,-184.63997840881348 L132.29210376739502,-179.40673828125 L130.2137851715088,-171.69885635375977 L129.1512966156006,-164.34144973754883 L129.89108562469482,-159.45298671722412 L133.46154689788818,-158.32226276397705 L139.9860382080078,-158.32538604736328 L146.8547821044922,-161.183762550354 L152.04710960388184,-167.63601303100586 L155.35883903503418,-176.19268894195557 L158.2364320755005,-183.62014293670654 L162.8791332244873,-187.33062744140625 L165.72396755218506,-189.4418478012085 L167.47665405273438,-190.82050323486328 L168.66540908813477,-191.79623126983643 L169.52736377716064,-192.52498149871826 L170.47476768493652,-192.94376373291016 L174.65715408325195,-190.68117141723633 L175.4357099533081,-186.03453636169434 L174.67541694641113,-180.27639389038086 L170.57409286499023,-175.52406787872314 L163.4141206741333,-170.8385705947876 L159.39526557922363,-164.02666568756104 L158.33392143249512,-159.30452346801758 L159.57746505737305,-157.66570568084717 L163.64705562591553,-157.76982307434082 L170.16921043395996,-160.05289554595947 L177.99530029296875,-166.43493175506592 L184.84599590301514,-174.570894241333 L190.26315212249756,-179.11913394927979 L193.17057132720947,-181.65855407714844 L194.94247436523438,-183.25510025024414 L196.14136219024658,-184.35649871826172" />
</svg>