<?xml version="1.0" encoding="UTF-8"?>
<svg xmlns="http://www.w3.org/2000/svg" xmlns:xlink="http://www.w3.org/1999/xlink"
     width="600" height="600" viewBox="0 -300 300 300">
<defs>
</defs>
<path stroke-width="0.5" fill="none" stroke="red" fill-opacity="0.5" d="M82.50019550323486,-166.77067279815674" />
<path stroke-width="0.5" fill="none" stroke="red" fill-opacity="0.5" d="M82.50019550323486,-166.77067279815674" />
<path stroke-width="0.5" fill="none" stroke="red" fill-opacity="0.5" d="M92.50025749206543,-176.253342628479" />
<path stroke-width="0.5" fill="none" stroke="red" fill-opacity="0.5" d="M92.50025749206543,-178.62401008605957" />
<path stroke-width="0.5" fill="none" stroke="red" fill-opacity="0.5" d="M67.50013828277588,-143.06399822235107" />
<path stroke-width="0.5" fill="none" stroke="red" fill-opacity="0.5" d="M122.5003719329834,-147.8053331375122" />
<path stroke-width="0.5" fill="none" stroke="red" fill-opacity="0.5" d="M122.5003719329834,-164.40000534057617" />
<path stroke-width="0.5" fill="none" stroke="red" fill-opacity="0.5" d="M117.50032901763916,-176.253342628479" />
<path stroke-width="0.5" fill="none" stroke="red" fill-opacity="0.5" d="M115.0003433227539,-183.3653450012207" />
<path stroke-width="0.5" fill="none" stroke="red" fill-opacity="0.5" d="M117.50035285949707,-190.4773473739624" />
<path stroke-width="0.5" fill="none" stroke="red" fill-opacity="0.5" d="M117.50035285949707,-192.84801483154297" />
<path stroke-width="0.5" fill="none" stroke="red" fill-opacity="0.5" d="M115.0003433227539,-192.84801483154297" />
<path stroke-width="0.5" fill="none" stroke="red" fill-opacity="0.5" d="M122.5003719329834,-190.4773473739624" />
<path stroke-width="0.5" fill="none" stroke="red" fill-opacity="0.5" d="M127.50039100646973,-195.21868228912354" />
<path stroke-width="0.5" fill="none" stroke="red" fill-opacity="0.5" d="M135.00041961669922,-190.4773473739624" />
<path stroke-width="0.5" fill="none" stroke="red" fill-opacity="0.5" d="M140.00043869018555,-183.3653450012207" />
<path stroke-width="0.5" fill="none" stroke="red" fill-opacity="0.5" d="M142.50047206878662,-190.4773473739624" />
<path stroke-width="0.5" fill="none" stroke="red" fill-opacity="0.5" d="M142.50047206878662,-190.4773473739624" />
<path stroke-width="0.5" fill="none" stroke="red" fill-opacity="0.5" d="M142.50047206878662,-190.4773473739624" />
<path stroke-width="0.5" fill="none" stroke="red" fill-opacity="0.5" d="M142.50047206878662,-190.4773473739624" />
<path stroke-width="0.5" fill="none" stroke="red" fill-opacity="0.5" d="M142.50047206878662,-190.4773473739624" />
<path stroke-width="0.5" fill="none" stroke="red" fill-opacity="0.5" d="M142.50047206878662,-190.4773473739624" />
<path stroke-width="0.5" fill="none" stroke="red" fill-opacity="0.5" d="M142.50047206878662,-190.4773473739624" />
<path stroke-width="0.5" fill="none" stroke="red" fill-opacity="0.5" d="M142.50047206878662,-190.4773473739624" />
<path stroke-width="0.5" fill="none" stroke="red" fill-opacity="0.5" d="M82.50019550323486,-166.77067279815674 L82.50019550323486,-166.77067279815674 L92.50025749206543,-176.253342628479 L92.50025749206543,-178.62401008605957 L67.50013828277588,-143.06399822235107 L122.5003719329834,-147.8053331375122 L122.5003719329834,-164.40000534057617 L117.50032901763916,-176.253342628479 L115.0003433227539,-183.3653450012207 L117.50035285949707,-190.4773473739624 L117.50035285949707,-192.84801483154297 L115.0003433227539,-192.84801483154297 L122.5003719329834,-190.4773473739624 L127.50039100646973,-195.21868228912354 L135.00041961669922,-190.4773473739624 L140.00043869018555,-183.3653450012207 L142.50047206878662,-190.4773473739624 L142.50047206878662,-190.4773473739624 L142.50047206878662,-190.4773473739624 L142.50047206878662,-190.4773473739624 L142.50047206878662,-190.4773473739624 L142.50047206878662,-190.4773473739624 L142.50047206878662,-190.4773473739624 L142.50047206878662,-190.4773473739624" />
<path stroke-width="0.5" fill="none" stroke="red" fill-opacity="0.5" d="M82.50019550323486,-166.77067279815674" />
<path stroke-width="0.5" fill="none" stroke="red" fill-opacity="0.5" d="M82.50019550323486,-166.77067279815674" />
<path stroke-width="0.5" fill="none" stroke="red" fill-opacity="0.5" d="M83.67786407470703,-167.15006828308105" />
<path stroke-width="0.5" fill="none" stroke="red" fill-opacity="0.5" d="M86.44945621490479,-168.8910722732544" />
<path stroke-width="0.5" fill="none" stroke="red" fill-opacity="0.5" d="M86.41448020935059,-168.403959274292" />
<path stroke-width="0.5" fill="none" stroke="red" fill-opacity="0.5" d="M84.36141014099121,-159.8912477493286" />
<path stroke-width="0.5" fill="none" stroke="red" fill-opacity="0.5" d="M102.92577743530273,-159.04974937438965" />
<path stroke-width="0.5" fill="none" stroke="red" fill-opacity="0.5" d="M108.86695384979248,-161.3959789276123" />
<path stroke-width="0.5" fill="none" stroke="red" fill-opacity="0.5" d="M110.18369197845459,-167.18854904174805" />
<path stroke-width="0.5" fill="none" stroke="red" fill-opacity="0.5" d="M110.95967292785645,-173.74849319458008" />
<path stroke-width="0.5" fill="none" stroke="red" fill-opacity="0.5" d="M111.59694194793701,-179.5436143875122" />
<path stroke-width="0.5" fill="none" stroke="red" fill-opacity="0.5" d="M111.89141273498535,-182.91254043579102" />
<path stroke-width="0.5" fill="none" stroke="red" fill-opacity="0.5" d="M112.83774375915527,-184.24148559570312" />
<path stroke-width="0.5" fill="none" stroke="red" fill-opacity="0.5" d="M115.04683494567871,-185.097336769104" />
<path stroke-width="0.5" fill="none" stroke="red" fill-opacity="0.5" d="M118.67785453796387,-186.7539405822754" />
<path stroke-width="0.5" fill="none" stroke="red" fill-opacity="0.5" d="M125.12171268463135,-186.77895069122314" />
<path stroke-width="0.5" fill="none" stroke="red" fill-opacity="0.5" d="M130.0558567047119,-186.91108226776123" />
<path stroke-width="0.5" fill="none" stroke="red" fill-opacity="0.5" d="M133.04262161254883,-187.1948003768921" />
<path stroke-width="0.5" fill="none" stroke="red" fill-opacity="0.5" d="M134.85915660858154,-187.44380474090576" />
<path stroke-width="0.5" fill="none" stroke="red" fill-opacity="0.5" d="M136.08272075653076,-187.6584529876709" />
<path stroke-width="0.5" fill="none" stroke="red" fill-opacity="0.5" d="M136.96587085723877,-187.84525394439697" />
<path stroke-width="0.5" fill="none" stroke="red" fill-opacity="0.5" d="M137.63468265533447,-188.00935745239258" />
<path stroke-width="0.5" fill="none" stroke="red" fill-opacity="0.5" d="M138.1594181060791,-188.15462589263916" />
<path stroke-width="0.5" fill="none" stroke="red" fill-opacity="0.5" d="M138.5824203491211,-188.28418254852295" />
<path stroke-width="0.5" fill="none" stroke="black" fill-opacity="0.5" d="M82.50019550323486,-166.77067279815674 L82.50019550323486,-166.77067279815674 L83.67786407470703,-167.15006828308105 L86.44945621490479,-168.8910722732544 L86.41448020935059,-168.403959274292 L84.36141014099121,-159.8912477493286 L102.92577743530273,-159.04974937438965 L108.86695384979248,-161.3959789276123 L110.18369197845459,-167.18854904174805 L110.95967292785645,-173.74849319458008 L111.59694194793701,-179.5436143875122 L111.89141273498535,-182.91254043579102 L112.83774375915527,-184.24148559570312 L115.04683494567871,-185.097336769104 L118.67785453796387,-186.7539405822754 L125.12171268463135,-186.77895069122314 L130.0558567047119,-186.91108226776123 L133.04262161254883,-187.1948003768921 L134.85915660858154,-187.44380474090576 L136.08272075653076,-187.6584529876709 L136.96587085723877,-187.84525394439697 L137.63468265533447,-188.00935745239258 L138.1594181060791,-188.15462589263916 L138.5824203491211,-188.28418254852295" />
</svg>