<?xml version="1.0" encoding="UTF-8"?>
<svg xmlns="http://www.w3.org/2000/svg" xmlns:xlink="http://www.w3.org/1999/xlink"
     width="600" height="600" viewBox="0 -300 300 300">
<defs>
</defs>
<path stroke-width="0.5" fill="none" stroke="red" fill-opacity="0.5" d="M130.0004005432129,-214.18404579162598" />
<path stroke-width="0.5" fill="none" stroke="red" fill-opacity="0.5" d="M132.50043392181396,-216.55473709106445" />
<path stroke-width="0.5" fill="none" stroke="red" fill-opacity="0.5" d="M132.50041007995605,-214.18404579162598" />
<path stroke-width="0.5" fill="none" stroke="red" fill-opacity="0.5" d="M130.0004005432129,-214.18404579162598" />
<path stroke-width="0.5" fill="none" stroke="red" fill-opacity="0.5" d="M130.0004005432129,-206.4793586730957" />
<path stroke-width="0.5" fill="none" stroke="red" fill-opacity="0.5" d="M130.0004243850708,-214.18404579162598" />
<path stroke-width="0.5" fill="none" stroke="red" fill-opacity="0.5" d="M135.00041961669922,-211.8133544921875" />
<path stroke-width="0.5" fill="none" stroke="red" fill-opacity="0.5" d="M130.0004005432129,-207.07201957702637" />
<path stroke-width="0.5" fill="none" stroke="red" fill-opacity="0.5" d="M132.50041007995605,-192.84801483154297" />
<path stroke-width="0.5" fill="none" stroke="red" fill-opacity="0.5" d="M135.00044345855713,-180.99467754364014" />
<path stroke-width="0.5" fill="none" stroke="red" fill-opacity="0.5" d="M125.00040531158447,-176.253342628479" />
<path stroke-width="0.5" fill="none" stroke="red" fill-opacity="0.5" d="M122.5003719329834,-166.77067279815674" />
<path stroke-width="0.5" fill="none" stroke="red" fill-opacity="0.5" d="M120.00038623809814,-157.28800296783447" />
<path stroke-width="0.5" fill="none" stroke="red" fill-opacity="0.5" d="M107.50031471252441,-159.65867042541504" />
<path stroke-width="0.5" fill="none" stroke="red" fill-opacity="0.5" d="M100.00028610229492,-164.40000534057617" />
<path stroke-width="0.5" fill="none" stroke="red" fill-opacity="0.5" d="M90.00024795532227,-173.88267517089844" />
<path stroke-width="0.5" fill="none" stroke="red" fill-opacity="0.5" d="M87.5002384185791,-185.73601245880127" />
<path stroke-width="0.5" fill="none" stroke="red" fill-opacity="0.5" d="M92.50025749206543,-199.95999336242676" />
<path stroke-width="0.5" fill="none" stroke="red" fill-opacity="0.5" d="M105.00030517578125,-204.7013282775879" />
<path stroke-width="0.5" fill="none" stroke="red" fill-opacity="0.5" d="M117.50035285949707,-214.18404579162598" />
<path stroke-width="0.5" fill="none" stroke="red" fill-opacity="0.5" d="M122.5003719329834,-218.9253807067871" />
<path stroke-width="0.5" fill="none" stroke="red" fill-opacity="0.5" d="M137.50042915344238,-214.18404579162598" />
<path stroke-width="0.5" fill="none" stroke="red" fill-opacity="0.5" d="M147.50046730041504,-207.07201957702637" />
<path stroke-width="0.5" fill="none" stroke="red" fill-opacity="0.5" d="M152.50048637390137,-192.84801483154297" />
<path stroke-width="0.5" fill="none" stroke="red" fill-opacity="0.5" d="M152.50051021575928,-176.253342628479" />
<path stroke-width="0.5" fill="none" stroke="red" fill-opacity="0.5" d="M167.50056743621826,-154.9173355102539" />
<path stroke-width="0.5" fill="none" stroke="red" fill-opacity="0.5" d="M175.00059604644775,-138.32266330718994" />
<path stroke-width="0.5" fill="none" stroke="red" fill-opacity="0.5" d="M187.50064373016357,-133.5813283920288" />
<path stroke-width="0.5" fill="none" stroke="red" fill-opacity="0.5" d="M187.50064373016357,-133.5813283920288" />
<path stroke-width="0.5" fill="none" stroke="red" fill-opacity="0.5" d="M187.50064373016357,-133.5813283920288" />
<path stroke-width="0.5" fill="none" stroke="red" fill-opacity="0.5" d="M187.50064373016357,-133.5813283920288" />
<path stroke-width="0.5" fill="none" stroke="red" fill-opacity="0.5" d="M187.50064373016357,-133.5813283920288" />
<path stroke-width="0.5" fill="none" stroke="red" fill-opacity="0.5" d="M187.50064373016357,-133.5813283920288" />
<path stroke-width="0.5" fill="none" stroke="red" fill-opacity="0.5" d="M187.50064373016357,-133.5813283920288" />
<path stroke-width="0.5" fill="none" stroke="red" fill-opacity="0.5" d="M130.0004005432129,-214.18404579162598 L132.50043392181396,-216.55473709106445 L132.50041007995605,-214.18404579162598 L130.0004005432129,-214.18404579162598 L130.0004005432129,-206.4793586730957 L130.0004243850708,-214.18404579162598 L135.00041961669922,-211.8133544921875 L130.0004005432129,-207.07201957702637 L132.50041007995605,-192.84801483154297 L135.00044345855713,-180.99467754364014 L125.00040531158447,-176.253342628479 L122.5003719329834,-166.77067279815674 L120.00038623809814,-157.28800296783447 L107.50031471252441,-159.65867042541504 L100.00028610229492,-164.40000534057617 L90.00024795532227,-173.88267517089844 L87.5002384185791,-185.73601245880127 L92.50025749206543,-199.95999336242676 L105.00030517578125,-204.7013282775879 L117.50035285949707,-214.18404579162598 L122.5003719329834,-218.9253807067871 L137.50042915344238,-214.18404579162598 L147.50046730041504,-207.07201957702637 L152.50048637390137,-192.84801483154297 L152.50051021575928,-176.253342628479 L167.50056743621826,-154.9173355102539 L175.00059604644775,-138.32266330718994 L187.50064373016357,-133.5813283920288 L187.50064373016357,-133.5813283920288 L187.50064373016357,-133.5813283920288 L187.50064373016357,-133.5813283920288 L187.50064373016357,-133.5813283920288 L187.50064373016357,-133.5813283920288 L187.50064373016357,-133.5813283920288" />
<path stroke-width="0.5" fill="none" stroke="red" fill-opacity="0.5" d="M130.0004005432129,-214.18404579162598" />
<path stroke-width="0.5" fill="none" stroke="red" fill-opacity="0.5" d="M130.05290031433105,-214.10813331604004" />
<path stroke-width="0.5" fill="none" stroke="red" fill-opacity="0.5" d="M130.30033111572266,-213.9979362487793" />
<path stroke-width="0.5" fill="none" stroke="red" fill-opacity="0.5" d="M130.37495613098145,-213.92583847045898" />
<path stroke-width="0.5" fill="none" stroke="red" fill-opacity="0.5" d="M130.37731647491455,-213.53254318237305" />
<path stroke-width="0.5" fill="none" stroke="red" fill-opacity="0.5" d="M130.37302494049072,-213.55133056640625" />
<path stroke-width="0.5" fill="none" stroke="red" fill-opacity="0.5" d="M130.38933277130127,-213.55900764465332" />
<path stroke-width="0.5" fill="none" stroke="red" fill-opacity="0.5" d="M130.4189682006836,-213.3193016052246" />
<path stroke-width="0.5" fill="none" stroke="red" fill-opacity="0.5" d="M130.43606281280518,-210.4574203491211" />
<path stroke-width="0.5" fill="none" stroke="red" fill-opacity="0.5" d="M130.53569793701172,-202.83098220825195" />
<path stroke-width="0.5" fill="none" stroke="red" fill-opacity="0.5" d="M130.4236888885498,-194.83873844146729" />
<path stroke-width="0.5" fill="none" stroke="red" fill-opacity="0.5" d="M129.752516746521,-186.336088180542" />
<path stroke-width="0.5" fill="none" stroke="red" fill-opacity="0.5" d="M128.07278633117676,-177.20894813537598" />
<path stroke-width="0.5" fill="none" stroke="red" fill-opacity="0.5" d="M123.68752956390381,-171.25403881072998" />
<path stroke-width="0.5" fill="none" stroke="red" fill-opacity="0.5" d="M117.02272891998291,-169.31920051574707" />
<path stroke-width="0.5" fill="none" stroke="red" fill-opacity="0.5" d="M109.65871810913086,-169.20583248138428" />
<path stroke-width="0.5" fill="none" stroke="red" fill-opacity="0.5" d="M103.98483276367188,-170.89710235595703" />
<path stroke-width="0.5" fill="none" stroke="red" fill-opacity="0.5" d="M100.99024772644043,-176.99403762817383" />
<path stroke-width="0.5" fill="none" stroke="red" fill-opacity="0.5" d="M100.63679218292236,-185.827374458313" />
<path stroke-width="0.5" fill="none" stroke="red" fill-opacity="0.5" d="M102.48687267303467,-194.52180862426758" />
<path stroke-width="0.5" fill="none" stroke="red" fill-opacity="0.5" d="M108.88094902038574,-202.64325141906738" />
<path stroke-width="0.5" fill="none" stroke="red" fill-opacity="0.5" d="M117.16523170471191,-206.6629409790039" />
<path stroke-width="0.5" fill="none" stroke="red" fill-opacity="0.5" d="M127.25610733032227,-207.3934555053711" />
<path stroke-width="0.5" fill="none" stroke="red" fill-opacity="0.5" d="M135.795259475708,-206.6206455230713" />
<path stroke-width="0.5" fill="none" stroke="red" fill-opacity="0.5" d="M141.74182415008545,-202.18958854675293" />
<path stroke-width="0.5" fill="none" stroke="red" fill-opacity="0.5" d="M148.38061332702637,-189.93823528289795" />
<path stroke-width="0.5" fill="none" stroke="red" fill-opacity="0.5" d="M157.93752670288086,-165.293550491333" />
<path stroke-width="0.5" fill="none" stroke="red" fill-opacity="0.5" d="M169.40693855285645,-151.22454166412354" />
<path stroke-width="0.5" fill="none" stroke="red" fill-opacity="0.5" d="M175.2173900604248,-145.61920166015625" />
<path stroke-width="0.5" fill="none" stroke="red" fill-opacity="0.5" d="M178.15110683441162,-142.78955459594727" />
<path stroke-width="0.5" fill="none" stroke="red" fill-opacity="0.5" d="M179.93006706237793,-141.05985164642334" />
<path stroke-width="0.5" fill="none" stroke="red" fill-opacity="0.5" d="M181.1326026916504,-139.88442420959473" />
<path stroke-width="0.5" fill="none" stroke="red" fill-opacity="0.5" d="M182.00297355651855,-139.03062343597412" />
<path stroke-width="0.5" fill="none" stroke="red" fill-opacity="0.5" d="M182.6634168624878,-138.38107585906982" />
<path stroke-width="0.5" fill="none" stroke="black" fill-opacity="0.5" d="M130.0004005432129,-214.18404579162598 L130.05290031433105,-214.10813331604004 L130.30033111572266,-213.9979362487793 L130.37495613098145,-213.92583847045898 L130.37731647491455,-213.53254318237305 L130.37302494049072,-213.55133056640625 L130.38933277130127,-213.55900764465332 L130.4189682006836,-213.3193016052246 L130.43606281280518,-210.4574203491211 L130.53569793701172,-202.83098220825195 L130.4236888885498,-194.83873844146729 L129.752516746521,-186.336088180542 L128.07278633117676,-177.20894813537598 L123.68752956390381,-171.25403881072998 L117.02272891998291,-169.31920051574707 L109.65871810913086,-169.20583248138428 L103.98483276367188,-170.89710235595703 L100.99024772644043,-176.99403762817383 L100.63679218292236,-185.827374458313 L102.48687267303467,-194.52180862426758 L108.88094902038574,-202.64325141906738 L117.16523170471191,-206.6629409790039 L127.25610733032227,-207.3934555053711 L135.795259475708,-206.6206455230713 L141.74182415008545,-202.18958854675293 L148.38061332702637,-189.93823528289795 L157.93752670288086,-165.293550491333 L169.40693855285645,-151.22454166412354 L175.2173900604248,-145.61920166015625 L178.15110683441162,-142.78955459594727 L179.93006706237793,-141.05985164642334 L181.1326026916504,-139.88442420959473 L182.00297355651855,-139.03062343597412 L182.6634168624878,-138.38107585906982" />
</svg>