<?xml version="1.0" encoding="UTF-8"?>
<svg xmlns="http://www.w3.org/2000/svg" xmlns:xlink="http://www.w3.org/1999/xlink"
     width="600" height="600" viewBox="0 -300 300 300">
<defs>
</defs>
<path stroke-width="0.5" fill="none" stroke="red" fill-opacity="0.5" d="M145.00045776367188,-204.7013282775879" />
<path stroke-width="0.5" fill="none" stroke="red" fill-opacity="0.5" d="M145.00045776367188,-188.10667991638184" />
<path stroke-width="0.5" fill="none" stroke="red" fill-opacity="0.5" d="M137.5004529953003,-197.5893497467041" />
<path stroke-width="0.5" fill="none" stroke="red" fill-opacity="0.5" d="M135.00041961669922,-192.84801483154297" />
<path stroke-width="0.5" fill="none" stroke="red" fill-opacity="0.5" d="M122.5003719329834,-197.5893497467041" />
<path stroke-width="0.5" fill="none" stroke="red" fill-opacity="0.5" d="M117.50037670135498,-197.5893497467041" />
<path stroke-width="0.5" fill="none" stroke="red" fill-opacity="0.5" d="M117.50035285949707,-190.4773473739624" />
<path stroke-width="0.5" fill="none" stroke="red" fill-opacity="0.5" d="M115.0003433227539,-188.10667991638184" />
<path stroke-width="0.5" fill="none" stroke="red" fill-opacity="0.5" d="M105.00032901763916,-197.5893497467041" />
<path stroke-width="0.5" fill="none" stroke="red" fill-opacity="0.5" d="M95.0002670288086,-197.5893497467041" />
<path stroke-width="0.5" fill="none" stroke="red" fill-opacity="0.5" d="M92.50025749206543,-195.21868228912354" />
<path stroke-width="0.5" fill="none" stroke="red" fill-opacity="0.5" d="M87.5002384185791,-192.84801483154297" />
<path stroke-width="0.5" fill="none" stroke="red" fill-opacity="0.5" d="M82.50021934509277,-190.4773473739624" />
<path stroke-width="0.5" fill="none" stroke="red" fill-opacity="0.5" d="M80.00020980834961,-185.73601245880127" />
<path stroke-width="0.5" fill="none" stroke="red" fill-opacity="0.5" d="M77.50020027160645,-185.73601245880127" />
<path stroke-width="0.5" fill="none" stroke="red" fill-opacity="0.5" d="M75.00019073486328,-180.99467754364014" />
<path stroke-width="0.5" fill="none" stroke="red" fill-opacity="0.5" d="M75.00019073486328,-176.253342628479" />
<path stroke-width="0.5" fill="none" stroke="red" fill-opacity="0.5" d="M70.00014781951904,-178.62401008605957" />
<path stroke-width="0.5" fill="none" stroke="red" fill-opacity="0.5" d="M70.00017166137695,-180.99467754364014" />
<path stroke-width="0.5" fill="none" stroke="red" fill-opacity="0.5" d="M75.00016689300537,-183.3653450012207" />
<path stroke-width="0.5" fill="none" stroke="red" fill-opacity="0.5" d="M72.5001573562622,-185.73601245880127" />
<path stroke-width="0.5" fill="none" stroke="red" fill-opacity="0.5" d="M77.50020027160645,-188.10667991638184" />
<path stroke-width="0.5" fill="none" stroke="red" fill-opacity="0.5" d="M80.0001859664917,-188.10667991638184" />
<path stroke-width="0.5" fill="none" stroke="red" fill-opacity="0.5" d="M80.0001859664917,-188.10667991638184" />
<path stroke-width="0.5" fill="none" stroke="red" fill-opacity="0.5" d="M82.50019550323486,-188.10667991638184" />
<path stroke-width="0.5" fill="none" stroke="red" fill-opacity="0.5" d="M80.0001859664917,-188.10667991638184" />
<path stroke-width="0.5" fill="none" stroke="red" fill-opacity="0.5" d="M80.00016212463379,-185.73601245880127" />
<path stroke-width="0.5" fill="none" stroke="red" fill-opacity="0.5" d="M77.50017642974854,-183.3653450012207" />
<path stroke-width="0.5" fill="none" stroke="red" fill-opacity="0.5" d="M77.50017642974854,-183.3653450012207" />
<path stroke-width="0.5" fill="none" stroke="red" fill-opacity="0.5" d="M72.5001335144043,-185.73601245880127" />
<path stroke-width="0.5" fill="none" stroke="red" fill-opacity="0.5" d="M72.5001335144043,-180.99467754364014" />
<path stroke-width="0.5" fill="none" stroke="red" fill-opacity="0.5" d="M70.00012397766113,-178.62401008605957" />
<path stroke-width="0.5" fill="none" stroke="red" fill-opacity="0.5" d="M70.00012397766113,-180.99467754364014" />
<path stroke-width="0.5" fill="none" stroke="red" fill-opacity="0.5" d="M70.00012397766113,-180.99467754364014" />
<path stroke-width="0.5" fill="none" stroke="red" fill-opacity="0.5" d="M70.00014781951904,-180.99467754364014" />
<path stroke-width="0.5" fill="none" stroke="red" fill-opacity="0.5" d="M75.00016689300537,-188.10667991638184" />
<path stroke-width="0.5" fill="none" stroke="red" fill-opacity="0.5" d="M77.50017642974854,-190.4773473739624" />
<path stroke-width="0.5" fill="none" stroke="red" fill-opacity="0.5" d="M77.50017642974854,-192.84801483154297" />
<path stroke-width="0.5" fill="none" stroke="red" fill-opacity="0.5" d="M82.50019550323486,-197.5893497467041" />
<path stroke-width="0.5" fill="none" stroke="red" fill-opacity="0.5" d="M87.50021457672119,-199.95999336242676" />
<path stroke-width="0.5" fill="none" stroke="red" fill-opacity="0.5" d="M87.50021457672119,-207.07201957702637" />
<path stroke-width="0.5" fill="none" stroke="red" fill-opacity="0.5" d="M92.50023365020752,-214.18404579162598" />
<path stroke-width="0.5" fill="none" stroke="red" fill-opacity="0.5" d="M100.00026226043701,-211.8133544921875" />
<path stroke-width="0.5" fill="none" stroke="red" fill-opacity="0.5" d="M107.5002908706665,-204.7013282775879" />
<path stroke-width="0.5" fill="none" stroke="red" fill-opacity="0.5" d="M110.00032424926758,-199.95999336242676" />
<path stroke-width="0.5" fill="none" stroke="red" fill-opacity="0.5" d="M115.0003433227539,-195.21868228912354" />
<path stroke-width="0.5" fill="none" stroke="red" fill-opacity="0.5" d="M117.50032901763916,-188.10667991638184" />
<path stroke-width="0.5" fill="none" stroke="red" fill-opacity="0.5" d="M125.00038146972656,-183.3653450012207" />
<path stroke-width="0.5" fill="none" stroke="red" fill-opacity="0.5" d="M132.50041007995605,-176.253342628479" />
<path stroke-width="0.5" fill="none" stroke="red" fill-opacity="0.5" d="M132.50041007995605,-171.51200771331787" />
<path stroke-width="0.5" fill="none" stroke="red" fill-opacity="0.5" d="M140.00043869018555,-166.77067279815674" />
<path stroke-width="0.5" fill="none" stroke="red" fill-opacity="0.5" d="M145.00045776367188,-204.7013282775879 L145.00045776367188,-188.10667991638184 L137.5004529953003,-197.5893497467041 L135.00041961669922,-192.84801483154297 L122.5003719329834,-197.5893497467041 L117.50037670135498,-197.5893497467041 L117.50035285949707,-190.4773473739624 L115.0003433227539,-188.10667991638184 L105.00032901763916,-197.5893497467041 L95.0002670288086,-197.5893497467041 L92.50025749206543,-195.21868228912354 L87.5002384185791,-192.84801483154297 L82.50021934509277,-190.4773473739624 L80.00020980834961,-185.73601245880127 L77.50020027160645,-185.73601245880127 L75.00019073486328,-180.99467754364014 L75.00019073486328,-176.253342628479 L70.00014781951904,-178.62401008605957 L70.00017166137695,-180.99467754364014 L75.00016689300537,-183.3653450012207 L72.5001573562622,-185.73601245880127 L77.50020027160645,-188.10667991638184 L80.0001859664917,-188.10667991638184 L80.0001859664917,-188.10667991638184 L82.50019550323486,-188.10667991638184 L80.0001859664917,-188.10667991638184 L80.00016212463379,-185.73601245880127 L77.50017642974854,-183.3653450012207 L77.50017642974854,-183.3653450012207 L72.5001335144043,-185.73601245880127 L72.5001335144043,-180.99467754364014 L70.00012397766113,-178.62401008605957 L70.00012397766113,-180.99467754364014 L70.00012397766113,-180.99467754364014 L70.00014781951904,-180.99467754364014 L75.00016689300537,-188.10667991638184 L77.50017642974854,-190.4773473739624 L77.50017642974854,-192.84801483154297 L82.50019550323486,-197.5893497467041 L87.50021457672119,-199.95999336242676 L87.50021457672119,-207.07201957702637 L92.50023365020752,-214.18404579162598 L100.00026226043701,-211.8133544921875 L107.5002908706665,-204.7013282775879 L110.00032424926758,-199.95999336242676 L115.0003433227539,-195.21868228912354 L117.50032901763916,-188.10667991638184 L125.00038146972656,-183.3653450012207 L132.50041007995605,-176.253342628479 L132.50041007995605,-171.51200771331787 L140.00043869018555,-166.77067279815674" />
<path stroke-width="0.5" fill="none" stroke="red" fill-opacity="0.5" d="M145.00045776367188,-204.7013282775879" />
<path stroke-width="0.5" fill="none" stroke="red" fill-opacity="0.5" d="M144.95294094085693,-203.77731323242188" />
<path stroke-width="0.5" fill="none" stroke="red" fill-opacity="0.5" d="M144.6565866470337,-201.20558738708496" />
<path stroke-width="0.5" fill="none" stroke="red" fill-opacity="0.5" d="M143.13178062438965,-200.3370761871338" />
<path stroke-width="0.5" fill="none" stroke="red" fill-opacity="0.5" d="M139.30857181549072,-199.77965354919434" />
<path stroke-width="0.5" fill="none" stroke="red" fill-opacity="0.5" d="M134.0723991394043,-199.28605556488037" />
<path stroke-width="0.5" fill="none" stroke="red" fill-opacity="0.5" d="M129.21035289764404,-198.54047298431396" />
<path stroke-width="0.5" fill="none" stroke="red" fill-opacity="0.5" d="M124.39212799072266,-197.75125980377197" />
<path stroke-width="0.5" fill="none" stroke="red" fill-opacity="0.5" d="M118.90208721160889,-197.7431297302246" />
<path stroke-width="0.5" fill="none" stroke="red" fill-opacity="0.5" d="M112.96799182891846,-197.74169921875" />
<path stroke-width="0.5" fill="none" stroke="red" fill-opacity="0.5" d="M107.79109001159668,-197.68977165222168" />
<path stroke-width="0.5" fill="none" stroke="red" fill-opacity="0.5" d="M102.13963985443115,-197.48613834381104" />
<path stroke-width="0.5" fill="none" stroke="red" fill-opacity="0.5" d="M97.07560539245605,-196.67932987213135" />
<path stroke-width="0.5" fill="none" stroke="red" fill-opacity="0.5" d="M92.93038845062256,-194.7256326675415" />
<path stroke-width="0.5" fill="none" stroke="red" fill-opacity="0.5" d="M89.53397274017334,-192.70172119140625" />
<path stroke-width="0.5" fill="none" stroke="red" fill-opacity="0.5" d="M86.29279136657715,-190.82882404327393" />
<path stroke-width="0.5" fill="none" stroke="red" fill-opacity="0.5" d="M83.27131271362305,-187.69710063934326" />
<path stroke-width="0.5" fill="none" stroke="red" fill-opacity="0.5" d="M80.1119327545166,-186.1445188522339" />
<path stroke-width="0.5" fill="none" stroke="red" fill-opacity="0.5" d="M78.06496620178223,-185.22696495056152" />
<path stroke-width="0.5" fill="none" stroke="red" fill-opacity="0.5" d="M77.49063968658447,-184.9468231201172" />
<path stroke-width="0.5" fill="none" stroke="red" fill-opacity="0.5" d="M76.96478366851807,-184.91668701171875" />
<path stroke-width="0.5" fill="none" stroke="red" fill-opacity="0.5" d="M76.9773006439209,-184.96644496917725" />
<path stroke-width="0.5" fill="none" stroke="red" fill-opacity="0.5" d="M77.1594762802124,-185.17920970916748" />
<path stroke-width="0.5" fill="none" stroke="red" fill-opacity="0.5" d="M77.46264934539795,-185.3792905807495" />
<path stroke-width="0.5" fill="none" stroke="red" fill-opacity="0.5" d="M77.65696048736572,-185.7635259628296" />
<path stroke-width="0.5" fill="none" stroke="red" fill-opacity="0.5" d="M77.84044742584229,-185.91184616088867" />
<path stroke-width="0.5" fill="none" stroke="red" fill-opacity="0.5" d="M78.01651954650879,-185.9549045562744" />
<path stroke-width="0.5" fill="none" stroke="red" fill-opacity="0.5" d="M78.02820205688477,-185.93182563781738" />
<path stroke-width="0.5" fill="none" stroke="red" fill-opacity="0.5" d="M78.0210018157959,-185.83462238311768" />
<path stroke-width="0.5" fill="none" stroke="red" fill-opacity="0.5" d="M77.76844501495361,-185.77651977539062" />
<path stroke-width="0.5" fill="none" stroke="red" fill-opacity="0.5" d="M77.05144882202148,-185.2428674697876" />
<path stroke-width="0.5" fill="none" stroke="red" fill-opacity="0.5" d="M76.21376514434814,-184.50360298156738" />
<path stroke-width="0.5" fill="none" stroke="red" fill-opacity="0.5" d="M75.40369033813477,-183.86635780334473" />
<path stroke-width="0.5" fill="none" stroke="red" fill-opacity="0.5" d="M74.98352527618408,-183.65778923034668" />
<path stroke-width="0.5" fill="none" stroke="red" fill-opacity="0.5" d="M74.6579647064209,-183.54291915893555" />
<path stroke-width="0.5" fill="none" stroke="red" fill-opacity="0.5" d="M74.5873212814331,-183.70063304901123" />
<path stroke-width="0.5" fill="none" stroke="red" fill-opacity="0.5" d="M74.61905479431152,-184.2097520828247" />
<path stroke-width="0.5" fill="none" stroke="red" fill-opacity="0.5" d="M74.79779720306396,-185.6417179107666" />
<path stroke-width="0.5" fill="none" stroke="red" fill-opacity="0.5" d="M75.44586658477783,-188.19427490234375" />
<path stroke-width="0.5" fill="none" stroke="red" fill-opacity="0.5" d="M77.14993953704834,-190.15235900878906" />
<path stroke-width="0.5" fill="none" stroke="red" fill-opacity="0.5" d="M79.22577857971191,-193.81403923034668" />
<path stroke-width="0.5" fill="none" stroke="red" fill-opacity="0.5" d="M81.20980262756348,-199.4140386581421" />
<path stroke-width="0.5" fill="none" stroke="red" fill-opacity="0.5" d="M85.95786094665527,-203.26075553894043" />
<path stroke-width="0.5" fill="none" stroke="red" fill-opacity="0.5" d="M90.28759002685547,-204.520845413208" />
<path stroke-width="0.5" fill="none" stroke="red" fill-opacity="0.5" d="M95.95835208892822,-204.41880226135254" />
<path stroke-width="0.5" fill="none" stroke="red" fill-opacity="0.5" d="M101.00405216217041,-203.23457717895508" />
<path stroke-width="0.5" fill="none" stroke="red" fill-opacity="0.5" d="M104.61664199829102,-200.36935806274414" />
<path stroke-width="0.5" fill="none" stroke="red" fill-opacity="0.5" d="M109.73429679870605,-196.57981395721436" />
<path stroke-width="0.5" fill="none" stroke="red" fill-opacity="0.5" d="M116.16296768188477,-191.4046287536621" />
<path stroke-width="0.5" fill="none" stroke="red" fill-opacity="0.5" d="M121.0857629776001,-186.29465103149414" />
<path stroke-width="0.5" fill="none" stroke="red" fill-opacity="0.5" d="M125.73583126068115,-181.08422756195068" />
<path stroke-width="0.5" fill="none" stroke="black" fill-opacity="0.5" d="M145.00045776367188,-204.7013282775879 L144.95294094085693,-203.77731323242188 L144.6565866470337,-201.20558738708496 L143.13178062438965,-200.3370761871338 L139.30857181549072,-199.77965354919434 L134.0723991394043,-199.28605556488037 L129.21035289764404,-198.54047298431396 L124.39212799072266,-197.75125980377197 L118.90208721160889,-197.7431297302246 L112.96799182891846,-197.74169921875 L107.79109001159668,-197.68977165222168 L102.13963985443115,-197.48613834381104 L97.07560539245605,-196.67932987213135 L92.93038845062256,-194.7256326675415 L89.53397274017334,-192.70172119140625 L86.29279136657715,-190.82882404327393 L83.27131271362305,-187.69710063934326 L80.1119327545166,-186.1445188522339 L78.06496620178223,-185.22696495056152 L77.49063968658447,-184.9468231201172 L76.96478366851807,-184.91668701171875 L76.9773006439209,-184.96644496917725 L77.1594762802124,-185.17920970916748 L77.46264934539795,-185.3792905807495 L77.65696048736572,-185.7635259628296 L77.84044742584229,-185.91184616088867 L78.01651954650879,-185.9549045562744 L78.02820205688477,-185.93182563781738 L78.0210018157959,-185.83462238311768 L77.76844501495361,-185.77651977539062 L77.05144882202148,-185.2428674697876 L76.21376514434814,-184.50360298156738 L75.40369033813477,-183.86635780334473 L74.98352527618408,-183.65778923034668 L74.6579647064209,-183.54291915893555 L74.5873212814331,-183.70063304901123 L74.61905479431152,-184.2097520828247 L74.79779720306396,-185.6417179107666 L75.44586658477783,-188.19427490234375 L77.14993953704834,-190.15235900878906 L79.22577857971191,-193.81403923034668 L81.20980262756348,-199.4140386581421 L85.95786094665527,-203.26075553894043 L90.28759002685547,-204.520845413208 L95.95835208892822,-204.41880226135254 L101.00405216217041,-203.23457717895508 L104.61664199829102,-200.36935806274414 L109.73429679870605,-196.57981395721436 L116.16296768188477,-191.4046287536621 L121.0857629776001,-186.29465103149414 L125.73583126068115,-181.08422756195068" />
</svg>