<?xml version="1.0" encoding="UTF-8"?>
<svg xmlns="http://www.w3.org/2000/svg" xmlns:xlink="http://www.w3.org/1999/xlink"
     width="600" height="600" viewBox="0 -300 300 300">
<defs>
</defs>
<path stroke-width="0.5" fill="none" stroke="red" fill-opacity="0.5" d="M140.00043869018555,-207.07201957702637" />
<path stroke-width="0.5" fill="none" stroke="red" fill-opacity="0.5" d="M135.00041961669922,-207.07201957702637" />
<path stroke-width="0.5" fill="none" stroke="red" fill-opacity="0.5" d="M142.50047206878662,-207.07201957702637" />
<path stroke-width="0.5" fill="none" stroke="red" fill-opacity="0.5" d="M142.5004482269287,-201.73802375793457" />
<path stroke-width="0.5" fill="none" stroke="red" fill-opacity="0.5" d="M142.5004482269287,-199.95999336242676" />
<path stroke-width="0.5" fill="none" stroke="red" fill-opacity="0.5" d="M142.5004482269287,-202.33068466186523" />
<path stroke-width="0.5" fill="none" stroke="red" fill-opacity="0.5" d="M137.50042915344238,-209.44271087646484" />
<path stroke-width="0.5" fill="none" stroke="red" fill-opacity="0.5" d="M137.50042915344238,-208.85004997253418" />
<path stroke-width="0.5" fill="none" stroke="red" fill-opacity="0.5" d="M132.50041007995605,-208.85004997253418" />
<path stroke-width="0.5" fill="none" stroke="red" fill-opacity="0.5" d="M127.50036716461182,-211.8133544921875" />
<path stroke-width="0.5" fill="none" stroke="red" fill-opacity="0.5" d="M122.50039577484131,-207.07201957702637" />
<path stroke-width="0.5" fill="none" stroke="red" fill-opacity="0.5" d="M120.00038623809814,-194.62599754333496" />
<path stroke-width="0.5" fill="none" stroke="red" fill-opacity="0.5" d="M117.50035285949707,-195.21868228912354" />
<path stroke-width="0.5" fill="none" stroke="red" fill-opacity="0.5" d="M117.50035285949707,-190.4773473739624" />
<path stroke-width="0.5" fill="none" stroke="red" fill-opacity="0.5" d="M117.50037670135498,-185.73601245880127" />
<path stroke-width="0.5" fill="none" stroke="red" fill-opacity="0.5" d="M120.00038623809814,-178.62401008605957" />
<path stroke-width="0.5" fill="none" stroke="red" fill-opacity="0.5" d="M117.50035285949707,-173.88267517089844" />
<path stroke-width="0.5" fill="none" stroke="red" fill-opacity="0.5" d="M107.50031471252441,-171.51200771331787" />
<path stroke-width="0.5" fill="none" stroke="red" fill-opacity="0.5" d="M112.50033378601074,-164.40000534057617" />
<path stroke-width="0.5" fill="none" stroke="red" fill-opacity="0.5" d="M100.00028610229492,-169.1413402557373" />
<path stroke-width="0.5" fill="none" stroke="red" fill-opacity="0.5" d="M95.0002670288086,-171.51200771331787" />
<path stroke-width="0.5" fill="none" stroke="red" fill-opacity="0.5" d="M90.00024795532227,-178.62401008605957" />
<path stroke-width="0.5" fill="none" stroke="red" fill-opacity="0.5" d="M90.00024795532227,-185.73601245880127" />
<path stroke-width="0.5" fill="none" stroke="red" fill-opacity="0.5" d="M95.0002670288086,-190.4773473739624" />
<path stroke-width="0.5" fill="none" stroke="red" fill-opacity="0.5" d="M102.50029563903809,-192.84801483154297" />
<path stroke-width="0.5" fill="none" stroke="red" fill-opacity="0.5" d="M105.00030517578125,-195.21868228912354" />
<path stroke-width="0.5" fill="none" stroke="red" fill-opacity="0.5" d="M117.50035285949707,-188.10667991638184" />
<path stroke-width="0.5" fill="none" stroke="red" fill-opacity="0.5" d="M120.00038623809814,-183.3653450012207" />
<path stroke-width="0.5" fill="none" stroke="red" fill-opacity="0.5" d="M125.00038146972656,-176.253342628479" />
<path stroke-width="0.5" fill="none" stroke="red" fill-opacity="0.5" d="M127.50039100646973,-169.1413402557373" />
<path stroke-width="0.5" fill="none" stroke="red" fill-opacity="0.5" d="M140.00043869018555,-164.40000534057617" />
<path stroke-width="0.5" fill="none" stroke="red" fill-opacity="0.5" d="M147.50046730041504,-166.77067279815674" />
<path stroke-width="0.5" fill="none" stroke="red" fill-opacity="0.5" d="M162.50054836273193,-171.51200771331787" />
<path stroke-width="0.5" fill="none" stroke="red" fill-opacity="0.5" d="M167.50056743621826,-176.253342628479" />
<path stroke-width="0.5" fill="none" stroke="red" fill-opacity="0.5" d="M175.00059604644775,-183.3653450012207" />
<path stroke-width="0.5" fill="none" stroke="red" fill-opacity="0.5" d="M172.5005865097046,-183.3653450012207" />
<path stroke-width="0.5" fill="none" stroke="red" fill-opacity="0.5" d="M175.00059604644775,-192.2553300857544" />
<path stroke-width="0.5" fill="none" stroke="red" fill-opacity="0.5" d="M172.5006103515625,-192.84801483154297" />
<path stroke-width="0.5" fill="none" stroke="red" fill-opacity="0.5" d="M177.50060558319092,-201.73802375793457" />
<path stroke-width="0.5" fill="none" stroke="red" fill-opacity="0.5" d="M170.00057697296143,-202.33068466186523" />
<path stroke-width="0.5" fill="none" stroke="red" fill-opacity="0.5" d="M172.5005865097046,-202.33068466186523" />
<path stroke-width="0.5" fill="none" stroke="red" fill-opacity="0.5" d="M172.5005865097046,-202.33068466186523" />
<path stroke-width="0.5" fill="none" stroke="red" fill-opacity="0.5" d="M172.5005865097046,-202.33068466186523" />
<path stroke-width="0.5" fill="none" stroke="red" fill-opacity="0.5" d="M172.5005865097046,-202.33068466186523" />
<path stroke-width="0.5" fill="none" stroke="red" fill-opacity="0.5" d="M172.5005865097046,-202.33068466186523" />
<path stroke-width="0.5" fill="none" stroke="red" fill-opacity="0.5" d="M172.5005865097046,-202.33068466186523" />
<path stroke-width="0.5" fill="none" stroke="red" fill-opacity="0.5" d="M172.5005865097046,-202.33068466186523" />
<path stroke-width="0.5" fill="none" stroke="red" fill-opacity="0.5" d="M172.5005865097046,-202.33068466186523" />
<path stroke-width="0.5" fill="none" stroke="red" fill-opacity="0.5" d="M140.00043869018555,-207.07201957702637 L135.00041961669922,-207.07201957702637 L142.50047206878662,-207.07201957702637 L142.5004482269287,-201.73802375793457 L142.5004482269287,-199.95999336242676 L142.5004482269287,-202.33068466186523 L137.50042915344238,-209.44271087646484 L137.50042915344238,-208.85004997253418 L132.50041007995605,-208.85004997253418 L127.50036716461182,-211.8133544921875 L122.50039577484131,-207.07201957702637 L120.00038623809814,-194.62599754333496 L117.50035285949707,-195.21868228912354 L117.50035285949707,-190.4773473739624 L117.50037670135498,-185.73601245880127 L120.00038623809814,-178.62401008605957 L117.50035285949707,-173.88267517089844 L107.50031471252441,-171.51200771331787 L112.50033378601074,-164.40000534057617 L100.00028610229492,-169.1413402557373 L95.0002670288086,-171.51200771331787 L90.00024795532227,-178.62401008605957 L90.00024795532227,-185.73601245880127 L95.0002670288086,-190.4773473739624 L102.50029563903809,-192.84801483154297 L105.00030517578125,-195.21868228912354 L117.50035285949707,-188.10667991638184 L120.00038623809814,-183.3653450012207 L125.00038146972656,-176.253342628479 L127.50039100646973,-169.1413402557373 L140.00043869018555,-164.40000534057617 L147.50046730041504,-166.77067279815674 L162.50054836273193,-171.51200771331787 L167.50056743621826,-176.253342628479 L175.00059604644775,-183.3653450012207 L172.5005865097046,-183.3653450012207 L175.00059604644775,-192.2553300857544 L172.5006103515625,-192.84801483154297 L177.50060558319092,-201.73802375793457 L170.00057697296143,-202.33068466186523 L172.5005865097046,-202.33068466186523 L172.5005865097046,-202.33068466186523 L172.5005865097046,-202.33068466186523 L172.5005865097046,-202.33068466186523 L172.5005865097046,-202.33068466186523 L172.5005865097046,-202.33068466186523 L172.5005865097046,-202.33068466186523 L172.5005865097046,-202.33068466186523" />
<path stroke-width="0.5" fill="none" stroke="red" fill-opacity="0.5" d="M140.00043869018555,-207.07201957702637" />
<path stroke-width="0.5" fill="none" stroke="red" fill-opacity="0.5" d="M139.63115215301514,-206.978178024292" />
<path stroke-width="0.5" fill="none" stroke="red" fill-opacity="0.5" d="M139.47255611419678,-207.0220947265625" />
<path stroke-width="0.5" fill="none" stroke="red" fill-opacity="0.5" d="M139.55614566802979,-206.63700103759766" />
<path stroke-width="0.5" fill="none" stroke="red" fill-opacity="0.5" d="M139.66412544250488,-206.4197063446045" />
<path stroke-width="0.5" fill="none" stroke="red" fill-opacity="0.5" d="M139.78517055511475,-205.97515106201172" />
<path stroke-width="0.5" fill="none" stroke="red" fill-opacity="0.5" d="M139.85512256622314,-205.8779239654541" />
<path stroke-width="0.5" fill="none" stroke="red" fill-opacity="0.5" d="M139.8388147354126,-205.8868408203125" />
<path stroke-width="0.5" fill="none" stroke="red" fill-opacity="0.5" d="M139.3160104751587,-205.84378242492676" />
<path stroke-width="0.5" fill="none" stroke="red" fill-opacity="0.5" d="M137.7671241760254,-205.92374801635742" />
<path stroke-width="0.5" fill="none" stroke="red" fill-opacity="0.5" d="M134.6785545349121,-206.1246395111084" />
<path stroke-width="0.5" fill="none" stroke="red" fill-opacity="0.5" d="M130.45215606689453,-205.4328441619873" />
<path stroke-width="0.5" fill="none" stroke="red" fill-opacity="0.5" d="M127.8329849243164,-203.60164642333984" />
<path stroke-width="0.5" fill="none" stroke="red" fill-opacity="0.5" d="M126.56433582305908,-200.32892227172852" />
<path stroke-width="0.5" fill="none" stroke="red" fill-opacity="0.5" d="M125.37624835968018,-197.07796573638916" />
<path stroke-width="0.5" fill="none" stroke="red" fill-opacity="0.5" d="M124.53172206878662,-192.66963005065918" />
<path stroke-width="0.5" fill="none" stroke="red" fill-opacity="0.5" d="M123.38755130767822,-187.69938945770264" />
<path stroke-width="0.5" fill="none" stroke="red" fill-opacity="0.5" d="M121.65868282318115,-182.46757984161377" />
<path stroke-width="0.5" fill="none" stroke="red" fill-opacity="0.5" d="M118.2645320892334,-178.69322299957275" />
<path stroke-width="0.5" fill="none" stroke="red" fill-opacity="0.5" d="M115.08548259735107,-175.85272789001465" />
<path stroke-width="0.5" fill="none" stroke="red" fill-opacity="0.5" d="M109.40985679626465,-175.21131038665771" />
<path stroke-width="0.5" fill="none" stroke="red" fill-opacity="0.5" d="M105.037522315979,-175.0823736190796" />
<path stroke-width="0.5" fill="none" stroke="red" fill-opacity="0.5" d="M101.50957107543945,-175.98876953125" />
<path stroke-width="0.5" fill="none" stroke="red" fill-opacity="0.5" d="M100.28254985809326,-178.61309051513672" />
<path stroke-width="0.5" fill="none" stroke="red" fill-opacity="0.5" d="M100.1030683517456,-182.21588134765625" />
<path stroke-width="0.5" fill="none" stroke="red" fill-opacity="0.5" d="M100.8939266204834,-184.33430194854736" />
<path stroke-width="0.5" fill="none" stroke="red" fill-opacity="0.5" d="M103.39691638946533,-185.51905155181885" />
<path stroke-width="0.5" fill="none" stroke="red" fill-opacity="0.5" d="M107.7613115310669,-185.56041717529297" />
<path stroke-width="0.5" fill="none" stroke="red" fill-opacity="0.5" d="M112.44440078735352,-184.910249710083" />
<path stroke-width="0.5" fill="none" stroke="red" fill-opacity="0.5" d="M116.49312973022461,-181.92236423492432" />
<path stroke-width="0.5" fill="none" stroke="red" fill-opacity="0.5" d="M123.10202121734619,-177.07276344299316" />
<path stroke-width="0.5" fill="none" stroke="red" fill-opacity="0.5" d="M130.34186363220215,-174.3978500366211" />
<path stroke-width="0.5" fill="none" stroke="red" fill-opacity="0.5" d="M139.88416194915771,-173.64695072174072" />
<path stroke-width="0.5" fill="none" stroke="red" fill-opacity="0.5" d="M149.17540550231934,-173.69813919067383" />
<path stroke-width="0.5" fill="none" stroke="red" fill-opacity="0.5" d="M157.32626914978027,-174.53796863555908" />
<path stroke-width="0.5" fill="none" stroke="red" fill-opacity="0.5" d="M161.68591976165771,-175.90458393096924" />
<path stroke-width="0.5" fill="none" stroke="red" fill-opacity="0.5" d="M164.69624042510986,-179.94844913482666" />
<path stroke-width="0.5" fill="none" stroke="red" fill-opacity="0.5" d="M166.72205924987793,-184.6134901046753" />
<path stroke-width="0.5" fill="none" stroke="red" fill-opacity="0.5" d="M168.8051462173462,-188.88721466064453" />
<path stroke-width="0.5" fill="none" stroke="red" fill-opacity="0.5" d="M169.28529739379883,-191.75240993499756" />
<path stroke-width="0.5" fill="none" stroke="red" fill-opacity="0.5" d="M169.60594654083252,-193.88654232025146" />
<path stroke-width="0.5" fill="none" stroke="red" fill-opacity="0.5" d="M169.8110818862915,-195.33779621124268" />
<path stroke-width="0.5" fill="none" stroke="red" fill-opacity="0.5" d="M169.98229026794434,-196.37396335601807" />
<path stroke-width="0.5" fill="none" stroke="red" fill-opacity="0.5" d="M170.13325691223145,-197.14183807373047" />
<path stroke-width="0.5" fill="none" stroke="red" fill-opacity="0.5" d="M170.26753425598145,-197.7341651916504" />
<path stroke-width="0.5" fill="none" stroke="red" fill-opacity="0.5" d="M170.38781642913818,-198.20539951324463" />
<path stroke-width="0.5" fill="none" stroke="red" fill-opacity="0.5" d="M170.49615383148193,-198.58951568603516" />
<path stroke-width="0.5" fill="none" stroke="red" fill-opacity="0.5" d="M170.59423923492432,-198.90875816345215" />
<path stroke-width="0.5" fill="none" stroke="black" fill-opacity="0.5" d="M140.00043869018555,-207.07201957702637 L139.63115215301514,-206.978178024292 L139.47255611419678,-207.0220947265625 L139.55614566802979,-206.63700103759766 L139.66412544250488,-206.4197063446045 L139.78517055511475,-205.97515106201172 L139.85512256622314,-205.8779239654541 L139.8388147354126,-205.8868408203125 L139.3160104751587,-205.84378242492676 L137.7671241760254,-205.92374801635742 L134.6785545349121,-206.1246395111084 L130.45215606689453,-205.4328441619873 L127.8329849243164,-203.60164642333984 L126.56433582305908,-200.32892227172852 L125.37624835968018,-197.07796573638916 L124.53172206878662,-192.66963005065918 L123.38755130767822,-187.69938945770264 L121.65868282318115,-182.46757984161377 L118.2645320892334,-178.69322299957275 L115.08548259735107,-175.85272789001465 L109.40985679626465,-175.21131038665771 L105.037522315979,-175.0823736190796 L101.50957107543945,-175.98876953125 L100.28254985809326,-178.61309051513672 L100.1030683517456,-182.21588134765625 L100.8939266204834,-184.33430194854736 L103.39691638946533,-185.51905155181885 L107.7613115310669,-185.56041717529297 L112.44440078735352,-184.910249710083 L116.49312973022461,-181.92236423492432 L123.10202121734619,-177.07276344299316 L130.34186363220215,-174.3978500366211 L139.88416194915771,-173.64695072174072 L149.17540550231934,-173.69813919067383 L157.32626914978027,-174.53796863555908 L161.68591976165771,-175.90458393096924 L164.69624042510986,-179.94844913482666 L166.72205924987793,-184.6134901046753 L168.8051462173462,-188.88721466064453 L169.28529739379883,-191.75240993499756 L169.60594654083252,-193.88654232025146 L169.8110818862915,-195.33779621124268 L169.98229026794434,-196.37396335601807 L170.13325691223145,-197.14183807373047 L170.26753425598145,-197.7341651916504 L170.38781642913818,-198.20539951324463 L170.49615383148193,-198.58951568603516 L170.59423923492432,-198.90875816345215" />
</svg>