<?xml version="1.0" encoding="UTF-8"?>
<svg xmlns="http://www.w3.org/2000/svg" xmlns:xlink="http://www.w3.org/1999/xlink"
     width="600" height="600" viewBox="0 -300 300 300">
<defs>
</defs>
<path stroke-width="0.5" fill="none" stroke="red" fill-opacity="0.5" d="M130.0004005432129,-204.10871505737305" />
<path stroke-width="0.5" fill="none" stroke="red" fill-opacity="0.5" d="M132.50041007995605,-207.07201957702637" />
<path stroke-width="0.5" fill="none" stroke="red" fill-opacity="0.5" d="M132.50041007995605,-209.44271087646484" />
<path stroke-width="0.5" fill="none" stroke="red" fill-opacity="0.5" d="M132.50041007995605,-209.44271087646484" />
<path stroke-width="0.5" fill="none" stroke="red" fill-opacity="0.5" d="M137.50042915344238,-201.73802375793457" />
<path stroke-width="0.5" fill="none" stroke="red" fill-opacity="0.5" d="M132.50041007995605,-209.44271087646484" />
<path stroke-width="0.5" fill="none" stroke="red" fill-opacity="0.5" d="M140.00043869018555,-207.07201957702637" />
<path stroke-width="0.5" fill="none" stroke="red" fill-opacity="0.5" d="M140.00046253204346,-209.44271087646484" />
<path stroke-width="0.5" fill="none" stroke="red" fill-opacity="0.5" d="M130.0004005432129,-214.18404579162598" />
<path stroke-width="0.5" fill="none" stroke="red" fill-opacity="0.5" d="M125.00038146972656,-218.9253807067871" />
<path stroke-width="0.5" fill="none" stroke="red" fill-opacity="0.5" d="M112.50033378601074,-214.18404579162598" />
<path stroke-width="0.5" fill="none" stroke="red" fill-opacity="0.5" d="M100.00028610229492,-216.55473709106445" />
<path stroke-width="0.5" fill="none" stroke="red" fill-opacity="0.5" d="M95.0002670288086,-209.44271087646484" />
<path stroke-width="0.5" fill="none" stroke="red" fill-opacity="0.5" d="M97.50027656555176,-199.95999336242676" />
<path stroke-width="0.5" fill="none" stroke="red" fill-opacity="0.5" d="M102.50029563903809,-192.84801483154297" />
<path stroke-width="0.5" fill="none" stroke="red" fill-opacity="0.5" d="M105.00030517578125,-183.3653450012207" />
<path stroke-width="0.5" fill="none" stroke="red" fill-opacity="0.5" d="M105.00028133392334,-171.51200771331787" />
<path stroke-width="0.5" fill="none" stroke="red" fill-opacity="0.5" d="M97.50025272369385,-169.1413402557373" />
<path stroke-width="0.5" fill="none" stroke="red" fill-opacity="0.5" d="M77.50017642974854,-176.253342628479" />
<path stroke-width="0.5" fill="none" stroke="red" fill-opacity="0.5" d="M77.50017642974854,-180.99467754364014" />
<path stroke-width="0.5" fill="none" stroke="red" fill-opacity="0.5" d="M75.00019073486328,-185.73601245880127" />
<path stroke-width="0.5" fill="none" stroke="red" fill-opacity="0.5" d="M77.50017642974854,-195.21868228912354" />
<path stroke-width="0.5" fill="none" stroke="red" fill-opacity="0.5" d="M82.50019550323486,-197.5893497467041" />
<path stroke-width="0.5" fill="none" stroke="red" fill-opacity="0.5" d="M77.50017642974854,-209.44271087646484" />
<path stroke-width="0.5" fill="none" stroke="red" fill-opacity="0.5" d="M85.00022888183594,-214.18404579162598" />
<path stroke-width="0.5" fill="none" stroke="red" fill-opacity="0.5" d="M82.50021934509277,-226.03740692138672" />
<path stroke-width="0.5" fill="none" stroke="red" fill-opacity="0.5" d="M82.50021934509277,-226.03740692138672" />
<path stroke-width="0.5" fill="none" stroke="red" fill-opacity="0.5" d="M82.50021934509277,-226.03740692138672" />
<path stroke-width="0.5" fill="none" stroke="red" fill-opacity="0.5" d="M82.50021934509277,-226.03740692138672" />
<path stroke-width="0.5" fill="none" stroke="red" fill-opacity="0.5" d="M82.50021934509277,-226.03740692138672" />
<path stroke-width="0.5" fill="none" stroke="red" fill-opacity="0.5" d="M82.50021934509277,-226.03740692138672" />
<path stroke-width="0.5" fill="none" stroke="red" fill-opacity="0.5" d="M82.50021934509277,-226.03740692138672" />
<path stroke-width="0.5" fill="none" stroke="red" fill-opacity="0.5" d="M82.50021934509277,-226.03740692138672" />
<path stroke-width="0.5" fill="none" stroke="red" fill-opacity="0.5" d="M130.0004005432129,-204.10871505737305 L132.50041007995605,-207.07201957702637 L132.50041007995605,-209.44271087646484 L132.50041007995605,-209.44271087646484 L137.50042915344238,-201.73802375793457 L132.50041007995605,-209.44271087646484 L140.00043869018555,-207.07201957702637 L140.00046253204346,-209.44271087646484 L130.0004005432129,-214.18404579162598 L125.00038146972656,-218.9253807067871 L112.50033378601074,-214.18404579162598 L100.00028610229492,-216.55473709106445 L95.0002670288086,-209.44271087646484 L97.50027656555176,-199.95999336242676 L102.50029563903809,-192.84801483154297 L105.00030517578125,-183.3653450012207 L105.00028133392334,-171.51200771331787 L97.50025272369385,-169.1413402557373 L77.50017642974854,-176.253342628479 L77.50017642974854,-180.99467754364014 L75.00019073486328,-185.73601245880127 L77.50017642974854,-195.21868228912354 L82.50019550323486,-197.5893497467041 L77.50017642974854,-209.44271087646484 L85.00022888183594,-214.18404579162598 L82.50021934509277,-226.03740692138672 L82.50021934509277,-226.03740692138672 L82.50021934509277,-226.03740692138672 L82.50021934509277,-226.03740692138672 L82.50021934509277,-226.03740692138672 L82.50021934509277,-226.03740692138672 L82.50021934509277,-226.03740692138672 L82.50021934509277,-226.03740692138672" />
<path stroke-width="0.5" fill="none" stroke="red" fill-opacity="0.5" d="M130.0004005432129,-204.10871505737305" />
<path stroke-width="0.5" fill="none" stroke="red" fill-opacity="0.5" d="M130.17899990081787,-204.13594245910645" />
<path stroke-width="0.5" fill="none" stroke="red" fill-opacity="0.5" d="M130.31823635101318,-204.3416976928711" />
<path stroke-width="0.5" fill="none" stroke="red" fill-opacity="0.5" d="M130.89706897735596,-204.36830520629883" />
<path stroke-width="0.5" fill="none" stroke="red" fill-opacity="0.5" d="M131.1122179031372,-204.3708324432373" />
<path stroke-width="0.5" fill="none" stroke="red" fill-opacity="0.5" d="M131.268572807312,-204.60047721862793" />
<path stroke-width="0.5" fill="none" stroke="red" fill-opacity="0.5" d="M131.46154880523682,-204.8715114593506" />
<path stroke-width="0.5" fill="none" stroke="red" fill-opacity="0.5" d="M131.79869651794434,-205.4823875427246" />
<path stroke-width="0.5" fill="none" stroke="red" fill-opacity="0.5" d="M132.06946849822998,-206.8490505218506" />
<path stroke-width="0.5" fill="none" stroke="red" fill-opacity="0.5" d="M131.4213752746582,-209.64198112487793" />
<path stroke-width="0.5" fill="none" stroke="red" fill-opacity="0.5" d="M129.0337085723877,-211.0403537750244" />
<path stroke-width="0.5" fill="none" stroke="red" fill-opacity="0.5" d="M122.01941013336182,-211.97385787963867" />
<path stroke-width="0.5" fill="none" stroke="red" fill-opacity="0.5" d="M113.2948637008667,-212.1058464050293" />
<path stroke-width="0.5" fill="none" stroke="red" fill-opacity="0.5" d="M108.22536945343018,-210.87698936462402" />
<path stroke-width="0.5" fill="none" stroke="red" fill-opacity="0.5" d="M106.51719570159912,-206.92105293273926" />
<path stroke-width="0.5" fill="none" stroke="red" fill-opacity="0.5" d="M106.29820823669434,-200.43864250183105" />
<path stroke-width="0.5" fill="none" stroke="red" fill-opacity="0.5" d="M106.2859058380127,-191.2733793258667" />
<path stroke-width="0.5" fill="none" stroke="red" fill-opacity="0.5" d="M105.39579391479492,-184.0224266052246" />
<path stroke-width="0.5" fill="none" stroke="red" fill-opacity="0.5" d="M100.34167766571045,-180.72752952575684" />
<path stroke-width="0.5" fill="none" stroke="red" fill-opacity="0.5" d="M92.88365840911865,-180.40287494659424" />
<path stroke-width="0.5" fill="none" stroke="red" fill-opacity="0.5" d="M88.13881874084473,-180.6208610534668" />
<path stroke-width="0.5" fill="none" stroke="red" fill-opacity="0.5" d="M85.21020412445068,-182.75492191314697" />
<path stroke-width="0.5" fill="none" stroke="red" fill-opacity="0.5" d="M84.04660224914551,-186.86347007751465" />
<path stroke-width="0.5" fill="none" stroke="red" fill-opacity="0.5" d="M83.27784538269043,-192.76623725891113" />
<path stroke-width="0.5" fill="none" stroke="red" fill-opacity="0.5" d="M83.17117691040039,-199.81036186218262" />
<path stroke-width="0.5" fill="none" stroke="red" fill-opacity="0.5" d="M83.11820030212402,-206.9469928741455" />
<path stroke-width="0.5" fill="none" stroke="red" fill-opacity="0.5" d="M83.10449123382568,-213.14740180969238" />
<path stroke-width="0.5" fill="none" stroke="red" fill-opacity="0.5" d="M83.09354782104492,-216.34235382080078" />
<path stroke-width="0.5" fill="none" stroke="red" fill-opacity="0.5" d="M83.08300971984863,-218.2443141937256" />
<path stroke-width="0.5" fill="none" stroke="red" fill-opacity="0.5" d="M83.07280540466309,-219.51351165771484" />
<path stroke-width="0.5" fill="none" stroke="red" fill-opacity="0.5" d="M83.06291103363037,-220.4242706298828" />
<path stroke-width="0.5" fill="none" stroke="red" fill-opacity="0.5" d="M83.05330276489258,-221.11105918884277" />
<path stroke-width="0.5" fill="none" stroke="red" fill-opacity="0.5" d="M83.04400444030762,-221.64816856384277" />
<path stroke-width="0.5" fill="none" stroke="black" fill-opacity="0.5" d="M130.0004005432129,-204.10871505737305 L130.17899990081787,-204.13594245910645 L130.31823635101318,-204.3416976928711 L130.89706897735596,-204.36830520629883 L131.1122179031372,-204.3708324432373 L131.268572807312,-204.60047721862793 L131.46154880523682,-204.8715114593506 L131.79869651794434,-205.4823875427246 L132.06946849822998,-206.8490505218506 L131.4213752746582,-209.64198112487793 L129.0337085723877,-211.0403537750244 L122.01941013336182,-211.97385787963867 L113.2948637008667,-212.1058464050293 L108.22536945343018,-210.87698936462402 L106.51719570159912,-206.92105293273926 L106.29820823669434,-200.43864250183105 L106.2859058380127,-191.2733793258667 L105.39579391479492,-184.0224266052246 L100.34167766571045,-180.72752952575684 L92.88365840911865,-180.40287494659424 L88.13881874084473,-180.6208610534668 L85.21020412445068,-182.75492191314697 L84.04660224914551,-186.86347007751465 L83.27784538269043,-192.76623725891113 L83.17117691040039,-199.81036186218262 L83.11820030212402,-206.9469928741455 L83.10449123382568,-213.14740180969238 L83.09354782104492,-216.34235382080078 L83.08300971984863,-218.2443141937256 L83.07280540466309,-219.51351165771484 L83.06291103363037,-220.4242706298828 L83.05330276489258,-221.11105918884277 L83.04400444030762,-221.64816856384277" />
</svg>