<?xml version="1.0" encoding="UTF-8"?>
<svg xmlns="http://www.w3.org/2000/svg" xmlns:xlink="http://www.w3.org/1999/xlink"
     width="600" height="600" viewBox="0 -300 300 300">
<defs>
</defs>
<path stroke-width="0.5" fill="none" stroke="red" fill-opacity="0.5" d="M132.50041007995605,-195.21868228912354" />
<path stroke-width="0.5" fill="none" stroke="red" fill-opacity="0.5" d="M132.50041007995605,-197.5893497467041" />
<path stroke-width="0.5" fill="none" stroke="red" fill-opacity="0.5" d="M130.00037670135498,-197.5893497467041" />
<path stroke-width="0.5" fill="none" stroke="red" fill-opacity="0.5" d="M130.00037670135498,-199.95999336242676" />
<path stroke-width="0.5" fill="none" stroke="red" fill-opacity="0.5" d="M132.50041007995605,-196.99666500091553" />
<path stroke-width="0.5" fill="none" stroke="red" fill-opacity="0.5" d="M132.50041007995605,-196.99666500091553" />
<path stroke-width="0.5" fill="none" stroke="red" fill-opacity="0.5" d="M130.00037670135498,-207.07201957702637" />
<path stroke-width="0.5" fill="none" stroke="red" fill-opacity="0.5" d="M127.50039100646973,-209.44271087646484" />
<path stroke-width="0.5" fill="none" stroke="red" fill-opacity="0.5" d="M125.00038146972656,-209.44271087646484" />
<path stroke-width="0.5" fill="none" stroke="red" fill-opacity="0.5" d="M122.50034809112549,-207.07201957702637" />
<path stroke-width="0.5" fill="none" stroke="red" fill-opacity="0.5" d="M115.0003433227539,-204.7013282775879" />
<path stroke-width="0.5" fill="none" stroke="red" fill-opacity="0.5" d="M110.00032424926758,-199.95999336242676" />
<path stroke-width="0.5" fill="none" stroke="red" fill-opacity="0.5" d="M117.50035285949707,-192.84801483154297" />
<path stroke-width="0.5" fill="none" stroke="red" fill-opacity="0.5" d="M107.50031471252441,-197.5893497467041" />
<path stroke-width="0.5" fill="none" stroke="red" fill-opacity="0.5" d="M112.50033378601074,-199.95999336242676" />
<path stroke-width="0.5" fill="none" stroke="red" fill-opacity="0.5" d="M120.00036239624023,-199.95999336242676" />
<path stroke-width="0.5" fill="none" stroke="red" fill-opacity="0.5" d="M127.50041484832764,-204.7013282775879" />
<path stroke-width="0.5" fill="none" stroke="red" fill-opacity="0.5" d="M135.00041961669922,-207.07201957702637" />
<path stroke-width="0.5" fill="none" stroke="red" fill-opacity="0.5" d="M147.50049114227295,-209.44271087646484" />
<path stroke-width="0.5" fill="none" stroke="red" fill-opacity="0.5" d="M150.0004768371582,-206.4793586730957" />
<path stroke-width="0.5" fill="none" stroke="red" fill-opacity="0.5" d="M155.00049591064453,-209.44271087646484" />
<path stroke-width="0.5" fill="none" stroke="red" fill-opacity="0.5" d="M162.50054836273193,-202.33068466186523" />
<path stroke-width="0.5" fill="none" stroke="red" fill-opacity="0.5" d="M165.0005578994751,-190.4773473739624" />
<path stroke-width="0.5" fill="none" stroke="red" fill-opacity="0.5" d="M170.00057697296143,-183.3653450012207" />
<path stroke-width="0.5" fill="none" stroke="red" fill-opacity="0.5" d="M167.50056743621826,-171.51200771331787" />
<path stroke-width="0.5" fill="none" stroke="red" fill-opacity="0.5" d="M170.00055313110352,-164.40000534057617" />
<path stroke-width="0.5" fill="none" stroke="red" fill-opacity="0.5" d="M175.00057220458984,-159.65867042541504" />
<path stroke-width="0.5" fill="none" stroke="red" fill-opacity="0.5" d="M177.50060558319092,-154.9173355102539" />
<path stroke-width="0.5" fill="none" stroke="red" fill-opacity="0.5" d="M185.0006103515625,-154.9173355102539" />
<path stroke-width="0.5" fill="none" stroke="red" fill-opacity="0.5" d="M185.0006103515625,-154.9173355102539" />
<path stroke-width="0.5" fill="none" stroke="red" fill-opacity="0.5" d="M185.0006103515625,-154.9173355102539" />
<path stroke-width="0.5" fill="none" stroke="red" fill-opacity="0.5" d="M185.0006103515625,-154.9173355102539" />
<path stroke-width="0.5" fill="none" stroke="red" fill-opacity="0.5" d="M185.0006103515625,-154.9173355102539" />
<path stroke-width="0.5" fill="none" stroke="red" fill-opacity="0.5" d="M185.0006103515625,-154.9173355102539" />
<path stroke-width="0.5" fill="none" stroke="red" fill-opacity="0.5" d="M185.0006103515625,-154.9173355102539" />
<path stroke-width="0.5" fill="none" stroke="red" fill-opacity="0.5" d="M185.0006103515625,-154.9173355102539" />
<path stroke-width="0.5" fill="none" stroke="red" fill-opacity="0.5" d="M132.50041007995605,-195.21868228912354 L132.50041007995605,-197.5893497467041 L130.00037670135498,-197.5893497467041 L130.00037670135498,-199.95999336242676 L132.50041007995605,-196.99666500091553 L132.50041007995605,-196.99666500091553 L130.00037670135498,-207.07201957702637 L127.50039100646973,-209.44271087646484 L125.00038146972656,-209.44271087646484 L122.50034809112549,-207.07201957702637 L115.0003433227539,-204.7013282775879 L110.00032424926758,-199.95999336242676 L117.50035285949707,-192.84801483154297 L107.50031471252441,-197.5893497467041 L112.50033378601074,-199.95999336242676 L120.00036239624023,-199.95999336242676 L127.50041484832764,-204.7013282775879 L135.00041961669922,-207.07201957702637 L147.50049114227295,-209.44271087646484 L150.0004768371582,-206.4793586730957 L155.00049591064453,-209.44271087646484 L162.50054836273193,-202.33068466186523 L165.0005578994751,-190.4773473739624 L170.00057697296143,-183.3653450012207 L167.50056743621826,-171.51200771331787 L170.00055313110352,-164.40000534057617 L175.00057220458984,-159.65867042541504 L177.50060558319092,-154.9173355102539 L185.0006103515625,-154.9173355102539 L185.0006103515625,-154.9173355102539 L185.0006103515625,-154.9173355102539 L185.0006103515625,-154.9173355102539 L185.0006103515625,-154.9173355102539 L185.0006103515625,-154.9173355102539 L185.0006103515625,-154.9173355102539 L185.0006103515625,-154.9173355102539" />
<path stroke-width="0.5" fill="none" stroke="red" fill-opacity="0.5" d="M132.50041007995605,-195.21868228912354" />
<path stroke-width="0.5" fill="none" stroke="red" fill-opacity="0.5" d="M132.50041007995605,-195.15788555145264" />
<path stroke-width="0.5" fill="none" stroke="red" fill-opacity="0.5" d="M132.4354648590088,-195.2054500579834" />
<path stroke-width="0.5" fill="none" stroke="red" fill-opacity="0.5" d="M132.32386112213135,-195.37310600280762" />
<path stroke-width="0.5" fill="none" stroke="red" fill-opacity="0.5" d="M132.3096752166748,-195.69191932678223" />
<path stroke-width="0.5" fill="none" stroke="red" fill-opacity="0.5" d="M132.27062225341797,-196.09053134918213" />
<path stroke-width="0.5" fill="none" stroke="red" fill-opacity="0.5" d="M132.2061538696289,-197.80290126800537" />
<path stroke-width="0.5" fill="none" stroke="red" fill-opacity="0.5" d="M131.85038566589355,-200.2068042755127" />
<path stroke-width="0.5" fill="none" stroke="red" fill-opacity="0.5" d="M131.19158744812012,-202.04286575317383" />
<path stroke-width="0.5" fill="none" stroke="red" fill-opacity="0.5" d="M130.16231060028076,-203.15022468566895" />
<path stroke-width="0.5" fill="none" stroke="red" fill-opacity="0.5" d="M127.46751308441162,-203.36527824401855" />
<path stroke-width="0.5" fill="none" stroke="red" fill-opacity="0.5" d="M123.82841110229492,-203.21922302246094" />
<path stroke-width="0.5" fill="none" stroke="red" fill-opacity="0.5" d="M120.29154300689697,-202.84972190856934" />
<path stroke-width="0.5" fill="none" stroke="red" fill-opacity="0.5" d="M117.51480102539062,-202.32281684875488" />
<path stroke-width="0.5" fill="none" stroke="red" fill-opacity="0.5" d="M116.57278537750244,-201.70292854309082" />
<path stroke-width="0.5" fill="none" stroke="red" fill-opacity="0.5" d="M115.50517082214355,-201.6712188720703" />
<path stroke-width="0.5" fill="none" stroke="red" fill-opacity="0.5" d="M116.40830039978027,-201.64856910705566" />
<path stroke-width="0.5" fill="none" stroke="red" fill-opacity="0.5" d="M119.57714557647705,-202.04720497131348" />
<path stroke-width="0.5" fill="none" stroke="red" fill-opacity="0.5" d="M126.81069374084473,-202.8228759765625" />
<path stroke-width="0.5" fill="none" stroke="red" fill-opacity="0.5" d="M134.0265989303589,-203.34744453430176" />
<path stroke-width="0.5" fill="none" stroke="red" fill-opacity="0.5" d="M141.14291667938232,-203.65071296691895" />
<path stroke-width="0.5" fill="none" stroke="red" fill-opacity="0.5" d="M147.57981300354004,-203.57012748718262" />
<path stroke-width="0.5" fill="none" stroke="red" fill-opacity="0.5" d="M152.67088413238525,-202.22010612487793" />
<path stroke-width="0.5" fill="none" stroke="red" fill-opacity="0.5" d="M155.85319995880127,-197.98486232757568" />
<path stroke-width="0.5" fill="none" stroke="red" fill-opacity="0.5" d="M159.17975902557373,-191.60807132720947" />
<path stroke-width="0.5" fill="none" stroke="red" fill-opacity="0.5" d="M160.98508834838867,-182.49201774597168" />
<path stroke-width="0.5" fill="none" stroke="red" fill-opacity="0.5" d="M164.21895027160645,-175.89082717895508" />
<path stroke-width="0.5" fill="none" stroke="red" fill-opacity="0.5" d="M167.9504632949829,-170.1697826385498" />
<path stroke-width="0.5" fill="none" stroke="red" fill-opacity="0.5" d="M171.74501419067383,-165.93036651611328" />
<path stroke-width="0.5" fill="none" stroke="red" fill-opacity="0.5" d="M175.05712509155273,-163.5295867919922" />
<path stroke-width="0.5" fill="none" stroke="red" fill-opacity="0.5" d="M177.0479440689087,-162.00158596038818" />
<path stroke-width="0.5" fill="none" stroke="red" fill-opacity="0.5" d="M178.3658266067505,-160.9391450881958" />
<path stroke-width="0.5" fill="none" stroke="red" fill-opacity="0.5" d="M179.30572032928467,-160.15541553497314" />
<path stroke-width="0.5" fill="none" stroke="red" fill-opacity="0.5" d="M180.0114631652832,-159.5524549484253" />
<path stroke-width="0.5" fill="none" stroke="red" fill-opacity="0.5" d="M180.56156635284424,-159.07371044158936" />
<path stroke-width="0.5" fill="none" stroke="red" fill-opacity="0.5" d="M181.0027837753296,-158.68408679962158" />
<path stroke-width="0.5" fill="none" stroke="black" fill-opacity="0.5" d="M132.50041007995605,-195.21868228912354 L132.50041007995605,-195.15788555145264 L132.4354648590088,-195.2054500579834 L132.32386112213135,-195.37310600280762 L132.3096752166748,-195.69191932678223 L132.27062225341797,-196.09053134918213 L132.2061538696289,-197.80290126800537 L131.85038566589355,-200.2068042755127 L131.19158744812012,-202.04286575317383 L130.16231060028076,-203.15022468566895 L127.46751308441162,-203.36527824401855 L123.82841110229492,-203.21922302246094 L120.29154300689697,-202.84972190856934 L117.51480102539062,-202.32281684875488 L116.57278537750244,-201.70292854309082 L115.50517082214355,-201.6712188720703 L116.40830039978027,-201.64856910705566 L119.57714557647705,-202.04720497131348 L126.81069374084473,-202.8228759765625 L134.0265989303589,-203.34744453430176 L141.14291667938232,-203.65071296691895 L147.57981300354004,-203.57012748718262 L152.67088413238525,-202.22010612487793 L155.85319995880127,-197.98486232757568 L159.17975902557373,-191.60807132720947 L160.98508834838867,-182.49201774597168 L164.21895027160645,-175.89082717895508 L167.9504632949829,-170.1697826385498 L171.74501419067383,-165.93036651611328 L175.05712509155273,-163.5295867919922 L177.0479440689087,-162.00158596038818 L178.3658266067505,-160.9391450881958 L179.30572032928467,-160.15541553497314 L180.0114631652832,-159.5524549484253 L180.56156635284424,-159.07371044158936 L181.0027837753296,-158.68408679962158" />
</svg>