<?xml version="1.0" encoding="UTF-8"?>
<svg xmlns="http://www.w3.org/2000/svg" xmlns:xlink="http://www.w3.org/1999/xlink"
     width="600" height="600" viewBox="0 -300 300 300">
<defs>
</defs>
<path stroke-width="0.5" fill="none" stroke="red" fill-opacity="0.5" d="M127.50039100646973,-192.84801483154297" />
<path stroke-width="0.5" fill="none" stroke="red" fill-opacity="0.5" d="M125.00038146972656,-189.88466262817383" />
<path stroke-width="0.5" fill="none" stroke="red" fill-opacity="0.5" d="M122.5003719329834,-197.5893497467041" />
<path stroke-width="0.5" fill="none" stroke="red" fill-opacity="0.5" d="M122.5003719329834,-194.62599754333496" />
<path stroke-width="0.5" fill="none" stroke="red" fill-opacity="0.5" d="M125.00038146972656,-202.33068466186523" />
<path stroke-width="0.5" fill="none" stroke="red" fill-opacity="0.5" d="M122.50034809112549,-199.95999336242676" />
<path stroke-width="0.5" fill="none" stroke="red" fill-opacity="0.5" d="M122.5003719329834,-199.95999336242676" />
<path stroke-width="0.5" fill="none" stroke="red" fill-opacity="0.5" d="M127.50039100646973,-194.62599754333496" />
<path stroke-width="0.5" fill="none" stroke="red" fill-opacity="0.5" d="M132.50041007995605,-187.51399517059326" />
<path stroke-width="0.5" fill="none" stroke="red" fill-opacity="0.5" d="M135.00041961669922,-176.253342628479" />
<path stroke-width="0.5" fill="none" stroke="red" fill-opacity="0.5" d="M130.00037670135498,-164.40000534057617" />
<path stroke-width="0.5" fill="none" stroke="red" fill-opacity="0.5" d="M125.00035762786865,-157.28800296783447" />
<path stroke-width="0.5" fill="none" stroke="red" fill-opacity="0.5" d="M122.5003719329834,-150.17600059509277" />
<path stroke-width="0.5" fill="none" stroke="red" fill-opacity="0.5" d="M107.5002908706665,-152.54666805267334" />
<path stroke-width="0.5" fill="none" stroke="red" fill-opacity="0.5" d="M100.00026226043701,-159.65867042541504" />
<path stroke-width="0.5" fill="none" stroke="red" fill-opacity="0.5" d="M100.00026226043701,-166.77067279815674" />
<path stroke-width="0.5" fill="none" stroke="red" fill-opacity="0.5" d="M97.50025272369385,-178.62401008605957" />
<path stroke-width="0.5" fill="none" stroke="red" fill-opacity="0.5" d="M92.50023365020752,-190.4773473739624" />
<path stroke-width="0.5" fill="none" stroke="red" fill-opacity="0.5" d="M95.00024318695068,-199.95999336242676" />
<path stroke-width="0.5" fill="none" stroke="red" fill-opacity="0.5" d="M102.50027179718018,-206.4793586730957" />
<path stroke-width="0.5" fill="none" stroke="red" fill-opacity="0.5" d="M105.00028133392334,-209.44271087646484" />
<path stroke-width="0.5" fill="none" stroke="red" fill-opacity="0.5" d="M110.00030040740967,-214.18404579162598" />
<path stroke-width="0.5" fill="none" stroke="red" fill-opacity="0.5" d="M122.5003719329834,-214.18404579162598" />
<path stroke-width="0.5" fill="none" stroke="red" fill-opacity="0.5" d="M130.0004005432129,-214.18404579162598" />
<path stroke-width="0.5" fill="none" stroke="red" fill-opacity="0.5" d="M130.0004005432129,-214.18404579162598" />
<path stroke-width="0.5" fill="none" stroke="red" fill-opacity="0.5" d="M130.0004005432129,-214.18404579162598" />
<path stroke-width="0.5" fill="none" stroke="red" fill-opacity="0.5" d="M130.0004005432129,-214.18404579162598" />
<path stroke-width="0.5" fill="none" stroke="red" fill-opacity="0.5" d="M130.0004005432129,-214.18404579162598" />
<path stroke-width="0.5" fill="none" stroke="red" fill-opacity="0.5" d="M145.00045776367188,-199.95999336242676" />
<path stroke-width="0.5" fill="none" stroke="red" fill-opacity="0.5" d="M140.00043869018555,-197.5893497467041" />
<path stroke-width="0.5" fill="none" stroke="red" fill-opacity="0.5" d="M127.50039100646973,-195.21868228912354" />
<path stroke-width="0.5" fill="none" stroke="red" fill-opacity="0.5" d="M122.5003719329834,-195.21868228912354" />
<path stroke-width="0.5" fill="none" stroke="red" fill-opacity="0.5" d="M117.50035285949707,-197.5893497467041" />
<path stroke-width="0.5" fill="none" stroke="red" fill-opacity="0.5" d="M115.0003433227539,-190.4773473739624" />
<path stroke-width="0.5" fill="none" stroke="red" fill-opacity="0.5" d="M105.00030517578125,-192.84801483154297" />
<path stroke-width="0.5" fill="none" stroke="red" fill-opacity="0.5" d="M100.00026226043701,-190.4773473739624" />
<path stroke-width="0.5" fill="none" stroke="red" fill-opacity="0.5" d="M105.00030517578125,-183.3653450012207" />
<path stroke-width="0.5" fill="none" stroke="red" fill-opacity="0.5" d="M110.00032424926758,-178.62401008605957" />
<path stroke-width="0.5" fill="none" stroke="red" fill-opacity="0.5" d="M117.50032901763916,-171.51200771331787" />
<path stroke-width="0.5" fill="none" stroke="red" fill-opacity="0.5" d="M122.5003719329834,-166.77067279815674" />
<path stroke-width="0.5" fill="none" stroke="red" fill-opacity="0.5" d="M130.0004005432129,-164.40000534057617" />
<path stroke-width="0.5" fill="none" stroke="red" fill-opacity="0.5" d="M135.00041961669922,-162.0293378829956" />
<path stroke-width="0.5" fill="none" stroke="red" fill-opacity="0.5" d="M145.00043392181396,-162.0293378829956" />
<path stroke-width="0.5" fill="none" stroke="red" fill-opacity="0.5" d="M150.0004529953003,-164.40000534057617" />
<path stroke-width="0.5" fill="none" stroke="red" fill-opacity="0.5" d="M147.50049114227295,-164.40000534057617" />
<path stroke-width="0.5" fill="none" stroke="red" fill-opacity="0.5" d="M155.00049591064453,-176.253342628479" />
<path stroke-width="0.5" fill="none" stroke="red" fill-opacity="0.5" d="M155.00049591064453,-176.253342628479" />
<path stroke-width="0.5" fill="none" stroke="red" fill-opacity="0.5" d="M155.00049591064453,-176.253342628479" />
<path stroke-width="0.5" fill="none" stroke="red" fill-opacity="0.5" d="M155.00049591064453,-176.253342628479" />
<path stroke-width="0.5" fill="none" stroke="red" fill-opacity="0.5" d="M155.00049591064453,-176.253342628479" />
<path stroke-width="0.5" fill="none" stroke="red" fill-opacity="0.5" d="M145.00045776367188,-202.33068466186523" />
<path stroke-width="0.5" fill="none" stroke="red" fill-opacity="0.5" d="M127.50039100646973,-192.84801483154297 L125.00038146972656,-189.88466262817383 L122.5003719329834,-197.5893497467041 L122.5003719329834,-194.62599754333496 L125.00038146972656,-202.33068466186523 L122.50034809112549,-199.95999336242676 L122.5003719329834,-199.95999336242676 L127.50039100646973,-194.62599754333496 L132.50041007995605,-187.51399517059326 L135.00041961669922,-176.253342628479 L130.00037670135498,-164.40000534057617 L125.00035762786865,-157.28800296783447 L122.5003719329834,-150.17600059509277 L107.5002908706665,-152.54666805267334 L100.00026226043701,-159.65867042541504 L100.00026226043701,-166.77067279815674 L97.50025272369385,-178.62401008605957 L92.50023365020752,-190.4773473739624 L95.00024318695068,-199.95999336242676 L102.50027179718018,-206.4793586730957 L105.00028133392334,-209.44271087646484 L110.00030040740967,-214.18404579162598 L122.5003719329834,-214.18404579162598 L130.0004005432129,-214.18404579162598 L130.0004005432129,-214.18404579162598 L130.0004005432129,-214.18404579162598 L130.0004005432129,-214.18404579162598 L130.0004005432129,-214.18404579162598 L145.00045776367188,-199.95999336242676 L140.00043869018555,-197.5893497467041 L127.50039100646973,-195.21868228912354 L122.5003719329834,-195.21868228912354 L117.50035285949707,-197.5893497467041 L115.0003433227539,-190.4773473739624 L105.00030517578125,-192.84801483154297 L100.00026226043701,-190.4773473739624 L105.00030517578125,-183.3653450012207 L110.00032424926758,-178.62401008605957 L117.50032901763916,-171.51200771331787 L122.5003719329834,-166.77067279815674 L130.0004005432129,-164.40000534057617 L135.00041961669922,-162.0293378829956 L145.00043392181396,-162.0293378829956 L150.0004529953003,-164.40000534057617 L147.50049114227295,-164.40000534057617 L155.00049591064453,-176.253342628479 L155.00049591064453,-176.253342628479 L155.00049591064453,-176.253342628479 L155.00049591064453,-176.253342628479 L155.00049591064453,-176.253342628479 L145.00045776367188,-202.33068466186523" />
<path stroke-width="0.5" fill="none" stroke="red" fill-opacity="0.5" d="M127.50039100646973,-192.84801483154297" />
<path stroke-width="0.5" fill="none" stroke="red" fill-opacity="0.5" d="M127.52687931060791,-192.65973567962646" />
<path stroke-width="0.5" fill="none" stroke="red" fill-opacity="0.5" d="M127.47623920440674,-192.73018836975098" />
<path stroke-width="0.5" fill="none" stroke="red" fill-opacity="0.5" d="M127.19695568084717,-192.7694797515869" />
<path stroke-width="0.5" fill="none" stroke="red" fill-opacity="0.5" d="M126.93643569946289,-193.09959411621094" />
<path stroke-width="0.5" fill="none" stroke="red" fill-opacity="0.5" d="M126.74322128295898,-193.80881786346436" />
<path stroke-width="0.5" fill="none" stroke="red" fill-opacity="0.5" d="M126.53028964996338,-194.42427158355713" />
<path stroke-width="0.5" fill="none" stroke="red" fill-opacity="0.5" d="M126.44853591918945,-194.57902908325195" />
<path stroke-width="0.5" fill="none" stroke="red" fill-opacity="0.5" d="M126.54364109039307,-194.36559677124023" />
<path stroke-width="0.5" fill="none" stroke="red" fill-opacity="0.5" d="M127.5958776473999,-192.42582321166992" />
<path stroke-width="0.5" fill="none" stroke="red" fill-opacity="0.5" d="M128.56924533843994,-185.59775352478027" />
<path stroke-width="0.5" fill="none" stroke="red" fill-opacity="0.5" d="M128.578519821167,-176.8040657043457" />
<path stroke-width="0.5" fill="none" stroke="red" fill-opacity="0.5" d="M127.92904376983643,-168.90981197357178" />
<path stroke-width="0.5" fill="none" stroke="red" fill-opacity="0.5" d="M125.07119178771973,-163.02716732025146" />
<path stroke-width="0.5" fill="none" stroke="red" fill-opacity="0.5" d="M118.60547065734863,-161.34347915649414" />
<path stroke-width="0.5" fill="none" stroke="red" fill-opacity="0.5" d="M112.71252632141113,-161.49275302886963" />
<path stroke-width="0.5" fill="none" stroke="red" fill-opacity="0.5" d="M107.07509517669678,-164.55519199371338" />
<path stroke-width="0.5" fill="none" stroke="red" fill-opacity="0.5" d="M103.87401580810547,-171.06280326843262" />
<path stroke-width="0.5" fill="none" stroke="red" fill-opacity="0.5" d="M101.84943675994873,-181.12807273864746" />
<path stroke-width="0.5" fill="none" stroke="red" fill-opacity="0.5" d="M100.96588134765625,-191.39916896820068" />
<path stroke-width="0.5" fill="none" stroke="red" fill-opacity="0.5" d="M100.96554756164551,-198.55093955993652" />
<path stroke-width="0.5" fill="none" stroke="red" fill-opacity="0.5" d="M101.57003402709961,-204.1238307952881" />
<path stroke-width="0.5" fill="none" stroke="red" fill-opacity="0.5" d="M105.20474910736084,-206.63433074951172" />
<path stroke-width="0.5" fill="none" stroke="red" fill-opacity="0.5" d="M112.62285709381104,-208.2369327545166" />
<path stroke-width="0.5" fill="none" stroke="red" fill-opacity="0.5" d="M117.96667575836182,-209.0153694152832" />
<path stroke-width="0.5" fill="none" stroke="red" fill-opacity="0.5" d="M120.78962326049805,-209.60383415222168" />
<path stroke-width="0.5" fill="none" stroke="red" fill-opacity="0.5" d="M122.51999378204346,-210.0719451904297" />
<path stroke-width="0.5" fill="none" stroke="red" fill-opacity="0.5" d="M123.69599342346191,-210.45379638671875" />
<path stroke-width="0.5" fill="none" stroke="red" fill-opacity="0.5" d="M127.72536277770996,-209.84783172607422" />
<path stroke-width="0.5" fill="none" stroke="red" fill-opacity="0.5" d="M132.0192813873291,-207.1566104888916" />
<path stroke-width="0.5" fill="none" stroke="red" fill-opacity="0.5" d="M132.5035810470581,-205.46884536743164" />
<path stroke-width="0.5" fill="none" stroke="red" fill-opacity="0.5" d="M131.4450740814209,-203.9173126220703" />
<path stroke-width="0.5" fill="none" stroke="red" fill-opacity="0.5" d="M128.3867359161377,-202.59642601013184" />
<path stroke-width="0.5" fill="none" stroke="red" fill-opacity="0.5" d="M125.83048343658447,-200.07247924804688" />
<path stroke-width="0.5" fill="none" stroke="red" fill-opacity="0.5" d="M119.98960971832275,-199.7758388519287" />
<path stroke-width="0.5" fill="none" stroke="red" fill-opacity="0.5" d="M114.91687297821045,-197.7628469467163" />
<path stroke-width="0.5" fill="none" stroke="red" fill-opacity="0.5" d="M112.58983612060547,-194.5246696472168" />
<path stroke-width="0.5" fill="none" stroke="red" fill-opacity="0.5" d="M112.11836338043213,-190.53971767425537" />
<path stroke-width="0.5" fill="none" stroke="red" fill-opacity="0.5" d="M112.2349500656128,-185.80539226531982" />
<path stroke-width="0.5" fill="none" stroke="red" fill-opacity="0.5" d="M113.24596405029297,-181.0025453567505" />
<path stroke-width="0.5" fill="none" stroke="red" fill-opacity="0.5" d="M116.50176048278809,-176.49216651916504" />
<path stroke-width="0.5" fill="none" stroke="red" fill-opacity="0.5" d="M120.66080570220947,-173.4516143798828" />
<path stroke-width="0.5" fill="none" stroke="red" fill-opacity="0.5" d="M126.81610584259033,-170.7101821899414" />
<path stroke-width="0.5" fill="none" stroke="red" fill-opacity="0.5" d="M134.08820629119873,-169.28555965423584" />
<path stroke-width="0.5" fill="none" stroke="red" fill-opacity="0.5" d="M137.34145164489746,-168.59796047210693" />
<path stroke-width="0.5" fill="none" stroke="red" fill-opacity="0.5" d="M141.34130477905273,-169.00665760040283" />
<path stroke-width="0.5" fill="none" stroke="red" fill-opacity="0.5" d="M144.8190450668335,-170.06170749664307" />
<path stroke-width="0.5" fill="none" stroke="red" fill-opacity="0.5" d="M146.89767360687256,-170.88549137115479" />
<path stroke-width="0.5" fill="none" stroke="red" fill-opacity="0.5" d="M148.2621669769287,-171.5167760848999" />
<path stroke-width="0.5" fill="none" stroke="red" fill-opacity="0.5" d="M149.22971725463867,-172.01550006866455" />
<path stroke-width="0.5" fill="none" stroke="red" fill-opacity="0.5" d="M148.97637367248535,-183.5479736328125" />
<path stroke-width="0.5" fill="none" stroke="black" fill-opacity="0.5" d="M127.50039100646973,-192.84801483154297 L127.52687931060791,-192.65973567962646 L127.47623920440674,-192.73018836975098 L127.19695568084717,-192.7694797515869 L126.93643569946289,-193.09959411621094 L126.74322128295898,-193.80881786346436 L126.53028964996338,-194.42427158355713 L126.44853591918945,-194.57902908325195 L126.54364109039307,-194.36559677124023 L127.5958776473999,-192.42582321166992 L128.56924533843994,-185.59775352478027 L128.578519821167,-176.8040657043457 L127.92904376983643,-168.90981197357178 L125.07119178771973,-163.02716732025146 L118.60547065734863,-161.34347915649414 L112.71252632141113,-161.49275302886963 L107.07509517669678,-164.55519199371338 L103.87401580810547,-171.06280326843262 L101.84943675994873,-181.12807273864746 L100.96588134765625,-191.39916896820068 L100.96554756164551,-198.55093955993652 L101.57003402709961,-204.1238307952881 L105.20474910736084,-206.63433074951172 L112.62285709381104,-208.2369327545166 L117.96667575836182,-209.0153694152832 L120.78962326049805,-209.60383415222168 L122.51999378204346,-210.0719451904297 L123.69599342346191,-210.45379638671875 L127.72536277770996,-209.84783172607422 L132.0192813873291,-207.1566104888916 L132.5035810470581,-205.46884536743164 L131.4450740814209,-203.9173126220703 L128.3867359161377,-202.59642601013184 L125.83048343658447,-200.07247924804688 L119.98960971832275,-199.7758388519287 L114.91687297821045,-197.7628469467163 L112.58983612060547,-194.5246696472168 L112.11836338043213,-190.53971767425537 L112.2349500656128,-185.80539226531982 L113.24596405029297,-181.0025453567505 L116.50176048278809,-176.49216651916504 L120.66080570220947,-173.4516143798828 L126.81610584259033,-170.7101821899414 L134.08820629119873,-169.28555965423584 L137.34145164489746,-168.59796047210693 L141.34130477905273,-169.00665760040283 L144.8190450668335,-170.06170749664307 L146.89767360687256,-170.88549137115479 L148.2621669769287,-171.5167760848999 L149.22971725463867,-172.01550006866455 L148.97637367248535,-183.5479736328125" />
</svg>