<?xml version="1.0" encoding="UTF-8"?>
<svg xmlns="http://www.w3.org/2000/svg" xmlns:xlink="http://www.w3.org/1999/xlink"
     width="600" height="600" viewBox="0 -300 300 300">
<defs>
</defs>
<path stroke-width="0.5" fill="none" stroke="red" fill-opacity="0.5" d="M115.0003433227539,-199.95999336242676" />
<path stroke-width="0.5" fill="none" stroke="red" fill-opacity="0.5" d="M107.5002908706665,-197.5893497467041" />
<path stroke-width="0.5" fill="none" stroke="red" fill-opacity="0.5" d="M97.50027656555176,-209.44271087646484" />
<path stroke-width="0.5" fill="none" stroke="red" fill-opacity="0.5" d="M90.00024795532227,-209.44271087646484" />
<path stroke-width="0.5" fill="none" stroke="red" fill-opacity="0.5" d="M90.00024795532227,-204.10871505737305" />
<path stroke-width="0.5" fill="none" stroke="red" fill-opacity="0.5" d="M95.0002670288086,-201.73802375793457" />
<path stroke-width="0.5" fill="none" stroke="red" fill-opacity="0.5" d="M95.0002670288086,-202.33068466186523" />
<path stroke-width="0.5" fill="none" stroke="red" fill-opacity="0.5" d="M92.50025749206543,-207.07201957702637" />
<path stroke-width="0.5" fill="none" stroke="red" fill-opacity="0.5" d="M90.00024795532227,-202.33068466186523" />
<path stroke-width="0.5" fill="none" stroke="red" fill-opacity="0.5" d="M85.00022888183594,-197.5893497467041" />
<path stroke-width="0.5" fill="none" stroke="red" fill-opacity="0.5" d="M82.50021934509277,-188.10667991638184" />
<path stroke-width="0.5" fill="none" stroke="red" fill-opacity="0.5" d="M77.50020027160645,-185.73601245880127" />
<path stroke-width="0.5" fill="none" stroke="red" fill-opacity="0.5" d="M72.50018119812012,-180.99467754364014" />
<path stroke-width="0.5" fill="none" stroke="red" fill-opacity="0.5" d="M67.50013828277588,-178.62401008605957" />
<path stroke-width="0.5" fill="none" stroke="red" fill-opacity="0.5" d="M67.50013828277588,-178.62401008605957" />
<path stroke-width="0.5" fill="none" stroke="red" fill-opacity="0.5" d="M65.00012874603271,-176.253342628479" />
<path stroke-width="0.5" fill="none" stroke="red" fill-opacity="0.5" d="M65.00012874603271,-178.62401008605957" />
<path stroke-width="0.5" fill="none" stroke="red" fill-opacity="0.5" d="M65.0001049041748,-183.3653450012207" />
<path stroke-width="0.5" fill="none" stroke="red" fill-opacity="0.5" d="M62.50009536743164,-183.3653450012207" />
<path stroke-width="0.5" fill="none" stroke="red" fill-opacity="0.5" d="M62.50011920928955,-185.73601245880127" />
<path stroke-width="0.5" fill="none" stroke="red" fill-opacity="0.5" d="M62.50011920928955,-188.10667991638184" />
<path stroke-width="0.5" fill="none" stroke="red" fill-opacity="0.5" d="M65.00012874603271,-188.10667991638184" />
<path stroke-width="0.5" fill="none" stroke="red" fill-opacity="0.5" d="M65.0001049041748,-188.10667991638184" />
<path stroke-width="0.5" fill="none" stroke="red" fill-opacity="0.5" d="M62.50009536743164,-192.84801483154297" />
<path stroke-width="0.5" fill="none" stroke="red" fill-opacity="0.5" d="M62.50011920928955,-192.84801483154297" />
<path stroke-width="0.5" fill="none" stroke="red" fill-opacity="0.5" d="M62.50011920928955,-192.84801483154297" />
<path stroke-width="0.5" fill="none" stroke="red" fill-opacity="0.5" d="M62.50011920928955,-192.84801483154297" />
<path stroke-width="0.5" fill="none" stroke="red" fill-opacity="0.5" d="M62.50011920928955,-192.84801483154297" />
<path stroke-width="0.5" fill="none" stroke="red" fill-opacity="0.5" d="M62.50011920928955,-192.84801483154297" />
<path stroke-width="0.5" fill="none" stroke="red" fill-opacity="0.5" d="M62.50011920928955,-192.84801483154297" />
<path stroke-width="0.5" fill="none" stroke="red" fill-opacity="0.5" d="M62.50011920928955,-192.84801483154297" />
<path stroke-width="0.5" fill="none" stroke="red" fill-opacity="0.5" d="M62.50011920928955,-192.84801483154297" />
<path stroke-width="0.5" fill="none" stroke="red" fill-opacity="0.5" d="M115.0003433227539,-199.95999336242676 L107.5002908706665,-197.5893497467041 L97.50027656555176,-209.44271087646484 L90.00024795532227,-209.44271087646484 L90.00024795532227,-204.10871505737305 L95.0002670288086,-201.73802375793457 L95.0002670288086,-202.33068466186523 L92.50025749206543,-207.07201957702637 L90.00024795532227,-202.33068466186523 L85.00022888183594,-197.5893497467041 L82.50021934509277,-188.10667991638184 L77.50020027160645,-185.73601245880127 L72.50018119812012,-180.99467754364014 L67.50013828277588,-178.62401008605957 L67.50013828277588,-178.62401008605957 L65.00012874603271,-176.253342628479 L65.00012874603271,-178.62401008605957 L65.0001049041748,-183.3653450012207 L62.50009536743164,-183.3653450012207 L62.50011920928955,-185.73601245880127 L62.50011920928955,-188.10667991638184 L65.00012874603271,-188.10667991638184 L65.0001049041748,-188.10667991638184 L62.50009536743164,-192.84801483154297 L62.50011920928955,-192.84801483154297 L62.50011920928955,-192.84801483154297 L62.50011920928955,-192.84801483154297 L62.50011920928955,-192.84801483154297 L62.50011920928955,-192.84801483154297 L62.50011920928955,-192.84801483154297 L62.50011920928955,-192.84801483154297 L62.50011920928955,-192.84801483154297" />
<path stroke-width="0.5" fill="none" stroke="red" fill-opacity="0.5" d="M115.0003433227539,-199.95999336242676" />
<path stroke-width="0.5" fill="none" stroke="red" fill-opacity="0.5" d="M109.98356342315674,-202.24056243896484" />
<path stroke-width="0.5" fill="none" stroke="red" fill-opacity="0.5" d="M108.54878425598145,-202.3174285888672" />
<path stroke-width="0.5" fill="none" stroke="red" fill-opacity="0.5" d="M104.29048538208008,-202.891206741333" />
<path stroke-width="0.5" fill="none" stroke="red" fill-opacity="0.5" d="M101.08730792999268,-203.342866897583" />
<path stroke-width="0.5" fill="none" stroke="red" fill-opacity="0.5" d="M99.69375133514404,-203.4034252166748" />
<path stroke-width="0.5" fill="none" stroke="red" fill-opacity="0.5" d="M99.1832971572876,-203.49903106689453" />
<path stroke-width="0.5" fill="none" stroke="red" fill-opacity="0.5" d="M98.74334335327148,-203.56078147888184" />
<path stroke-width="0.5" fill="none" stroke="red" fill-opacity="0.5" d="M97.58341312408447,-203.64751815795898" />
<path stroke-width="0.5" fill="none" stroke="red" fill-opacity="0.5" d="M95.7770824432373,-203.23452949523926" />
<path stroke-width="0.5" fill="none" stroke="red" fill-opacity="0.5" d="M93.71743202209473,-200.1554012298584" />
<path stroke-width="0.5" fill="none" stroke="red" fill-opacity="0.5" d="M89.37427997589111,-197.35429286956787" />
<path stroke-width="0.5" fill="none" stroke="red" fill-opacity="0.5" d="M84.57577228546143,-192.84660816192627" />
<path stroke-width="0.5" fill="none" stroke="red" fill-opacity="0.5" d="M80.50894737243652,-189.19250965118408" />
<path stroke-width="0.5" fill="none" stroke="red" fill-opacity="0.5" d="M77.0681619644165,-186.74852848052979" />
<path stroke-width="0.5" fill="none" stroke="red" fill-opacity="0.5" d="M74.33502674102783,-185.0309133529663" />
<path stroke-width="0.5" fill="none" stroke="red" fill-opacity="0.5" d="M72.75481224060059,-183.94389152526855" />
<path stroke-width="0.5" fill="none" stroke="red" fill-opacity="0.5" d="M71.65687084197998,-183.7460994720459" />
<path stroke-width="0.5" fill="none" stroke="red" fill-opacity="0.5" d="M70.24538516998291,-183.70380401611328" />
<path stroke-width="0.5" fill="none" stroke="red" fill-opacity="0.5" d="M69.45197582244873,-183.75470638275146" />
<path stroke-width="0.5" fill="none" stroke="red" fill-opacity="0.5" d="M68.59841346740723,-184.05003547668457" />
<path stroke-width="0.5" fill="none" stroke="red" fill-opacity="0.5" d="M68.02997589111328,-184.5226764678955" />
<path stroke-width="0.5" fill="none" stroke="red" fill-opacity="0.5" d="M67.61026382446289,-184.92364883422852" />
<path stroke-width="0.5" fill="none" stroke="red" fill-opacity="0.5" d="M67.07761287689209,-185.80479621887207" />
<path stroke-width="0.5" fill="none" stroke="red" fill-opacity="0.5" d="M66.61152839660645,-186.8372917175293" />
<path stroke-width="0.5" fill="none" stroke="red" fill-opacity="0.5" d="M66.32061004638672,-187.6176357269287" />
<path stroke-width="0.5" fill="none" stroke="red" fill-opacity="0.5" d="M65.99068641662598,-188.21887969970703" />
<path stroke-width="0.5" fill="none" stroke="red" fill-opacity="0.5" d="M65.71080684661865,-188.69645595550537" />
<path stroke-width="0.5" fill="none" stroke="red" fill-opacity="0.5" d="M65.47179222106934,-189.08522129058838" />
<path stroke-width="0.5" fill="none" stroke="red" fill-opacity="0.5" d="M65.2653455734253,-189.40799236297607" />
<path stroke-width="0.5" fill="none" stroke="red" fill-opacity="0.5" d="M65.08522033691406,-189.6803617477417" />
<path stroke-width="0.5" fill="none" stroke="red" fill-opacity="0.5" d="M64.9266242980957,-189.91334438323975" />
<path stroke-width="0.5" fill="none" stroke="black" fill-opacity="0.5" d="M115.0003433227539,-199.95999336242676 L109.98356342315674,-202.24056243896484 L108.54878425598145,-202.3174285888672 L104.29048538208008,-202.891206741333 L101.08730792999268,-203.342866897583 L99.69375133514404,-203.4034252166748 L99.1832971572876,-203.49903106689453 L98.74334335327148,-203.56078147888184 L97.58341312408447,-203.64751815795898 L95.7770824432373,-203.23452949523926 L93.71743202209473,-200.1554012298584 L89.37427997589111,-197.35429286956787 L84.57577228546143,-192.84660816192627 L80.50894737243652,-189.19250965118408 L77.0681619644165,-186.74852848052979 L74.33502674102783,-185.0309133529663 L72.75481224060059,-183.94389152526855 L71.65687084197998,-183.7460994720459 L70.24538516998291,-183.70380401611328 L69.45197582244873,-183.75470638275146 L68.59841346740723,-184.05003547668457 L68.02997589111328,-184.5226764678955 L67.61026382446289,-184.92364883422852 L67.07761287689209,-185.80479621887207 L66.61152839660645,-186.8372917175293 L66.32061004638672,-187.6176357269287 L65.99068641662598,-188.21887969970703 L65.71080684661865,-188.69645595550537 L65.47179222106934,-189.08522129058838 L65.2653455734253,-189.40799236297607 L65.08522033691406,-189.6803617477417 L64.9266242980957,-189.91334438323975" />
</svg>