<?xml version="1.0" encoding="UTF-8"?>
<svg xmlns="http://www.w3.org/2000/svg" xmlns:xlink="http://www.w3.org/1999/xlink"
     width="600" height="600" viewBox="0 -300 300 300">
<defs>
</defs>
<path stroke-width="0.5" fill="none" stroke="red" fill-opacity="0.5" d="M85.00020503997803,-176.253342628479" />
<path stroke-width="0.5" fill="none" stroke="red" fill-opacity="0.5" d="M90.00024795532227,-171.51200771331787" />
<path stroke-width="0.5" fill="none" stroke="red" fill-opacity="0.5" d="M90.00024795532227,-173.88267517089844" />
<path stroke-width="0.5" fill="none" stroke="red" fill-opacity="0.5" d="M97.50027656555176,-138.32266330718994" />
<path stroke-width="0.5" fill="none" stroke="red" fill-opacity="0.5" d="M97.50025272369385,-159.65867042541504" />
<path stroke-width="0.5" fill="none" stroke="red" fill-opacity="0.5" d="M97.50025272369385,-176.253342628479" />
<path stroke-width="0.5" fill="none" stroke="red" fill-opacity="0.5" d="M92.50023365020752,-190.4773473739624" />
<path stroke-width="0.5" fill="none" stroke="red" fill-opacity="0.5" d="M90.00022411346436,-197.5893497467041" />
<path stroke-width="0.5" fill="none" stroke="red" fill-opacity="0.5" d="M85.00020503997803,-197.5893497467041" />
<path stroke-width="0.5" fill="none" stroke="red" fill-opacity="0.5" d="M87.50021457672119,-199.95999336242676" />
<path stroke-width="0.5" fill="none" stroke="red" fill-opacity="0.5" d="M87.50019073486328,-202.33068466186523" />
<path stroke-width="0.5" fill="none" stroke="red" fill-opacity="0.5" d="M87.50019073486328,-209.44271087646484" />
<path stroke-width="0.5" fill="none" stroke="red" fill-opacity="0.5" d="M92.50023365020752,-211.22074127197266" />
<path stroke-width="0.5" fill="none" stroke="red" fill-opacity="0.5" d="M100.0002384185791,-211.22074127197266" />
<path stroke-width="0.5" fill="none" stroke="red" fill-opacity="0.5" d="M107.5002908706665,-216.55473709106445" />
<path stroke-width="0.5" fill="none" stroke="red" fill-opacity="0.5" d="M115.000319480896,-218.9253807067871" />
<path stroke-width="0.5" fill="none" stroke="red" fill-opacity="0.5" d="M115.000319480896,-218.9253807067871" />
<path stroke-width="0.5" fill="none" stroke="red" fill-opacity="0.5" d="M115.000319480896,-218.9253807067871" />
<path stroke-width="0.5" fill="none" stroke="red" fill-opacity="0.5" d="M115.000319480896,-218.9253807067871" />
<path stroke-width="0.5" fill="none" stroke="red" fill-opacity="0.5" d="M115.000319480896,-218.9253807067871" />
<path stroke-width="0.5" fill="none" stroke="red" fill-opacity="0.5" d="M115.000319480896,-218.9253807067871" />
<path stroke-width="0.5" fill="none" stroke="red" fill-opacity="0.5" d="M115.000319480896,-218.9253807067871" />
<path stroke-width="0.5" fill="none" stroke="red" fill-opacity="0.5" d="M115.000319480896,-218.9253807067871" />
<path stroke-width="0.5" fill="none" stroke="red" fill-opacity="0.5" d="M85.00020503997803,-176.253342628479 L90.00024795532227,-171.51200771331787 L90.00024795532227,-173.88267517089844 L97.50027656555176,-138.32266330718994 L97.50025272369385,-159.65867042541504 L97.50025272369385,-176.253342628479 L92.50023365020752,-190.4773473739624 L90.00022411346436,-197.5893497467041 L85.00020503997803,-197.5893497467041 L87.50021457672119,-199.95999336242676 L87.50019073486328,-202.33068466186523 L87.50019073486328,-209.44271087646484 L92.50023365020752,-211.22074127197266 L100.0002384185791,-211.22074127197266 L107.5002908706665,-216.55473709106445 L115.000319480896,-218.9253807067871 L115.000319480896,-218.9253807067871 L115.000319480896,-218.9253807067871 L115.000319480896,-218.9253807067871 L115.000319480896,-218.9253807067871 L115.000319480896,-218.9253807067871 L115.000319480896,-218.9253807067871 L115.000319480896,-218.9253807067871" />
<path stroke-width="0.5" fill="none" stroke="red" fill-opacity="0.5" d="M85.00020503997803,-176.253342628479" />
<path stroke-width="0.5" fill="none" stroke="red" fill-opacity="0.5" d="M85.16683578491211,-176.1864185333252" />
<path stroke-width="0.5" fill="none" stroke="red" fill-opacity="0.5" d="M85.60593128204346,-176.10177993774414" />
<path stroke-width="0.5" fill="none" stroke="red" fill-opacity="0.5" d="M86.43782138824463,-172.3074436187744" />
<path stroke-width="0.5" fill="none" stroke="red" fill-opacity="0.5" d="M89.16611671447754,-164.3080711364746" />
<path stroke-width="0.5" fill="none" stroke="red" fill-opacity="0.5" d="M90.46857357025146,-165.17560482025146" />
<path stroke-width="0.5" fill="none" stroke="red" fill-opacity="0.5" d="M90.92764854431152,-171.14720344543457" />
<path stroke-width="0.5" fill="none" stroke="red" fill-opacity="0.5" d="M91.01088047027588,-178.76780033111572" />
<path stroke-width="0.5" fill="none" stroke="red" fill-opacity="0.5" d="M90.78834056854248,-184.5628023147583" />
<path stroke-width="0.5" fill="none" stroke="red" fill-opacity="0.5" d="M90.20838737487793,-187.91310787200928" />
<path stroke-width="0.5" fill="none" stroke="red" fill-opacity="0.5" d="M89.92464542388916,-191.33918285369873" />
<path stroke-width="0.5" fill="none" stroke="red" fill-opacity="0.5" d="M89.82632160186768,-195.53418159484863" />
<path stroke-width="0.5" fill="none" stroke="red" fill-opacity="0.5" d="M89.84401226043701,-200.71959495544434" />
<path stroke-width="0.5" fill="none" stroke="red" fill-opacity="0.5" d="M90.85114002227783,-203.02534103393555" />
<path stroke-width="0.5" fill="none" stroke="red" fill-opacity="0.5" d="M93.13638210296631,-204.34188842773438" />
<path stroke-width="0.5" fill="none" stroke="red" fill-opacity="0.5" d="M99.13322925567627,-206.5260410308838" />
<path stroke-width="0.5" fill="none" stroke="red" fill-opacity="0.5" d="M103.67777347564697,-209.42368507385254" />
<path stroke-width="0.5" fill="none" stroke="red" fill-opacity="0.5" d="M106.20331764221191,-211.25311851501465" />
<path stroke-width="0.5" fill="none" stroke="red" fill-opacity="0.5" d="M107.79261589050293,-212.48574256896973" />
<path stroke-width="0.5" fill="none" stroke="red" fill-opacity="0.5" d="M108.88991355895996,-213.37456703186035" />
<path stroke-width="0.5" fill="none" stroke="red" fill-opacity="0.5" d="M109.69541072845459,-214.04709815979004" />
<path stroke-width="0.5" fill="none" stroke="red" fill-opacity="0.5" d="M110.31293869018555,-214.57438468933105" />
<path stroke-width="0.5" fill="none" stroke="red" fill-opacity="0.5" d="M110.80191135406494,-214.99924659729004" />
<path stroke-width="0.5" fill="none" stroke="black" fill-opacity="0.5" d="M85.00020503997803,-176.253342628479 L85.16683578491211,-176.1864185333252 L85.60593128204346,-176.10177993774414 L86.43782138824463,-172.3074436187744 L89.16611671447754,-164.3080711364746 L90.46857357025146,-165.17560482025146 L90.92764854431152,-171.14720344543457 L91.01088047027588,-178.76780033111572 L90.78834056854248,-184.5628023147583 L90.20838737487793,-187.91310787200928 L89.92464542388916,-191.33918285369873 L89.82632160186768,-195.53418159484863 L89.84401226043701,-200.71959495544434 L90.85114002227783,-203.02534103393555 L93.13638210296631,-204.34188842773438 L99.13322925567627,-206.5260410308838 L103.67777347564697,-209.42368507385254 L106.20331764221191,-211.25311851501465 L107.79261589050293,-212.48574256896973 L108.88991355895996,-213.37456703186035 L109.69541072845459,-214.04709815979004 L110.31293869018555,-214.57438468933105 L110.80191135406494,-214.99924659729004" />
</svg>