<?xml version="1.0" encoding="UTF-8"?>
<svg xmlns="http://www.w3.org/2000/svg" xmlns:xlink="http://www.w3.org/1999/xlink"
     width="600" height="600" viewBox="0 -300 300 300">
<defs>
</defs>
<path stroke-width="0.5" fill="none" stroke="red" fill-opacity="0.5" d="M135.00041961669922,-207.07201957702637" />
<path stroke-width="0.5" fill="none" stroke="red" fill-opacity="0.5" d="M142.5004482269287,-202.33068466186523" />
<path stroke-width="0.5" fill="none" stroke="red" fill-opacity="0.5" d="M140.00043869018555,-199.95999336242676" />
<path stroke-width="0.5" fill="none" stroke="red" fill-opacity="0.5" d="M135.00041961669922,-199.95999336242676" />
<path stroke-width="0.5" fill="none" stroke="red" fill-opacity="0.5" d="M130.0004005432129,-206.4793586730957" />
<path stroke-width="0.5" fill="none" stroke="red" fill-opacity="0.5" d="M130.0004005432129,-199.95999336242676" />
<path stroke-width="0.5" fill="none" stroke="red" fill-opacity="0.5" d="M132.50041007995605,-199.95999336242676" />
<path stroke-width="0.5" fill="none" stroke="red" fill-opacity="0.5" d="M132.50041007995605,-195.21868228912354" />
<path stroke-width="0.5" fill="none" stroke="red" fill-opacity="0.5" d="M130.0004005432129,-192.84801483154297" />
<path stroke-width="0.5" fill="none" stroke="red" fill-opacity="0.5" d="M132.50041007995605,-188.10667991638184" />
<path stroke-width="0.5" fill="none" stroke="red" fill-opacity="0.5" d="M125.00038146972656,-178.62401008605957" />
<path stroke-width="0.5" fill="none" stroke="red" fill-opacity="0.5" d="M120.00036239624023,-180.99467754364014" />
<path stroke-width="0.5" fill="none" stroke="red" fill-opacity="0.5" d="M112.50033378601074,-176.253342628479" />
<path stroke-width="0.5" fill="none" stroke="red" fill-opacity="0.5" d="M107.50031471252441,-180.99467754364014" />
<path stroke-width="0.5" fill="none" stroke="red" fill-opacity="0.5" d="M107.50031471252441,-176.253342628479" />
<path stroke-width="0.5" fill="none" stroke="red" fill-opacity="0.5" d="M115.0003433227539,-173.88267517089844" />
<path stroke-width="0.5" fill="none" stroke="red" fill-opacity="0.5" d="M122.5003719329834,-169.1413402557373" />
<path stroke-width="0.5" fill="none" stroke="red" fill-opacity="0.5" d="M127.50039100646973,-173.88267517089844" />
<path stroke-width="0.5" fill="none" stroke="red" fill-opacity="0.5" d="M132.50041007995605,-173.88267517089844" />
<path stroke-width="0.5" fill="none" stroke="red" fill-opacity="0.5" d="M140.00046253204346,-173.88267517089844" />
<path stroke-width="0.5" fill="none" stroke="red" fill-opacity="0.5" d="M150.0005006790161,-171.51200771331787" />
<path stroke-width="0.5" fill="none" stroke="red" fill-opacity="0.5" d="M155.00049591064453,-171.51200771331787" />
<path stroke-width="0.5" fill="none" stroke="red" fill-opacity="0.5" d="M160.00053882598877,-171.51200771331787" />
<path stroke-width="0.5" fill="none" stroke="red" fill-opacity="0.5" d="M160.00053882598877,-180.99467754364014" />
<path stroke-width="0.5" fill="none" stroke="red" fill-opacity="0.5" d="M167.50056743621826,-190.4773473739624" />
<path stroke-width="0.5" fill="none" stroke="red" fill-opacity="0.5" d="M162.50054836273193,-194.62599754333496" />
<path stroke-width="0.5" fill="none" stroke="red" fill-opacity="0.5" d="M162.50052452087402,-204.7013282775879" />
<path stroke-width="0.5" fill="none" stroke="red" fill-opacity="0.5" d="M162.50052452087402,-209.44271087646484" />
<path stroke-width="0.5" fill="none" stroke="red" fill-opacity="0.5" d="M162.50052452087402,-209.44271087646484" />
<path stroke-width="0.5" fill="none" stroke="red" fill-opacity="0.5" d="M162.50052452087402,-209.44271087646484" />
<path stroke-width="0.5" fill="none" stroke="red" fill-opacity="0.5" d="M162.50052452087402,-209.44271087646484" />
<path stroke-width="0.5" fill="none" stroke="red" fill-opacity="0.5" d="M162.50052452087402,-209.44271087646484" />
<path stroke-width="0.5" fill="none" stroke="red" fill-opacity="0.5" d="M162.50052452087402,-209.44271087646484" />
<path stroke-width="0.5" fill="none" stroke="red" fill-opacity="0.5" d="M162.50052452087402,-209.44271087646484" />
<path stroke-width="0.5" fill="none" stroke="red" fill-opacity="0.5" d="M162.50052452087402,-209.44271087646484" />
<path stroke-width="0.5" fill="none" stroke="red" fill-opacity="0.5" d="M135.00041961669922,-207.07201957702637 L142.5004482269287,-202.33068466186523 L140.00043869018555,-199.95999336242676 L135.00041961669922,-199.95999336242676 L130.0004005432129,-206.4793586730957 L130.0004005432129,-199.95999336242676 L132.50041007995605,-199.95999336242676 L132.50041007995605,-195.21868228912354 L130.0004005432129,-192.84801483154297 L132.50041007995605,-188.10667991638184 L125.00038146972656,-178.62401008605957 L120.00036239624023,-180.99467754364014 L112.50033378601074,-176.253342628479 L107.50031471252441,-180.99467754364014 L107.50031471252441,-176.253342628479 L115.0003433227539,-173.88267517089844 L122.5003719329834,-169.1413402557373 L127.50039100646973,-173.88267517089844 L132.50041007995605,-173.88267517089844 L140.00046253204346,-173.88267517089844 L150.0005006790161,-171.51200771331787 L155.00049591064453,-171.51200771331787 L160.00053882598877,-171.51200771331787 L160.00053882598877,-180.99467754364014 L167.50056743621826,-190.4773473739624 L162.50054836273193,-194.62599754333496 L162.50052452087402,-204.7013282775879 L162.50052452087402,-209.44271087646484 L162.50052452087402,-209.44271087646484 L162.50052452087402,-209.44271087646484 L162.50052452087402,-209.44271087646484 L162.50052452087402,-209.44271087646484 L162.50052452087402,-209.44271087646484 L162.50052452087402,-209.44271087646484 L162.50052452087402,-209.44271087646484" />
<path stroke-width="0.5" fill="none" stroke="red" fill-opacity="0.5" d="M135.00041961669922,-207.07201957702637" />
<path stroke-width="0.5" fill="none" stroke="red" fill-opacity="0.5" d="M135.32629013061523,-206.69889450073242" />
<path stroke-width="0.5" fill="none" stroke="red" fill-opacity="0.5" d="M136.01396083831787,-206.1354160308838" />
<path stroke-width="0.5" fill="none" stroke="red" fill-opacity="0.5" d="M135.9919548034668,-206.02521896362305" />
<path stroke-width="0.5" fill="none" stroke="red" fill-opacity="0.5" d="M135.8628511428833,-205.47385215759277" />
<path stroke-width="0.5" fill="none" stroke="red" fill-opacity="0.5" d="M135.39233207702637,-204.9917221069336" />
<path stroke-width="0.5" fill="none" stroke="red" fill-opacity="0.5" d="M134.83669757843018,-204.48040962219238" />
<path stroke-width="0.5" fill="none" stroke="red" fill-opacity="0.5" d="M134.51240062713623,-204.29887771606445" />
<path stroke-width="0.5" fill="none" stroke="red" fill-opacity="0.5" d="M134.34722423553467,-202.58550643920898" />
<path stroke-width="0.5" fill="none" stroke="red" fill-opacity="0.5" d="M134.31928157806396,-199.7164487838745" />
<path stroke-width="0.5" fill="none" stroke="red" fill-opacity="0.5" d="M133.38143825531006,-194.9308156967163" />
<path stroke-width="0.5" fill="none" stroke="red" fill-opacity="0.5" d="M131.4272165298462,-191.3235902786255" />
<path stroke-width="0.5" fill="none" stroke="red" fill-opacity="0.5" d="M127.87613868713379,-188.42830657958984" />
<path stroke-width="0.5" fill="none" stroke="red" fill-opacity="0.5" d="M122.83463478088379,-186.43369674682617" />
<path stroke-width="0.5" fill="none" stroke="red" fill-opacity="0.5" d="M118.8833236694336,-184.6379280090332" />
<path stroke-width="0.5" fill="none" stroke="red" fill-opacity="0.5" d="M117.6260232925415,-182.5476884841919" />
<path stroke-width="0.5" fill="none" stroke="red" fill-opacity="0.5" d="M117.64485836029053,-180.42194843292236" />
<path stroke-width="0.5" fill="none" stroke="red" fill-opacity="0.5" d="M118.49792003631592,-179.03940677642822" />
<path stroke-width="0.5" fill="none" stroke="red" fill-opacity="0.5" d="M120.8897590637207,-178.44336032867432" />
<path stroke-width="0.5" fill="none" stroke="red" fill-opacity="0.5" d="M125.11370182037354,-177.97863483428955" />
<path stroke-width="0.5" fill="none" stroke="red" fill-opacity="0.5" d="M131.8192958831787,-177.2144317626953" />
<path stroke-width="0.5" fill="none" stroke="red" fill-opacity="0.5" d="M138.40978145599365,-176.5108585357666" />
<path stroke-width="0.5" fill="none" stroke="red" fill-opacity="0.5" d="M144.17147636413574,-176.0488748550415" />
<path stroke-width="0.5" fill="none" stroke="red" fill-opacity="0.5" d="M148.93624782562256,-176.0540246963501" />
<path stroke-width="0.5" fill="none" stroke="red" fill-opacity="0.5" d="M151.78346633911133,-177.66971588134766" />
<path stroke-width="0.5" fill="none" stroke="red" fill-opacity="0.5" d="M154.60543632507324,-181.80508613586426" />
<path stroke-width="0.5" fill="none" stroke="red" fill-opacity="0.5" d="M156.09326362609863,-187.4664306640625" />
<path stroke-width="0.5" fill="none" stroke="red" fill-opacity="0.5" d="M157.00297355651855,-192.2839879989624" />
<path stroke-width="0.5" fill="none" stroke="red" fill-opacity="0.5" d="M157.66444206237793,-196.68776988983154" />
<path stroke-width="0.5" fill="none" stroke="red" fill-opacity="0.5" d="M158.1831932067871,-199.7894525527954" />
<path stroke-width="0.5" fill="none" stroke="red" fill-opacity="0.5" d="M158.60185623168945,-201.67508125305176" />
<path stroke-width="0.5" fill="none" stroke="red" fill-opacity="0.5" d="M158.94708633422852,-202.93655395507812" />
<path stroke-width="0.5" fill="none" stroke="red" fill-opacity="0.5" d="M159.2367172241211,-203.8426399230957" />
<path stroke-width="0.5" fill="none" stroke="red" fill-opacity="0.5" d="M159.48326587677002,-204.52637672424316" />
<path stroke-width="0.5" fill="none" stroke="red" fill-opacity="0.5" d="M159.69574451446533,-205.0614356994629" />
<path stroke-width="0.5" fill="none" stroke="black" fill-opacity="0.5" d="M135.00041961669922,-207.07201957702637 L135.32629013061523,-206.69889450073242 L136.01396083831787,-206.1354160308838 L135.9919548034668,-206.02521896362305 L135.8628511428833,-205.47385215759277 L135.39233207702637,-204.9917221069336 L134.83669757843018,-204.48040962219238 L134.51240062713623,-204.29887771606445 L134.34722423553467,-202.58550643920898 L134.31928157806396,-199.7164487838745 L133.38143825531006,-194.9308156967163 L131.4272165298462,-191.3235902786255 L127.87613868713379,-188.42830657958984 L122.83463478088379,-186.43369674682617 L118.8833236694336,-184.6379280090332 L117.6260232925415,-182.5476884841919 L117.64485836029053,-180.42194843292236 L118.49792003631592,-179.03940677642822 L120.8897590637207,-178.44336032867432 L125.11370182037354,-177.97863483428955 L131.8192958831787,-177.2144317626953 L138.40978145599365,-176.5108585357666 L144.17147636413574,-176.0488748550415 L148.93624782562256,-176.0540246963501 L151.78346633911133,-177.66971588134766 L154.60543632507324,-181.80508613586426 L156.09326362609863,-187.4664306640625 L157.00297355651855,-192.2839879989624 L157.66444206237793,-196.68776988983154 L158.1831932067871,-199.7894525527954 L158.60185623168945,-201.67508125305176 L158.94708633422852,-202.93655395507812 L159.2367172241211,-203.8426399230957 L159.48326587677002,-204.52637672424316 L159.69574451446533,-205.0614356994629" />
</svg>