<?xml version="1.0" encoding="UTF-8"?>
<svg xmlns="http://www.w3.org/2000/svg" xmlns:xlink="http://www.w3.org/1999/xlink"
     width="600" height="600" viewBox="0 -300 300 300">
<defs>
</defs>
<path stroke-width="0.5" fill="none" stroke="red" fill-opacity="0.5" d="M102.50027179718018,-204.7013282775879" />
<path stroke-width="0.5" fill="none" stroke="red" fill-opacity="0.5" d="M102.50029563903809,-204.7013282775879" />
<path stroke-width="0.5" fill="none" stroke="red" fill-opacity="0.5" d="M107.50031471252441,-199.367356300354" />
<path stroke-width="0.5" fill="none" stroke="red" fill-opacity="0.5" d="M102.50029563903809,-207.07201957702637" />
<path stroke-width="0.5" fill="none" stroke="red" fill-opacity="0.5" d="M102.50029563903809,-209.44271087646484" />
<path stroke-width="0.5" fill="none" stroke="red" fill-opacity="0.5" d="M107.50031471252441,-209.44271087646484" />
<path stroke-width="0.5" fill="none" stroke="red" fill-opacity="0.5" d="M112.50033378601074,-209.44271087646484" />
<path stroke-width="0.5" fill="none" stroke="red" fill-opacity="0.5" d="M115.000319480896,-208.85004997253418" />
<path stroke-width="0.5" fill="none" stroke="red" fill-opacity="0.5" d="M120.00033855438232,-208.85004997253418" />
<path stroke-width="0.5" fill="none" stroke="red" fill-opacity="0.5" d="M127.50036716461182,-202.33068466186523" />
<path stroke-width="0.5" fill="none" stroke="red" fill-opacity="0.5" d="M125.00038146972656,-207.07201957702637" />
<path stroke-width="0.5" fill="none" stroke="red" fill-opacity="0.5" d="M130.00037670135498,-202.33068466186523" />
<path stroke-width="0.5" fill="none" stroke="red" fill-opacity="0.5" d="M142.5004243850708,-209.44271087646484" />
<path stroke-width="0.5" fill="none" stroke="red" fill-opacity="0.5" d="M142.5004243850708,-209.44271087646484" />
<path stroke-width="0.5" fill="none" stroke="red" fill-opacity="0.5" d="M142.5004243850708,-209.44271087646484" />
<path stroke-width="0.5" fill="none" stroke="red" fill-opacity="0.5" d="M142.5004243850708,-209.44271087646484" />
<path stroke-width="0.5" fill="none" stroke="red" fill-opacity="0.5" d="M142.5004243850708,-209.44271087646484" />
<path stroke-width="0.5" fill="none" stroke="red" fill-opacity="0.5" d="M142.5004243850708,-209.44271087646484" />
<path stroke-width="0.5" fill="none" stroke="red" fill-opacity="0.5" d="M142.5004243850708,-209.44271087646484" />
<path stroke-width="0.5" fill="none" stroke="red" fill-opacity="0.5" d="M142.5004243850708,-209.44271087646484" />
<path stroke-width="0.5" fill="none" stroke="red" fill-opacity="0.5" d="M102.50027179718018,-204.7013282775879 L102.50029563903809,-204.7013282775879 L107.50031471252441,-199.367356300354 L102.50029563903809,-207.07201957702637 L102.50029563903809,-209.44271087646484 L107.50031471252441,-209.44271087646484 L112.50033378601074,-209.44271087646484 L115.000319480896,-208.85004997253418 L120.00033855438232,-208.85004997253418 L127.50036716461182,-202.33068466186523 L125.00038146972656,-207.07201957702637 L130.00037670135498,-202.33068466186523 L142.5004243850708,-209.44271087646484 L142.5004243850708,-209.44271087646484 L142.5004243850708,-209.44271087646484 L142.5004243850708,-209.44271087646484 L142.5004243850708,-209.44271087646484 L142.5004243850708,-209.44271087646484 L142.5004243850708,-209.44271087646484 L142.5004243850708,-209.44271087646484" />
<path stroke-width="0.5" fill="none" stroke="red" fill-opacity="0.5" d="M102.50027179718018,-204.7013282775879" />
<path stroke-width="0.5" fill="none" stroke="red" fill-opacity="0.5" d="M102.52149105072021,-204.673433303833" />
<path stroke-width="0.5" fill="none" stroke="red" fill-opacity="0.5" d="M102.67002582550049,-204.51011657714844" />
<path stroke-width="0.5" fill="none" stroke="red" fill-opacity="0.5" d="M102.74827480316162,-204.59489822387695" />
<path stroke-width="0.5" fill="none" stroke="red" fill-opacity="0.5" d="M102.74639129638672,-204.8853874206543" />
<path stroke-width="0.5" fill="none" stroke="red" fill-opacity="0.5" d="M102.80518531799316,-205.3391933441162" />
<path stroke-width="0.5" fill="none" stroke="red" fill-opacity="0.5" d="M103.62155437469482,-205.66773414611816" />
<path stroke-width="0.5" fill="none" stroke="red" fill-opacity="0.5" d="M105.42886257171631,-206.1622142791748" />
<path stroke-width="0.5" fill="none" stroke="red" fill-opacity="0.5" d="M107.69009590148926,-206.18972778320312" />
<path stroke-width="0.5" fill="none" stroke="red" fill-opacity="0.5" d="M111.66458129882812,-206.05802536010742" />
<path stroke-width="0.5" fill="none" stroke="red" fill-opacity="0.5" d="M115.16907215118408,-206.23831748962402" />
<path stroke-width="0.5" fill="none" stroke="red" fill-opacity="0.5" d="M117.75796413421631,-206.18796348571777" />
<path stroke-width="0.5" fill="none" stroke="red" fill-opacity="0.5" d="M122.79243469238281,-206.03013038635254" />
<path stroke-width="0.5" fill="none" stroke="red" fill-opacity="0.5" d="M129.2607545852661,-206.26468658447266" />
<path stroke-width="0.5" fill="none" stroke="red" fill-opacity="0.5" d="M132.6108694076538,-206.49795532226562" />
<path stroke-width="0.5" fill="none" stroke="red" fill-opacity="0.5" d="M134.58356857299805,-206.70084953308105" />
<path stroke-width="0.5" fill="none" stroke="red" fill-opacity="0.5" d="M135.890531539917,-206.87813758850098" />
<path stroke-width="0.5" fill="none" stroke="red" fill-opacity="0.5" d="M136.8238925933838,-207.03434944152832" />
<path stroke-width="0.5" fill="none" stroke="red" fill-opacity="0.5" d="M137.5253438949585,-207.17310905456543" />
<path stroke-width="0.5" fill="none" stroke="red" fill-opacity="0.5" d="M138.0725622177124,-207.29713439941406" />
<path stroke-width="0.5" fill="none" stroke="black" fill-opacity="0.5" d="M102.50027179718018,-204.7013282775879 L102.52149105072021,-204.673433303833 L102.67002582550049,-204.51011657714844 L102.74827480316162,-204.59489822387695 L102.74639129638672,-204.8853874206543 L102.80518531799316,-205.3391933441162 L103.62155437469482,-205.66773414611816 L105.42886257171631,-206.1622142791748 L107.69009590148926,-206.18972778320312 L111.66458129882812,-206.05802536010742 L115.16907215118408,-206.23831748962402 L117.75796413421631,-206.18796348571777 L122.79243469238281,-206.03013038635254 L129.2607545852661,-206.26468658447266 L132.6108694076538,-206.49795532226562 L134.58356857299805,-206.70084953308105 L135.890531539917,-206.87813758850098 L136.8238925933838,-207.03434944152832 L137.5253438949585,-207.17310905456543 L138.0725622177124,-207.29713439941406" />
</svg>