<?xml version="1.0" encoding="UTF-8"?>
<svg xmlns="http://www.w3.org/2000/svg" xmlns:xlink="http://www.w3.org/1999/xlink"
     width="600" height="600" viewBox="0 -300 300 300">
<defs>
</defs>
<path stroke-width="0.5" fill="none" stroke="red" fill-opacity="0.5" d="M97.50027656555176,-176.253342628479" />
<path stroke-width="0.5" fill="none" stroke="red" fill-opacity="0.5" d="M100.00026226043701,-178.62401008605957" />
<path stroke-width="0.5" fill="none" stroke="red" fill-opacity="0.5" d="M105.00030517578125,-178.62401008605957" />
<path stroke-width="0.5" fill="none" stroke="red" fill-opacity="0.5" d="M107.50031471252441,-173.88267517089844" />
<path stroke-width="0.5" fill="none" stroke="red" fill-opacity="0.5" d="M117.50035285949707,-183.3653450012207" />
<path stroke-width="0.5" fill="none" stroke="red" fill-opacity="0.5" d="M117.50035285949707,-190.4773473739624" />
<path stroke-width="0.5" fill="none" stroke="red" fill-opacity="0.5" d="M122.5003719329834,-185.73601245880127" />
<path stroke-width="0.5" fill="none" stroke="red" fill-opacity="0.5" d="M112.50035762786865,-197.5893497467041" />
<path stroke-width="0.5" fill="none" stroke="red" fill-opacity="0.5" d="M110.00032424926758,-199.95999336242676" />
<path stroke-width="0.5" fill="none" stroke="red" fill-opacity="0.5" d="M122.5003719329834,-197.5893497467041" />
<path stroke-width="0.5" fill="none" stroke="red" fill-opacity="0.5" d="M120.00036239624023,-202.33068466186523" />
<path stroke-width="0.5" fill="none" stroke="red" fill-opacity="0.5" d="M120.00036239624023,-202.33068466186523" />
<path stroke-width="0.5" fill="none" stroke="red" fill-opacity="0.5" d="M120.00036239624023,-202.33068466186523" />
<path stroke-width="0.5" fill="none" stroke="red" fill-opacity="0.5" d="M120.00036239624023,-202.33068466186523" />
<path stroke-width="0.5" fill="none" stroke="red" fill-opacity="0.5" d="M137.50040531158447,-214.18404579162598" />
<path stroke-width="0.5" fill="none" stroke="red" fill-opacity="0.5" d="M137.50040531158447,-214.18404579162598" />
<path stroke-width="0.5" fill="none" stroke="red" fill-opacity="0.5" d="M137.50040531158447,-214.18404579162598" />
<path stroke-width="0.5" fill="none" stroke="red" fill-opacity="0.5" d="M137.50040531158447,-214.18404579162598" />
<path stroke-width="0.5" fill="none" stroke="red" fill-opacity="0.5" d="M137.50040531158447,-214.18404579162598" />
<path stroke-width="0.5" fill="none" stroke="red" fill-opacity="0.5" d="M137.50040531158447,-214.18404579162598" />
<path stroke-width="0.5" fill="none" stroke="red" fill-opacity="0.5" d="M155.00051975250244,-178.62401008605957" />
<path stroke-width="0.5" fill="none" stroke="red" fill-opacity="0.5" d="M152.50051021575928,-183.3653450012207" />
<path stroke-width="0.5" fill="none" stroke="red" fill-opacity="0.5" d="M97.50027656555176,-176.253342628479 L100.00026226043701,-178.62401008605957 L105.00030517578125,-178.62401008605957 L107.50031471252441,-173.88267517089844 L117.50035285949707,-183.3653450012207 L117.50035285949707,-190.4773473739624 L122.5003719329834,-185.73601245880127 L112.50035762786865,-197.5893497467041 L110.00032424926758,-199.95999336242676 L122.5003719329834,-197.5893497467041 L120.00036239624023,-202.33068466186523 L120.00036239624023,-202.33068466186523 L120.00036239624023,-202.33068466186523 L120.00036239624023,-202.33068466186523 L137.50040531158447,-214.18404579162598 L137.50040531158447,-214.18404579162598 L137.50040531158447,-214.18404579162598 L137.50040531158447,-214.18404579162598 L137.50040531158447,-214.18404579162598 L137.50040531158447,-214.18404579162598 L155.00051975250244,-178.62401008605957 L152.50051021575928,-183.3653450012207" />
<path stroke-width="0.5" fill="none" stroke="red" fill-opacity="0.5" d="M97.50027656555176,-176.253342628479" />
<path stroke-width="0.5" fill="none" stroke="red" fill-opacity="0.5" d="M97.29869365692139,-176.33910179138184" />
<path stroke-width="0.5" fill="none" stroke="red" fill-opacity="0.5" d="M97.49090671539307,-176.2706995010376" />
<path stroke-width="0.5" fill="none" stroke="red" fill-opacity="0.5" d="M106.81638717651367,-172.75660037994385" />
<path stroke-width="0.5" fill="none" stroke="red" fill-opacity="0.5" d="M107.93278217315674,-173.8917589187622" />
<path stroke-width="0.5" fill="none" stroke="red" fill-opacity="0.5" d="M109.47637557983398,-177.07936763763428" />
<path stroke-width="0.5" fill="none" stroke="red" fill-opacity="0.5" d="M111.875319480896,-178.71341705322266" />
<path stroke-width="0.5" fill="none" stroke="red" fill-opacity="0.5" d="M113.22054862976074,-181.68129920959473" />
<path stroke-width="0.5" fill="none" stroke="red" fill-opacity="0.5" d="M113.1770133972168,-186.52606010437012" />
<path stroke-width="0.5" fill="none" stroke="red" fill-opacity="0.5" d="M115.22624492645264,-188.92457485198975" />
<path stroke-width="0.5" fill="none" stroke="red" fill-opacity="0.5" d="M115.74485301971436,-191.40846729278564" />
<path stroke-width="0.5" fill="none" stroke="red" fill-opacity="0.5" d="M116.16523265838623,-193.71435642242432" />
<path stroke-width="0.5" fill="none" stroke="red" fill-opacity="0.5" d="M116.50032997131348,-195.24142742156982" />
<path stroke-width="0.5" fill="none" stroke="red" fill-opacity="0.5" d="M116.78178310394287,-196.30520343780518" />
<path stroke-width="0.5" fill="none" stroke="red" fill-opacity="0.5" d="M120.3627347946167,-198.91414642333984" />
<path stroke-width="0.5" fill="none" stroke="red" fill-opacity="0.5" d="M125.46865940093994,-203.05604934692383" />
<path stroke-width="0.5" fill="none" stroke="red" fill-opacity="0.5" d="M128.28619480133057,-205.49860000610352" />
<path stroke-width="0.5" fill="none" stroke="red" fill-opacity="0.5" d="M130.0175905227661,-207.05060958862305" />
<path stroke-width="0.5" fill="none" stroke="red" fill-opacity="0.5" d="M131.19428157806396,-208.12687873840332" />
<path stroke-width="0.5" fill="none" stroke="red" fill-opacity="0.5" d="M132.0488691329956,-208.91928672790527" />
<path stroke-width="0.5" fill="none" stroke="red" fill-opacity="0.5" d="M136.96460723876953,-202.44159698486328" />
<path stroke-width="0.5" fill="none" stroke="red" fill-opacity="0.5" d="M141.57729148864746,-196.03290557861328" />
<path stroke-width="0.5" fill="none" stroke="black" fill-opacity="0.5" d="M97.50027656555176,-176.253342628479 L97.29869365692139,-176.33910179138184 L97.49090671539307,-176.2706995010376 L106.81638717651367,-172.75660037994385 L107.93278217315674,-173.8917589187622 L109.47637557983398,-177.07936763763428 L111.875319480896,-178.71341705322266 L113.22054862976074,-181.68129920959473 L113.1770133972168,-186.52606010437012 L115.22624492645264,-188.92457485198975 L115.74485301971436,-191.40846729278564 L116.16523265838623,-193.71435642242432 L116.50032997131348,-195.24142742156982 L116.78178310394287,-196.30520343780518 L120.3627347946167,-198.91414642333984 L125.46865940093994,-203.05604934692383 L128.28619480133057,-205.49860000610352 L130.0175905227661,-207.05060958862305 L131.19428157806396,-208.12687873840332 L132.0488691329956,-208.91928672790527 L136.96460723876953,-202.44159698486328 L141.57729148864746,-196.03290557861328" />
</svg>