<?xml version="1.0" encoding="UTF-8"?>
<svg xmlns="http://www.w3.org/2000/svg" xmlns:xlink="http://www.w3.org/1999/xlink"
     width="600" height="600" viewBox="0 -300 300 300">
<defs>
</defs>
<path stroke-width="0.5" fill="none" stroke="red" fill-opacity="0.5" d="M135.0003957748413,-209.44271087646484" />
<path stroke-width="0.5" fill="none" stroke="red" fill-opacity="0.5" d="M137.50042915344238,-197.5893497467041" />
<path stroke-width="0.5" fill="none" stroke="red" fill-opacity="0.5" d="M145.00045776367188,-197.5893497467041" />
<path stroke-width="0.5" fill="none" stroke="red" fill-opacity="0.5" d="M145.00045776367188,-207.07201957702637" />
<path stroke-width="0.5" fill="none" stroke="red" fill-opacity="0.5" d="M150.0004768371582,-192.84801483154297" />
<path stroke-width="0.5" fill="none" stroke="red" fill-opacity="0.5" d="M157.5005292892456,-192.84801483154297" />
<path stroke-width="0.5" fill="none" stroke="red" fill-opacity="0.5" d="M155.00051975250244,-190.4773473739624" />
<path stroke-width="0.5" fill="none" stroke="red" fill-opacity="0.5" d="M150.0005006790161,-196.99666500091553" />
<path stroke-width="0.5" fill="none" stroke="red" fill-opacity="0.5" d="M150.0005006790161,-190.4773473739624" />
<path stroke-width="0.5" fill="none" stroke="red" fill-opacity="0.5" d="M140.00046253204346,-190.4773473739624" />
<path stroke-width="0.5" fill="none" stroke="red" fill-opacity="0.5" d="M127.50041484832764,-199.95999336242676" />
<path stroke-width="0.5" fill="none" stroke="red" fill-opacity="0.5" d="M120.00038623809814,-197.5893497467041" />
<path stroke-width="0.5" fill="none" stroke="red" fill-opacity="0.5" d="M117.50035285949707,-185.73601245880127" />
<path stroke-width="0.5" fill="none" stroke="red" fill-opacity="0.5" d="M115.0003433227539,-176.253342628479" />
<path stroke-width="0.5" fill="none" stroke="red" fill-opacity="0.5" d="M105.00030517578125,-166.77067279815674" />
<path stroke-width="0.5" fill="none" stroke="red" fill-opacity="0.5" d="M102.50027179718018,-157.28800296783447" />
<path stroke-width="0.5" fill="none" stroke="red" fill-opacity="0.5" d="M92.50025749206543,-157.28800296783447" />
<path stroke-width="0.5" fill="none" stroke="red" fill-opacity="0.5" d="M85.00022888183594,-162.0293378829956" />
<path stroke-width="0.5" fill="none" stroke="red" fill-opacity="0.5" d="M80.00020980834961,-169.1413402557373" />
<path stroke-width="0.5" fill="none" stroke="red" fill-opacity="0.5" d="M75.00016689300537,-176.253342628479" />
<path stroke-width="0.5" fill="none" stroke="red" fill-opacity="0.5" d="M75.00016689300537,-183.3653450012207" />
<path stroke-width="0.5" fill="none" stroke="red" fill-opacity="0.5" d="M77.50020027160645,-185.73601245880127" />
<path stroke-width="0.5" fill="none" stroke="red" fill-opacity="0.5" d="M80.0001859664917,-190.4773473739624" />
<path stroke-width="0.5" fill="none" stroke="red" fill-opacity="0.5" d="M75.00016689300537,-195.21868228912354" />
<path stroke-width="0.5" fill="none" stroke="red" fill-opacity="0.5" d="M72.5001335144043,-195.21868228912354" />
<path stroke-width="0.5" fill="none" stroke="red" fill-opacity="0.5" d="M70.00014781951904,-190.4773473739624" />
<path stroke-width="0.5" fill="none" stroke="red" fill-opacity="0.5" d="M62.50011920928955,-188.10667991638184" />
<path stroke-width="0.5" fill="none" stroke="red" fill-opacity="0.5" d="M75.00016689300537,-183.3653450012207" />
<path stroke-width="0.5" fill="none" stroke="red" fill-opacity="0.5" d="M77.50020027160645,-188.10667991638184" />
<path stroke-width="0.5" fill="none" stroke="red" fill-opacity="0.5" d="M85.00022888183594,-195.21868228912354" />
<path stroke-width="0.5" fill="none" stroke="red" fill-opacity="0.5" d="M92.50025749206543,-201.73802375793457" />
<path stroke-width="0.5" fill="none" stroke="red" fill-opacity="0.5" d="M92.50023365020752,-199.95999336242676" />
<path stroke-width="0.5" fill="none" stroke="red" fill-opacity="0.5" d="M80.00020980834961,-190.4773473739624" />
<path stroke-width="0.5" fill="none" stroke="red" fill-opacity="0.5" d="M75.00019073486328,-188.10667991638184" />
<path stroke-width="0.5" fill="none" stroke="red" fill-opacity="0.5" d="M75.00019073486328,-185.73601245880127" />
<path stroke-width="0.5" fill="none" stroke="red" fill-opacity="0.5" d="M85.00022888183594,-180.99467754364014" />
<path stroke-width="0.5" fill="none" stroke="red" fill-opacity="0.5" d="M90.00024795532227,-178.62401008605957" />
<path stroke-width="0.5" fill="none" stroke="red" fill-opacity="0.5" d="M90.00024795532227,-183.3653450012207" />
<path stroke-width="0.5" fill="none" stroke="red" fill-opacity="0.5" d="M107.5002908706665,-185.73601245880127" />
<path stroke-width="0.5" fill="none" stroke="red" fill-opacity="0.5" d="M115.0003433227539,-190.4773473739624" />
<path stroke-width="0.5" fill="none" stroke="red" fill-opacity="0.5" d="M137.50042915344238,-183.3653450012207" />
<path stroke-width="0.5" fill="none" stroke="red" fill-opacity="0.5" d="M140.00043869018555,-195.21868228912354" />
<path stroke-width="0.5" fill="none" stroke="red" fill-opacity="0.5" d="M150.0004768371582,-183.3653450012207" />
<path stroke-width="0.5" fill="none" stroke="red" fill-opacity="0.5" d="M160.00051498413086,-185.73601245880127" />
<path stroke-width="0.5" fill="none" stroke="red" fill-opacity="0.5" d="M165.0005578994751,-178.62401008605957" />
<path stroke-width="0.5" fill="none" stroke="red" fill-opacity="0.5" d="M162.50054836273193,-176.253342628479" />
<path stroke-width="0.5" fill="none" stroke="red" fill-opacity="0.5" d="M110.00032424926758,-192.84801483154297" />
<path stroke-width="0.5" fill="none" stroke="red" fill-opacity="0.5" d="M107.50033855438232,-192.84801483154297" />
<path stroke-width="0.5" fill="none" stroke="red" fill-opacity="0.5" d="M105.00030517578125,-190.4773473739624" />
<path stroke-width="0.5" fill="none" stroke="red" fill-opacity="0.5" d="M105.00030517578125,-190.4773473739624" />
<path stroke-width="0.5" fill="none" stroke="red" fill-opacity="0.5" d="M97.50027656555176,-185.73601245880127" />
<path stroke-width="0.5" fill="none" stroke="red" fill-opacity="0.5" d="M135.0003957748413,-209.44271087646484 L137.50042915344238,-197.5893497467041 L145.00045776367188,-197.5893497467041 L145.00045776367188,-207.07201957702637 L150.0004768371582,-192.84801483154297 L157.5005292892456,-192.84801483154297 L155.00051975250244,-190.4773473739624 L150.0005006790161,-196.99666500091553 L150.0005006790161,-190.4773473739624 L140.00046253204346,-190.4773473739624 L127.50041484832764,-199.95999336242676 L120.00038623809814,-197.5893497467041 L117.50035285949707,-185.73601245880127 L115.0003433227539,-176.253342628479 L105.00030517578125,-166.77067279815674 L102.50027179718018,-157.28800296783447 L92.50025749206543,-157.28800296783447 L85.00022888183594,-162.0293378829956 L80.00020980834961,-169.1413402557373 L75.00016689300537,-176.253342628479 L75.00016689300537,-183.3653450012207 L77.50020027160645,-185.73601245880127 L80.0001859664917,-190.4773473739624 L75.00016689300537,-195.21868228912354 L72.5001335144043,-195.21868228912354 L70.00014781951904,-190.4773473739624 L62.50011920928955,-188.10667991638184 L75.00016689300537,-183.3653450012207 L77.50020027160645,-188.10667991638184 L85.00022888183594,-195.21868228912354 L92.50025749206543,-201.73802375793457 L92.50023365020752,-199.95999336242676 L80.00020980834961,-190.4773473739624 L75.00019073486328,-188.10667991638184 L75.00019073486328,-185.73601245880127 L85.00022888183594,-180.99467754364014 L90.00024795532227,-178.62401008605957 L90.00024795532227,-183.3653450012207 L107.5002908706665,-185.73601245880127 L115.0003433227539,-190.4773473739624 L137.50042915344238,-183.3653450012207 L140.00043869018555,-195.21868228912354 L150.0004768371582,-183.3653450012207 L160.00051498413086,-185.73601245880127 L165.0005578994751,-178.62401008605957 L162.50054836273193,-176.253342628479 L110.00032424926758,-192.84801483154297 L107.50033855438232,-192.84801483154297 L105.00030517578125,-190.4773473739624 L105.00030517578125,-190.4773473739624 L97.50027656555176,-185.73601245880127" />
<path stroke-width="0.5" fill="none" stroke="red" fill-opacity="0.5" d="M135.0003957748413,-209.44271087646484" />
<path stroke-width="0.5" fill="none" stroke="red" fill-opacity="0.5" d="M135.48078536987305,-206.50434494018555" />
<path stroke-width="0.5" fill="none" stroke="red" fill-opacity="0.5" d="M136.67008876800537,-203.98783683776855" />
<path stroke-width="0.5" fill="none" stroke="red" fill-opacity="0.5" d="M138.6286497116089,-202.70977020263672" />
<path stroke-width="0.5" fill="none" stroke="red" fill-opacity="0.5" d="M140.5306100845337,-201.89714431762695" />
<path stroke-width="0.5" fill="none" stroke="red" fill-opacity="0.5" d="M144.04115676879883,-200.45628547668457" />
<path stroke-width="0.5" fill="none" stroke="red" fill-opacity="0.5" d="M147.17888832092285,-198.94177913665771" />
<path stroke-width="0.5" fill="none" stroke="red" fill-opacity="0.5" d="M148.496413230896,-197.62647151947021" />
<path stroke-width="0.5" fill="none" stroke="red" fill-opacity="0.5" d="M148.6032485961914,-196.77927494049072" />
<path stroke-width="0.5" fill="none" stroke="red" fill-opacity="0.5" d="M147.79057502746582,-196.35472297668457" />
<path stroke-width="0.5" fill="none" stroke="red" fill-opacity="0.5" d="M144.3415880203247,-196.18422985076904" />
<path stroke-width="0.5" fill="none" stroke="red" fill-opacity="0.5" d="M137.18304634094238,-196.26245498657227" />
<path stroke-width="0.5" fill="none" stroke="red" fill-opacity="0.5" d="M131.05788230895996,-195.39096355438232" />
<path stroke-width="0.5" fill="none" stroke="red" fill-opacity="0.5" d="M126.07319355010986,-192.04442501068115" />
<path stroke-width="0.5" fill="none" stroke="red" fill-opacity="0.5" d="M121.87027931213379,-185.30397415161133" />
<path stroke-width="0.5" fill="none" stroke="red" fill-opacity="0.5" d="M117.14506149291992,-176.46982669830322" />
<path stroke-width="0.5" fill="none" stroke="red" fill-opacity="0.5" d="M111.68291568756104,-169.1819190979004" />
<path stroke-width="0.5" fill="none" stroke="red" fill-opacity="0.5" d="M103.2949686050415,-167.15333461761475" />
<path stroke-width="0.5" fill="none" stroke="red" fill-opacity="0.5" d="M95.1425552368164,-166.89584255218506" />
<path stroke-width="0.5" fill="none" stroke="red" fill-opacity="0.5" d="M88.75758647918701,-167.61763095855713" />
<path stroke-width="0.5" fill="none" stroke="red" fill-opacity="0.5" d="M85.19024848937988,-169.5348024368286" />
<path stroke-width="0.5" fill="none" stroke="red" fill-opacity="0.5" d="M83.18405151367188,-173.28357696533203" />
<path stroke-width="0.5" fill="none" stroke="red" fill-opacity="0.5" d="M82.42459297180176,-177.4383544921875" />
<path stroke-width="0.5" fill="none" stroke="red" fill-opacity="0.5" d="M81.52339458465576,-182.40649700164795" />
<path stroke-width="0.5" fill="none" stroke="red" fill-opacity="0.5" d="M80.05599975585938,-185.5483055114746" />
<path stroke-width="0.5" fill="none" stroke="red" fill-opacity="0.5" d="M78.61008644104004,-186.97614669799805" />
<path stroke-width="0.5" fill="none" stroke="red" fill-opacity="0.5" d="M75.80091953277588,-187.14604377746582" />
<path stroke-width="0.5" fill="none" stroke="red" fill-opacity="0.5" d="M73.94728660583496,-187.0694637298584" />
<path stroke-width="0.5" fill="none" stroke="red" fill-opacity="0.5" d="M73.63646030426025,-187.0278835296631" />
<path stroke-width="0.5" fill="none" stroke="red" fill-opacity="0.5" d="M74.67992305755615,-187.40825653076172" />
<path stroke-width="0.5" fill="none" stroke="red" fill-opacity="0.5" d="M78.4106969833374,-189.17958736419678" />
<path stroke-width="0.5" fill="none" stroke="red" fill-opacity="0.5" d="M82.62970447540283,-192.52426624298096" />
<path stroke-width="0.5" fill="none" stroke="red" fill-opacity="0.5" d="M83.1843614578247,-192.8678274154663" />
<path stroke-width="0.5" fill="none" stroke="red" fill-opacity="0.5" d="M82.65740871429443,-192.4124002456665" />
<path stroke-width="0.5" fill="none" stroke="red" fill-opacity="0.5" d="M81.41815662384033,-191.914963722229" />
<path stroke-width="0.5" fill="none" stroke="red" fill-opacity="0.5" d="M81.16130828857422,-190.52040576934814" />
<path stroke-width="0.5" fill="none" stroke="red" fill-opacity="0.5" d="M81.89313411712646,-188.56453895568848" />
<path stroke-width="0.5" fill="none" stroke="red" fill-opacity="0.5" d="M82.2916030883789,-187.09194660186768" />
<path stroke-width="0.5" fill="none" stroke="red" fill-opacity="0.5" d="M87.10200786590576,-186.67912483215332" />
<path stroke-width="0.5" fill="none" stroke="red" fill-opacity="0.5" d="M97.20931053161621,-186.81068420410156" />
<path stroke-width="0.5" fill="none" stroke="red" fill-opacity="0.5" d="M111.50624752044678,-187.55149841308594" />
<path stroke-width="0.5" fill="none" stroke="red" fill-opacity="0.5" d="M121.9444990158081,-188.4284257888794" />
<path stroke-width="0.5" fill="none" stroke="red" fill-opacity="0.5" d="M132.57825374603271,-188.80467414855957" />
<path stroke-width="0.5" fill="none" stroke="red" fill-opacity="0.5" d="M141.75243377685547,-188.5835886001587" />
<path stroke-width="0.5" fill="none" stroke="red" fill-opacity="0.5" d="M148.55177402496338,-187.4340057373047" />
<path stroke-width="0.5" fill="none" stroke="red" fill-opacity="0.5" d="M152.5747537612915,-185.32509803771973" />
<path stroke-width="0.5" fill="none" stroke="red" fill-opacity="0.5" d="M134.97674465179443,-185.43248176574707" />
<path stroke-width="0.5" fill="none" stroke="red" fill-opacity="0.5" d="M124.37450885772705,-185.86382865905762" />
<path stroke-width="0.5" fill="none" stroke="red" fill-opacity="0.5" d="M118.07575225830078,-186.21556758880615" />
<path stroke-width="0.5" fill="none" stroke="red" fill-opacity="0.5" d="M113.87128829956055,-186.6175889968872" />
<path stroke-width="0.5" fill="none" stroke="red" fill-opacity="0.5" d="M111.79158687591553,-186.75315380096436" />
<path stroke-width="0.5" fill="none" stroke="black" fill-opacity="0.5" d="M135.0003957748413,-209.44271087646484 L135.48078536987305,-206.50434494018555 L136.67008876800537,-203.98783683776855 L138.6286497116089,-202.70977020263672 L140.5306100845337,-201.89714431762695 L144.04115676879883,-200.45628547668457 L147.17888832092285,-198.94177913665771 L148.496413230896,-197.62647151947021 L148.6032485961914,-196.77927494049072 L147.79057502746582,-196.35472297668457 L144.3415880203247,-196.18422985076904 L137.18304634094238,-196.26245498657227 L131.05788230895996,-195.39096355438232 L126.07319355010986,-192.04442501068115 L121.87027931213379,-185.30397415161133 L117.14506149291992,-176.46982669830322 L111.68291568756104,-169.1819190979004 L103.2949686050415,-167.15333461761475 L95.1425552368164,-166.89584255218506 L88.75758647918701,-167.61763095855713 L85.19024848937988,-169.5348024368286 L83.18405151367188,-173.28357696533203 L82.42459297180176,-177.4383544921875 L81.52339458465576,-182.40649700164795 L80.05599975585938,-185.5483055114746 L78.61008644104004,-186.97614669799805 L75.80091953277588,-187.14604377746582 L73.94728660583496,-187.0694637298584 L73.63646030426025,-187.0278835296631 L74.67992305755615,-187.40825653076172 L78.4106969833374,-189.17958736419678 L82.62970447540283,-192.52426624298096 L83.1843614578247,-192.8678274154663 L82.65740871429443,-192.4124002456665 L81.41815662384033,-191.914963722229 L81.16130828857422,-190.52040576934814 L81.89313411712646,-188.56453895568848 L82.2916030883789,-187.09194660186768 L87.10200786590576,-186.67912483215332 L97.20931053161621,-186.81068420410156 L111.50624752044678,-187.55149841308594 L121.9444990158081,-188.4284257888794 L132.57825374603271,-188.80467414855957 L141.75243377685547,-188.5835886001587 L148.55177402496338,-187.4340057373047 L152.5747537612915,-185.32509803771973 L134.97674465179443,-185.43248176574707 L124.37450885772705,-185.86382865905762 L118.07575225830078,-186.21556758880615 L113.87128829956055,-186.6175889968872 L111.79158687591553,-186.75315380096436" />
</svg>