<?xml version="1.0" encoding="UTF-8"?>
<svg xmlns="http://www.w3.org/2000/svg" xmlns:xlink="http://www.w3.org/1999/xlink"
     width="600" height="600" viewBox="0 -300 300 300">
<defs>
</defs>
<path stroke-width="0.5" fill="none" stroke="red" fill-opacity="0.5" d="M137.5004529953003,-197.5893497467041" />
<path stroke-width="0.5" fill="none" stroke="red" fill-opacity="0.5" d="M145.00045776367188,-207.07201957702637" />
<path stroke-width="0.5" fill="none" stroke="red" fill-opacity="0.5" d="M147.50049114227295,-207.07201957702637" />
<path stroke-width="0.5" fill="none" stroke="red" fill-opacity="0.5" d="M147.50046730041504,-207.07201957702637" />
<path stroke-width="0.5" fill="none" stroke="red" fill-opacity="0.5" d="M152.50051021575928,-201.73802375793457" />
<path stroke-width="0.5" fill="none" stroke="red" fill-opacity="0.5" d="M155.00049591064453,-204.7013282775879" />
<path stroke-width="0.5" fill="none" stroke="red" fill-opacity="0.5" d="M157.5005292892456,-204.7013282775879" />
<path stroke-width="0.5" fill="none" stroke="red" fill-opacity="0.5" d="M160.00053882598877,-202.33068466186523" />
<path stroke-width="0.5" fill="none" stroke="red" fill-opacity="0.5" d="M162.50052452087402,-194.62599754333496" />
<path stroke-width="0.5" fill="none" stroke="red" fill-opacity="0.5" d="M160.00051498413086,-189.88466262817383" />
<path stroke-width="0.5" fill="none" stroke="red" fill-opacity="0.5" d="M162.50052452087402,-192.84801483154297" />
<path stroke-width="0.5" fill="none" stroke="red" fill-opacity="0.5" d="M165.0005340576172,-190.4773473739624" />
<path stroke-width="0.5" fill="none" stroke="red" fill-opacity="0.5" d="M155.00051975250244,-185.73601245880127" />
<path stroke-width="0.5" fill="none" stroke="red" fill-opacity="0.5" d="M152.50051021575928,-173.88267517089844" />
<path stroke-width="0.5" fill="none" stroke="red" fill-opacity="0.5" d="M152.50051021575928,-171.51200771331787" />
<path stroke-width="0.5" fill="none" stroke="red" fill-opacity="0.5" d="M152.50051021575928,-169.1413402557373" />
<path stroke-width="0.5" fill="none" stroke="red" fill-opacity="0.5" d="M145.00048160552979,-166.77067279815674" />
<path stroke-width="0.5" fill="none" stroke="red" fill-opacity="0.5" d="M140.00046253204346,-164.40000534057617" />
<path stroke-width="0.5" fill="none" stroke="red" fill-opacity="0.5" d="M130.0004005432129,-166.77067279815674" />
<path stroke-width="0.5" fill="none" stroke="red" fill-opacity="0.5" d="M117.50035285949707,-171.51200771331787" />
<path stroke-width="0.5" fill="none" stroke="red" fill-opacity="0.5" d="M110.00032424926758,-176.253342628479" />
<path stroke-width="0.5" fill="none" stroke="red" fill-opacity="0.5" d="M105.00030517578125,-180.99467754364014" />
<path stroke-width="0.5" fill="none" stroke="red" fill-opacity="0.5" d="M102.50029563903809,-188.10667991638184" />
<path stroke-width="0.5" fill="none" stroke="red" fill-opacity="0.5" d="M97.50027656555176,-195.21868228912354" />
<path stroke-width="0.5" fill="none" stroke="red" fill-opacity="0.5" d="M97.50027656555176,-199.95999336242676" />
<path stroke-width="0.5" fill="none" stroke="red" fill-opacity="0.5" d="M92.50025749206543,-207.07201957702637" />
<path stroke-width="0.5" fill="none" stroke="red" fill-opacity="0.5" d="M90.00024795532227,-202.33068466186523" />
<path stroke-width="0.5" fill="none" stroke="red" fill-opacity="0.5" d="M87.5002384185791,-202.33068466186523" />
<path stroke-width="0.5" fill="none" stroke="red" fill-opacity="0.5" d="M87.5002384185791,-195.21868228912354" />
<path stroke-width="0.5" fill="none" stroke="red" fill-opacity="0.5" d="M75.00019073486328,-199.95999336242676" />
<path stroke-width="0.5" fill="none" stroke="red" fill-opacity="0.5" d="M72.5001335144043,-192.84801483154297" />
<path stroke-width="0.5" fill="none" stroke="red" fill-opacity="0.5" d="M67.50016212463379,-188.10667991638184" />
<path stroke-width="0.5" fill="none" stroke="red" fill-opacity="0.5" d="M60.00008583068848,-185.73601245880127" />
<path stroke-width="0.5" fill="none" stroke="red" fill-opacity="0.5" d="M62.50014305114746,-178.62401008605957" />
<path stroke-width="0.5" fill="none" stroke="red" fill-opacity="0.5" d="M55.00009059906006,-178.62401008605957" />
<path stroke-width="0.5" fill="none" stroke="red" fill-opacity="0.5" d="M85.00020503997803,-171.51200771331787" />
<path stroke-width="0.5" fill="none" stroke="red" fill-opacity="0.5" d="M50.00007152557373,-176.253342628479" />
<path stroke-width="0.5" fill="none" stroke="red" fill-opacity="0.5" d="M45.00002861022949,-178.62401008605957" />
<path stroke-width="0.5" fill="none" stroke="red" fill-opacity="0.5" d="M90.00020027160645,-192.84801483154297" />
<path stroke-width="0.5" fill="none" stroke="red" fill-opacity="0.5" d="M90.00020027160645,-192.84801483154297" />
<path stroke-width="0.5" fill="none" stroke="red" fill-opacity="0.5" d="M90.00020027160645,-192.84801483154297" />
<path stroke-width="0.5" fill="none" stroke="red" fill-opacity="0.5" d="M90.00020027160645,-192.84801483154297" />
<path stroke-width="0.5" fill="none" stroke="red" fill-opacity="0.5" d="M90.00020027160645,-192.84801483154297" />
<path stroke-width="0.5" fill="none" stroke="red" fill-opacity="0.5" d="M55.00011444091797,-188.10667991638184" />
<path stroke-width="0.5" fill="none" stroke="red" fill-opacity="0.5" d="M65.00012874603271,-190.4773473739624" />
<path stroke-width="0.5" fill="none" stroke="red" fill-opacity="0.5" d="M67.50013828277588,-192.84801483154297" />
<path stroke-width="0.5" fill="none" stroke="red" fill-opacity="0.5" d="M72.5001573562622,-195.21868228912354" />
<path stroke-width="0.5" fill="none" stroke="red" fill-opacity="0.5" d="M75.00016689300537,-197.5893497467041" />
<path stroke-width="0.5" fill="none" stroke="red" fill-opacity="0.5" d="M82.50019550323486,-197.5893497467041" />
<path stroke-width="0.5" fill="none" stroke="red" fill-opacity="0.5" d="M87.5002384185791,-197.5893497467041" />
<path stroke-width="0.5" fill="none" stroke="red" fill-opacity="0.5" d="M90.00024795532227,-202.33068466186523" />
<path stroke-width="0.5" fill="none" stroke="red" fill-opacity="0.5" d="M137.5004529953003,-197.5893497467041 L145.00045776367188,-207.07201957702637 L147.50049114227295,-207.07201957702637 L147.50046730041504,-207.07201957702637 L152.50051021575928,-201.73802375793457 L155.00049591064453,-204.7013282775879 L157.5005292892456,-204.7013282775879 L160.00053882598877,-202.33068466186523 L162.50052452087402,-194.62599754333496 L160.00051498413086,-189.88466262817383 L162.50052452087402,-192.84801483154297 L165.0005340576172,-190.4773473739624 L155.00051975250244,-185.73601245880127 L152.50051021575928,-173.88267517089844 L152.50051021575928,-171.51200771331787 L152.50051021575928,-169.1413402557373 L145.00048160552979,-166.77067279815674 L140.00046253204346,-164.40000534057617 L130.0004005432129,-166.77067279815674 L117.50035285949707,-171.51200771331787 L110.00032424926758,-176.253342628479 L105.00030517578125,-180.99467754364014 L102.50029563903809,-188.10667991638184 L97.50027656555176,-195.21868228912354 L97.50027656555176,-199.95999336242676 L92.50025749206543,-207.07201957702637 L90.00024795532227,-202.33068466186523 L87.5002384185791,-202.33068466186523 L87.5002384185791,-195.21868228912354 L75.00019073486328,-199.95999336242676 L72.5001335144043,-192.84801483154297 L67.50016212463379,-188.10667991638184 L60.00008583068848,-185.73601245880127 L62.50014305114746,-178.62401008605957 L55.00009059906006,-178.62401008605957 L85.00020503997803,-171.51200771331787 L50.00007152557373,-176.253342628479 L45.00002861022949,-178.62401008605957 L90.00020027160645,-192.84801483154297 L90.00020027160645,-192.84801483154297 L90.00020027160645,-192.84801483154297 L90.00020027160645,-192.84801483154297 L90.00020027160645,-192.84801483154297 L55.00011444091797,-188.10667991638184 L65.00012874603271,-190.4773473739624 L67.50013828277588,-192.84801483154297 L72.5001573562622,-195.21868228912354 L75.00016689300537,-197.5893497467041 L82.50019550323486,-197.5893497467041 L87.5002384185791,-197.5893497467041 L90.00024795532227,-202.33068466186523" />
<path stroke-width="0.5" fill="none" stroke="red" fill-opacity="0.5" d="M137.5004529953003,-197.5893497467041" />
<path stroke-width="0.5" fill="none" stroke="red" fill-opacity="0.5" d="M137.95299530029297,-198.21476936340332" />
<path stroke-width="0.5" fill="none" stroke="red" fill-opacity="0.5" d="M139.20369148254395,-199.5603084564209" />
<path stroke-width="0.5" fill="none" stroke="red" fill-opacity="0.5" d="M141.43407344818115,-199.94492530822754" />
<path stroke-width="0.5" fill="none" stroke="red" fill-opacity="0.5" d="M143.27960014343262,-200.11377334594727" />
<path stroke-width="0.5" fill="none" stroke="red" fill-opacity="0.5" d="M145.70651054382324,-200.83861351013184" />
<path stroke-width="0.5" fill="none" stroke="red" fill-opacity="0.5" d="M147.75409698486328,-201.12333297729492" />
<path stroke-width="0.5" fill="none" stroke="red" fill-opacity="0.5" d="M150.35881996154785,-201.1483669281006" />
<path stroke-width="0.5" fill="none" stroke="red" fill-opacity="0.5" d="M151.93214416503906,-200.56934356689453" />
<path stroke-width="0.5" fill="none" stroke="red" fill-opacity="0.5" d="M153.77111434936523,-200.25386810302734" />
<path stroke-width="0.5" fill="none" stroke="red" fill-opacity="0.5" d="M155.61306476593018,-199.16999340057373" />
<path stroke-width="0.5" fill="none" stroke="red" fill-opacity="0.5" d="M157.06703662872314,-197.03679084777832" />
<path stroke-width="0.5" fill="none" stroke="red" fill-opacity="0.5" d="M157.62243270874023,-195.26984691619873" />
<path stroke-width="0.5" fill="none" stroke="red" fill-opacity="0.5" d="M157.5108766555786,-190.60122966766357" />
<path stroke-width="0.5" fill="none" stroke="red" fill-opacity="0.5" d="M157.26494789123535,-184.66486930847168" />
<path stroke-width="0.5" fill="none" stroke="red" fill-opacity="0.5" d="M157.00554847717285,-179.83136177062988" />
<path stroke-width="0.5" fill="none" stroke="red" fill-opacity="0.5" d="M155.14109134674072,-176.48358345031738" />
<path stroke-width="0.5" fill="none" stroke="red" fill-opacity="0.5" d="M152.9203176498413,-173.94685745239258" />
<path stroke-width="0.5" fill="none" stroke="red" fill-opacity="0.5" d="M146.0474729537964,-172.69296646118164" />
<path stroke-width="0.5" fill="none" stroke="red" fill-opacity="0.5" d="M137.53468990325928,-172.32613563537598" />
<path stroke-width="0.5" fill="none" stroke="red" fill-opacity="0.5" d="M129.5124053955078,-172.36292362213135" />
<path stroke-width="0.5" fill="none" stroke="red" fill-opacity="0.5" d="M122.13289737701416,-173.002028465271" />
<path stroke-width="0.5" fill="none" stroke="red" fill-opacity="0.5" d="M116.46678447723389,-175.3154993057251" />
<path stroke-width="0.5" fill="none" stroke="red" fill-opacity="0.5" d="M111.70275211334229,-180.0328016281128" />
<path stroke-width="0.5" fill="none" stroke="red" fill-opacity="0.5" d="M108.47108364105225,-185.02027988433838" />
<path stroke-width="0.5" fill="none" stroke="red" fill-opacity="0.5" d="M105.21645545959473,-190.075421333313" />
<path stroke-width="0.5" fill="none" stroke="red" fill-opacity="0.5" d="M101.56302452087402,-195.15461921691895" />
<path stroke-width="0.5" fill="none" stroke="red" fill-opacity="0.5" d="M97.99973964691162,-198.47617149353027" />
<path stroke-width="0.5" fill="none" stroke="red" fill-opacity="0.5" d="M95.98395824432373,-198.57563972473145" />
<path stroke-width="0.5" fill="none" stroke="red" fill-opacity="0.5" d="M92.05090999603271,-198.5485315322876" />
<path stroke-width="0.5" fill="none" stroke="red" fill-opacity="0.5" d="M86.62071228027344,-198.49600791931152" />
<path stroke-width="0.5" fill="none" stroke="red" fill-opacity="0.5" d="M81.22880458831787,-197.48823642730713" />
<path stroke-width="0.5" fill="none" stroke="red" fill-opacity="0.5" d="M76.18138790130615,-195.51465511322021" />
<path stroke-width="0.5" fill="none" stroke="red" fill-opacity="0.5" d="M72.5320816040039,-192.46957302093506" />
<path stroke-width="0.5" fill="none" stroke="red" fill-opacity="0.5" d="M68.71731281280518,-189.24455642700195" />
<path stroke-width="0.5" fill="none" stroke="red" fill-opacity="0.5" d="M71.10671997070312,-187.06626892089844" />
<path stroke-width="0.5" fill="none" stroke="red" fill-opacity="0.5" d="M66.95404052734375,-184.68620777130127" />
<path stroke-width="0.5" fill="none" stroke="red" fill-opacity="0.5" d="M62.307000160217285,-182.61399269104004" />
<path stroke-width="0.5" fill="none" stroke="red" fill-opacity="0.5" d="M69.21796798706055,-183.7554931640625" />
<path stroke-width="0.5" fill="none" stroke="red" fill-opacity="0.5" d="M76.43814086914062,-185.40477752685547" />
<path stroke-width="0.5" fill="none" stroke="red" fill-opacity="0.5" d="M79.94306087493896,-186.56842708587646" />
<path stroke-width="0.5" fill="none" stroke="red" fill-opacity="0.5" d="M81.97805881500244,-187.4161958694458" />
<path stroke-width="0.5" fill="none" stroke="red" fill-opacity="0.5" d="M83.31754207611084,-188.06180953979492" />
<path stroke-width="0.5" fill="none" stroke="red" fill-opacity="0.5" d="M82.73077011108398,-188.43164443969727" />
<path stroke-width="0.5" fill="none" stroke="red" fill-opacity="0.5" d="M75.6277084350586,-188.3979082107544" />
<path stroke-width="0.5" fill="none" stroke="red" fill-opacity="0.5" d="M73.50594997406006,-188.64145278930664" />
<path stroke-width="0.5" fill="none" stroke="red" fill-opacity="0.5" d="M73.14872741699219,-189.36219215393066" />
<path stroke-width="0.5" fill="none" stroke="red" fill-opacity="0.5" d="M73.17969799041748,-190.5182123184204" />
<path stroke-width="0.5" fill="none" stroke="red" fill-opacity="0.5" d="M73.69439601898193,-192.06981658935547" />
<path stroke-width="0.5" fill="none" stroke="red" fill-opacity="0.5" d="M75.66566467285156,-192.90499687194824" />
<path stroke-width="0.5" fill="none" stroke="red" fill-opacity="0.5" d="M78.52680683135986,-194.19002532958984" />
<path stroke-width="0.5" fill="none" stroke="black" fill-opacity="0.5" d="M137.5004529953003,-197.5893497467041 L137.95299530029297,-198.21476936340332 L139.20369148254395,-199.5603084564209 L141.43407344818115,-199.94492530822754 L143.27960014343262,-200.11377334594727 L145.70651054382324,-200.83861351013184 L147.75409698486328,-201.12333297729492 L150.35881996154785,-201.1483669281006 L151.93214416503906,-200.56934356689453 L153.77111434936523,-200.25386810302734 L155.61306476593018,-199.16999340057373 L157.06703662872314,-197.03679084777832 L157.62243270874023,-195.26984691619873 L157.5108766555786,-190.60122966766357 L157.26494789123535,-184.66486930847168 L157.00554847717285,-179.83136177062988 L155.14109134674072,-176.48358345031738 L152.9203176498413,-173.94685745239258 L146.0474729537964,-172.69296646118164 L137.53468990325928,-172.32613563537598 L129.5124053955078,-172.36292362213135 L122.13289737701416,-173.002028465271 L116.46678447723389,-175.3154993057251 L111.70275211334229,-180.0328016281128 L108.47108364105225,-185.02027988433838 L105.21645545959473,-190.075421333313 L101.56302452087402,-195.15461921691895 L97.99973964691162,-198.47617149353027 L95.98395824432373,-198.57563972473145 L92.05090999603271,-198.5485315322876 L86.62071228027344,-198.49600791931152 L81.22880458831787,-197.48823642730713 L76.18138790130615,-195.51465511322021 L72.5320816040039,-192.46957302093506 L68.71731281280518,-189.24455642700195 L71.10671997070312,-187.06626892089844 L66.95404052734375,-184.68620777130127 L62.307000160217285,-182.61399269104004 L69.21796798706055,-183.7554931640625 L76.43814086914062,-185.40477752685547 L79.94306087493896,-186.56842708587646 L81.97805881500244,-187.4161958694458 L83.31754207611084,-188.06180953979492 L82.73077011108398,-188.43164443969727 L75.6277084350586,-188.3979082107544 L73.50594997406006,-188.64145278930664 L73.14872741699219,-189.36219215393066 L73.17969799041748,-190.5182123184204 L73.69439601898193,-192.06981658935547 L75.66566467285156,-192.90499687194824 L78.52680683135986,-194.19002532958984" />
</svg>