<?xml version="1.0" encoding="UTF-8"?>
<svg xmlns="http://www.w3.org/2000/svg" xmlns:xlink="http://www.w3.org/1999/xlink"
     width="600" height="600" viewBox="0 -300 300 300">
<defs>
</defs>
<path stroke-width="0.5" fill="none" stroke="red" fill-opacity="0.5" d="M125.00038146972656,-207.07201957702637" />
<path stroke-width="0.5" fill="none" stroke="red" fill-opacity="0.5" d="M122.5003719329834,-207.07201957702637" />
<path stroke-width="0.5" fill="none" stroke="red" fill-opacity="0.5" d="M122.50034809112549,-209.44271087646484" />
<path stroke-width="0.5" fill="none" stroke="red" fill-opacity="0.5" d="M125.00038146972656,-209.44271087646484" />
<path stroke-width="0.5" fill="none" stroke="red" fill-opacity="0.5" d="M130.0004005432129,-204.10871505737305" />
<path stroke-width="0.5" fill="none" stroke="red" fill-opacity="0.5" d="M135.00041961669922,-211.8133544921875" />
<path stroke-width="0.5" fill="none" stroke="red" fill-opacity="0.5" d="M142.5004482269287,-207.07201957702637" />
<path stroke-width="0.5" fill="none" stroke="red" fill-opacity="0.5" d="M142.5004482269287,-207.07201957702637" />
<path stroke-width="0.5" fill="none" stroke="red" fill-opacity="0.5" d="M150.0004768371582,-209.44271087646484" />
<path stroke-width="0.5" fill="none" stroke="red" fill-opacity="0.5" d="M152.50051021575928,-209.44271087646484" />
<path stroke-width="0.5" fill="none" stroke="red" fill-opacity="0.5" d="M157.5005292892456,-204.10871505737305" />
<path stroke-width="0.5" fill="none" stroke="red" fill-opacity="0.5" d="M160.00051498413086,-209.44271087646484" />
<path stroke-width="0.5" fill="none" stroke="red" fill-opacity="0.5" d="M162.50054836273193,-197.5893497467041" />
<path stroke-width="0.5" fill="none" stroke="red" fill-opacity="0.5" d="M172.5005865097046,-204.7013282775879" />
<path stroke-width="0.5" fill="none" stroke="red" fill-opacity="0.5" d="M167.50056743621826,-190.4773473739624" />
<path stroke-width="0.5" fill="none" stroke="red" fill-opacity="0.5" d="M170.00057697296143,-183.3653450012207" />
<path stroke-width="0.5" fill="none" stroke="red" fill-opacity="0.5" d="M170.00057697296143,-183.3653450012207" />
<path stroke-width="0.5" fill="none" stroke="red" fill-opacity="0.5" d="M170.00057697296143,-171.51200771331787" />
<path stroke-width="0.5" fill="none" stroke="red" fill-opacity="0.5" d="M167.50056743621826,-162.0293378829956" />
<path stroke-width="0.5" fill="none" stroke="red" fill-opacity="0.5" d="M172.5005865097046,-157.28800296783447" />
<path stroke-width="0.5" fill="none" stroke="red" fill-opacity="0.5" d="M172.5005865097046,-157.28800296783447" />
<path stroke-width="0.5" fill="none" stroke="red" fill-opacity="0.5" d="M172.5005865097046,-157.28800296783447" />
<path stroke-width="0.5" fill="none" stroke="red" fill-opacity="0.5" d="M172.5005865097046,-157.28800296783447" />
<path stroke-width="0.5" fill="none" stroke="red" fill-opacity="0.5" d="M172.5005865097046,-157.28800296783447" />
<path stroke-width="0.5" fill="none" stroke="red" fill-opacity="0.5" d="M172.5005865097046,-157.28800296783447" />
<path stroke-width="0.5" fill="none" stroke="red" fill-opacity="0.5" d="M172.5005865097046,-157.28800296783447" />
<path stroke-width="0.5" fill="none" stroke="red" fill-opacity="0.5" d="M172.5005865097046,-157.28800296783447" />
<path stroke-width="0.5" fill="none" stroke="red" fill-opacity="0.5" d="M125.00038146972656,-207.07201957702637 L122.5003719329834,-207.07201957702637 L122.50034809112549,-209.44271087646484 L125.00038146972656,-209.44271087646484 L130.0004005432129,-204.10871505737305 L135.00041961669922,-211.8133544921875 L142.5004482269287,-207.07201957702637 L142.5004482269287,-207.07201957702637 L150.0004768371582,-209.44271087646484 L152.50051021575928,-209.44271087646484 L157.5005292892456,-204.10871505737305 L160.00051498413086,-209.44271087646484 L162.50054836273193,-197.5893497467041 L172.5005865097046,-204.7013282775879 L167.50056743621826,-190.4773473739624 L170.00057697296143,-183.3653450012207 L170.00057697296143,-183.3653450012207 L170.00057697296143,-171.51200771331787 L167.50056743621826,-162.0293378829956 L172.5005865097046,-157.28800296783447 L172.5005865097046,-157.28800296783447 L172.5005865097046,-157.28800296783447 L172.5005865097046,-157.28800296783447 L172.5005865097046,-157.28800296783447 L172.5005865097046,-157.28800296783447 L172.5005865097046,-157.28800296783447 L172.5005865097046,-157.28800296783447" />
<path stroke-width="0.5" fill="none" stroke="red" fill-opacity="0.5" d="M125.00038146972656,-207.07201957702637" />
<path stroke-width="0.5" fill="none" stroke="red" fill-opacity="0.5" d="M124.96216297149658,-207.05265998840332" />
<path stroke-width="0.5" fill="none" stroke="red" fill-opacity="0.5" d="M124.9622106552124,-206.9347858428955" />
<path stroke-width="0.5" fill="none" stroke="red" fill-opacity="0.5" d="M124.95527267456055,-206.9021224975586" />
<path stroke-width="0.5" fill="none" stroke="red" fill-opacity="0.5" d="M125.23784637451172,-206.90789222717285" />
<path stroke-width="0.5" fill="none" stroke="red" fill-opacity="0.5" d="M126.1077880859375,-206.67972564697266" />
<path stroke-width="0.5" fill="none" stroke="red" fill-opacity="0.5" d="M128.78766059875488,-206.65841102600098" />
<path stroke-width="0.5" fill="none" stroke="red" fill-opacity="0.5" d="M131.94472789764404,-206.81748390197754" />
<path stroke-width="0.5" fill="none" stroke="red" fill-opacity="0.5" d="M135.13312339782715,-206.6175937652588" />
<path stroke-width="0.5" fill="none" stroke="red" fill-opacity="0.5" d="M139.18092250823975,-206.79821968078613" />
<path stroke-width="0.5" fill="none" stroke="red" fill-opacity="0.5" d="M143.83018016815186,-206.73065185546875" />
<path stroke-width="0.5" fill="none" stroke="red" fill-opacity="0.5" d="M148.01406860351562,-206.71639442443848" />
<path stroke-width="0.5" fill="none" stroke="red" fill-opacity="0.5" d="M151.93066596984863,-206.35395050048828" />
<path stroke-width="0.5" fill="none" stroke="red" fill-opacity="0.5" d="M155.74133396148682,-204.57119941711426" />
<path stroke-width="0.5" fill="none" stroke="red" fill-opacity="0.5" d="M160.28645038604736,-204.04620170593262" />
<path stroke-width="0.5" fill="none" stroke="red" fill-opacity="0.5" d="M162.192964553833,-201.03249549865723" />
<path stroke-width="0.5" fill="none" stroke="red" fill-opacity="0.5" d="M163.59553337097168,-196.93551063537598" />
<path stroke-width="0.5" fill="none" stroke="red" fill-opacity="0.5" d="M164.3092155456543,-190.50428867340088" />
<path stroke-width="0.5" fill="none" stroke="red" fill-opacity="0.5" d="M165.03324508666992,-181.42743110656738" />
<path stroke-width="0.5" fill="none" stroke="red" fill-opacity="0.5" d="M165.36917686462402,-173.74584674835205" />
<path stroke-width="0.5" fill="none" stroke="red" fill-opacity="0.5" d="M166.3728952407837,-168.86792182922363" />
<path stroke-width="0.5" fill="none" stroke="red" fill-opacity="0.5" d="M167.18013286590576,-166.23528003692627" />
<path stroke-width="0.5" fill="none" stroke="red" fill-opacity="0.5" d="M167.80097484588623,-164.59534168243408" />
<path stroke-width="0.5" fill="none" stroke="red" fill-opacity="0.5" d="M168.29240322113037,-163.46957683563232" />
<path stroke-width="0.5" fill="none" stroke="red" fill-opacity="0.5" d="M168.69127750396729,-162.64634132385254" />
<path stroke-width="0.5" fill="none" stroke="red" fill-opacity="0.5" d="M169.02165412902832,-162.01705932617188" />
<path stroke-width="0.5" fill="none" stroke="red" fill-opacity="0.5" d="M169.29988861083984,-161.51981353759766" />
<path stroke-width="0.5" fill="none" stroke="black" fill-opacity="0.5" d="M125.00038146972656,-207.07201957702637 L124.96216297149658,-207.05265998840332 L124.9622106552124,-206.9347858428955 L124.95527267456055,-206.9021224975586 L125.23784637451172,-206.90789222717285 L126.1077880859375,-206.67972564697266 L128.78766059875488,-206.65841102600098 L131.94472789764404,-206.81748390197754 L135.13312339782715,-206.6175937652588 L139.18092250823975,-206.79821968078613 L143.83018016815186,-206.73065185546875 L148.01406860351562,-206.71639442443848 L151.93066596984863,-206.35395050048828 L155.74133396148682,-204.57119941711426 L160.28645038604736,-204.04620170593262 L162.192964553833,-201.03249549865723 L163.59553337097168,-196.93551063537598 L164.3092155456543,-190.50428867340088 L165.03324508666992,-181.42743110656738 L165.36917686462402,-173.74584674835205 L166.3728952407837,-168.86792182922363 L167.18013286590576,-166.23528003692627 L167.80097484588623,-164.59534168243408 L168.29240322113037,-163.46957683563232 L168.69127750396729,-162.64634132385254 L169.02165412902832,-162.01705932617188 L169.29988861083984,-161.51981353759766" />
</svg>