<?xml version="1.0" encoding="UTF-8"?>
<svg xmlns="http://www.w3.org/2000/svg" xmlns:xlink="http://www.w3.org/1999/xlink"
     width="600" height="600" viewBox="0 -300 300 300">
<defs>
</defs>
<path stroke-width="0.5" fill="none" stroke="red" fill-opacity="0.5" d="M125.00038146972656,-207.07201957702637" />
<path stroke-width="0.5" fill="none" stroke="red" fill-opacity="0.5" d="M130.0004005432129,-211.8133544921875" />
<path stroke-width="0.5" fill="none" stroke="red" fill-opacity="0.5" d="M132.50041007995605,-199.95999336242676" />
<path stroke-width="0.5" fill="none" stroke="red" fill-opacity="0.5" d="M137.50042915344238,-199.95999336242676" />
<path stroke-width="0.5" fill="none" stroke="red" fill-opacity="0.5" d="M145.00048160552979,-199.95999336242676" />
<path stroke-width="0.5" fill="none" stroke="red" fill-opacity="0.5" d="M147.50049114227295,-214.18404579162598" />
<path stroke-width="0.5" fill="none" stroke="red" fill-opacity="0.5" d="M150.0005006790161,-199.95999336242676" />
<path stroke-width="0.5" fill="none" stroke="red" fill-opacity="0.5" d="M157.5005292892456,-199.95999336242676" />
<path stroke-width="0.5" fill="none" stroke="red" fill-opacity="0.5" d="M165.0005578994751,-204.7013282775879" />
<path stroke-width="0.5" fill="none" stroke="red" fill-opacity="0.5" d="M170.00057697296143,-204.7013282775879" />
<path stroke-width="0.5" fill="none" stroke="red" fill-opacity="0.5" d="M175.00059604644775,-199.95999336242676" />
<path stroke-width="0.5" fill="none" stroke="red" fill-opacity="0.5" d="M167.50056743621826,-195.21868228912354" />
<path stroke-width="0.5" fill="none" stroke="red" fill-opacity="0.5" d="M177.50060558319092,-187.51399517059326" />
<path stroke-width="0.5" fill="none" stroke="red" fill-opacity="0.5" d="M180.00061511993408,-183.3653450012207" />
<path stroke-width="0.5" fill="none" stroke="red" fill-opacity="0.5" d="M172.5005865097046,-173.88267517089844" />
<path stroke-width="0.5" fill="none" stroke="red" fill-opacity="0.5" d="M172.5006103515625,-169.1413402557373" />
<path stroke-width="0.5" fill="none" stroke="red" fill-opacity="0.5" d="M175.00059604644775,-159.65867042541504" />
<path stroke-width="0.5" fill="none" stroke="red" fill-opacity="0.5" d="M185.0006341934204,-154.9173355102539" />
<path stroke-width="0.5" fill="none" stroke="red" fill-opacity="0.5" d="M185.0006341934204,-154.9173355102539" />
<path stroke-width="0.5" fill="none" stroke="red" fill-opacity="0.5" d="M185.0006341934204,-154.9173355102539" />
<path stroke-width="0.5" fill="none" stroke="red" fill-opacity="0.5" d="M185.0006341934204,-154.9173355102539" />
<path stroke-width="0.5" fill="none" stroke="red" fill-opacity="0.5" d="M185.0006341934204,-154.9173355102539" />
<path stroke-width="0.5" fill="none" stroke="red" fill-opacity="0.5" d="M185.0006341934204,-154.9173355102539" />
<path stroke-width="0.5" fill="none" stroke="red" fill-opacity="0.5" d="M185.0006341934204,-154.9173355102539" />
<path stroke-width="0.5" fill="none" stroke="red" fill-opacity="0.5" d="M185.0006341934204,-154.9173355102539" />
<path stroke-width="0.5" fill="none" stroke="red" fill-opacity="0.5" d="M125.00038146972656,-207.07201957702637 L130.0004005432129,-211.8133544921875 L132.50041007995605,-199.95999336242676 L137.50042915344238,-199.95999336242676 L145.00048160552979,-199.95999336242676 L147.50049114227295,-214.18404579162598 L150.0005006790161,-199.95999336242676 L157.5005292892456,-199.95999336242676 L165.0005578994751,-204.7013282775879 L170.00057697296143,-204.7013282775879 L175.00059604644775,-199.95999336242676 L167.50056743621826,-195.21868228912354 L177.50060558319092,-187.51399517059326 L180.00061511993408,-183.3653450012207 L172.5005865097046,-173.88267517089844 L172.5006103515625,-169.1413402557373 L175.00059604644775,-159.65867042541504 L185.0006341934204,-154.9173355102539 L185.0006341934204,-154.9173355102539 L185.0006341934204,-154.9173355102539 L185.0006341934204,-154.9173355102539 L185.0006341934204,-154.9173355102539 L185.0006341934204,-154.9173355102539 L185.0006341934204,-154.9173355102539 L185.0006341934204,-154.9173355102539" />
<path stroke-width="0.5" fill="none" stroke="red" fill-opacity="0.5" d="M125.00038146972656,-207.07201957702637" />
<path stroke-width="0.5" fill="none" stroke="red" fill-opacity="0.5" d="M125.34277439117432,-206.63537979125977" />
<path stroke-width="0.5" fill="none" stroke="red" fill-opacity="0.5" d="M126.12814903259277,-206.48674964904785" />
<path stroke-width="0.5" fill="none" stroke="red" fill-opacity="0.5" d="M128.467059135437,-205.92966079711914" />
<path stroke-width="0.5" fill="none" stroke="red" fill-opacity="0.5" d="M131.68957233428955,-205.61470985412598" />
<path stroke-width="0.5" fill="none" stroke="red" fill-opacity="0.5" d="M135.6287717819214,-205.64661026000977" />
<path stroke-width="0.5" fill="none" stroke="red" fill-opacity="0.5" d="M139.59698677062988,-205.21440505981445" />
<path stroke-width="0.5" fill="none" stroke="red" fill-opacity="0.5" d="M144.2873477935791,-204.94375228881836" />
<path stroke-width="0.5" fill="none" stroke="red" fill-opacity="0.5" d="M150.06844997406006,-204.78472709655762" />
<path stroke-width="0.5" fill="none" stroke="red" fill-opacity="0.5" d="M154.70144748687744,-203.9079189300537" />
<path stroke-width="0.5" fill="none" stroke="red" fill-opacity="0.5" d="M158.80861282348633,-203.10721397399902" />
<path stroke-width="0.5" fill="none" stroke="red" fill-opacity="0.5" d="M162.67571449279785,-201.88579559326172" />
<path stroke-width="0.5" fill="none" stroke="red" fill-opacity="0.5" d="M165.36109447479248,-200.1237392425537" />
<path stroke-width="0.5" fill="none" stroke="red" fill-opacity="0.5" d="M167.65518188476562,-196.5465545654297" />
<path stroke-width="0.5" fill="none" stroke="red" fill-opacity="0.5" d="M168.5922622680664,-190.0132417678833" />
<path stroke-width="0.5" fill="none" stroke="red" fill-opacity="0.5" d="M169.06123161315918,-183.57956409454346" />
<path stroke-width="0.5" fill="none" stroke="red" fill-opacity="0.5" d="M170.05105018615723,-176.8204689025879" />
<path stroke-width="0.5" fill="none" stroke="red" fill-opacity="0.5" d="M172.04904556274414,-170.43404579162598" />
<path stroke-width="0.5" fill="none" stroke="red" fill-opacity="0.5" d="M175.07309913635254,-166.04981422424316" />
<path stroke-width="0.5" fill="none" stroke="red" fill-opacity="0.5" d="M177.05209255218506,-163.60061168670654" />
<path stroke-width="0.5" fill="none" stroke="red" fill-opacity="0.5" d="M178.36849689483643,-162.04915046691895" />
<path stroke-width="0.5" fill="none" stroke="red" fill-opacity="0.5" d="M179.3076753616333,-160.97333431243896" />
<path stroke-width="0.5" fill="none" stroke="red" fill-opacity="0.5" d="M180.01291751861572,-160.18123626708984" />
<path stroke-width="0.5" fill="none" stroke="red" fill-opacity="0.5" d="M180.56268692016602,-159.5726490020752" />
<path stroke-width="0.5" fill="none" stroke="red" fill-opacity="0.5" d="M181.00368976593018,-159.08997058868408" />
<path stroke-width="0.5" fill="none" stroke="black" fill-opacity="0.5" d="M125.00038146972656,-207.07201957702637 L125.34277439117432,-206.63537979125977 L126.12814903259277,-206.48674964904785 L128.467059135437,-205.92966079711914 L131.68957233428955,-205.61470985412598 L135.6287717819214,-205.64661026000977 L139.59698677062988,-205.21440505981445 L144.2873477935791,-204.94375228881836 L150.06844997406006,-204.78472709655762 L154.70144748687744,-203.9079189300537 L158.80861282348633,-203.10721397399902 L162.67571449279785,-201.88579559326172 L165.36109447479248,-200.1237392425537 L167.65518188476562,-196.5465545654297 L168.5922622680664,-190.0132417678833 L169.06123161315918,-183.57956409454346 L170.05105018615723,-176.8204689025879 L172.04904556274414,-170.43404579162598 L175.07309913635254,-166.04981422424316 L177.05209255218506,-163.60061168670654 L178.36849689483643,-162.04915046691895 L179.3076753616333,-160.97333431243896 L180.01291751861572,-160.18123626708984 L180.56268692016602,-159.5726490020752 L181.00368976593018,-159.08997058868408" />
</svg>