<?xml version="1.0" encoding="UTF-8"?>
<svg xmlns="http://www.w3.org/2000/svg" xmlns:xlink="http://www.w3.org/1999/xlink"
     width="600" height="600" viewBox="0 -300 300 300">
<defs>
</defs>
<path stroke-width="0.5" fill="none" stroke="red" fill-opacity="0.5" d="M137.50042915344238,-199.95999336242676" />
<path stroke-width="0.5" fill="none" stroke="red" fill-opacity="0.5" d="M130.0004005432129,-204.10871505737305" />
<path stroke-width="0.5" fill="none" stroke="red" fill-opacity="0.5" d="M130.0004005432129,-207.07201957702637" />
<path stroke-width="0.5" fill="none" stroke="red" fill-opacity="0.5" d="M130.00037670135498,-207.07201957702637" />
<path stroke-width="0.5" fill="none" stroke="red" fill-opacity="0.5" d="M125.00038146972656,-207.07201957702637" />
<path stroke-width="0.5" fill="none" stroke="red" fill-opacity="0.5" d="M122.5003719329834,-204.7013282775879" />
<path stroke-width="0.5" fill="none" stroke="red" fill-opacity="0.5" d="M115.0003433227539,-204.7013282775879" />
<path stroke-width="0.5" fill="none" stroke="red" fill-opacity="0.5" d="M117.50037670135498,-199.367356300354" />
<path stroke-width="0.5" fill="none" stroke="red" fill-opacity="0.5" d="M115.0003433227539,-201.73802375793457" />
<path stroke-width="0.5" fill="none" stroke="red" fill-opacity="0.5" d="M122.5003719329834,-207.07201957702637" />
<path stroke-width="0.5" fill="none" stroke="red" fill-opacity="0.5" d="M135.00041961669922,-201.73802375793457" />
<path stroke-width="0.5" fill="none" stroke="red" fill-opacity="0.5" d="M140.00046253204346,-202.33068466186523" />
<path stroke-width="0.5" fill="none" stroke="red" fill-opacity="0.5" d="M147.50049114227295,-202.33068466186523" />
<path stroke-width="0.5" fill="none" stroke="red" fill-opacity="0.5" d="M150.0005006790161,-192.84801483154297" />
<path stroke-width="0.5" fill="none" stroke="red" fill-opacity="0.5" d="M155.00049591064453,-185.73601245880127" />
<path stroke-width="0.5" fill="none" stroke="red" fill-opacity="0.5" d="M152.50051021575928,-180.99467754364014" />
<path stroke-width="0.5" fill="none" stroke="red" fill-opacity="0.5" d="M150.0004768371582,-176.253342628479" />
<path stroke-width="0.5" fill="none" stroke="red" fill-opacity="0.5" d="M142.50047206878662,-173.88267517089844" />
<path stroke-width="0.5" fill="none" stroke="red" fill-opacity="0.5" d="M137.50042915344238,-173.88267517089844" />
<path stroke-width="0.5" fill="none" stroke="red" fill-opacity="0.5" d="M132.50043392181396,-173.88267517089844" />
<path stroke-width="0.5" fill="none" stroke="red" fill-opacity="0.5" d="M127.50039100646973,-176.253342628479" />
<path stroke-width="0.5" fill="none" stroke="red" fill-opacity="0.5" d="M125.00040531158447,-178.62401008605957" />
<path stroke-width="0.5" fill="none" stroke="red" fill-opacity="0.5" d="M120.00038623809814,-185.73601245880127" />
<path stroke-width="0.5" fill="none" stroke="red" fill-opacity="0.5" d="M117.50035285949707,-190.4773473739624" />
<path stroke-width="0.5" fill="none" stroke="red" fill-opacity="0.5" d="M120.00036239624023,-192.84801483154297" />
<path stroke-width="0.5" fill="none" stroke="red" fill-opacity="0.5" d="M120.00038623809814,-188.10667991638184" />
<path stroke-width="0.5" fill="none" stroke="red" fill-opacity="0.5" d="M115.0003433227539,-199.95999336242676" />
<path stroke-width="0.5" fill="none" stroke="red" fill-opacity="0.5" d="M115.0003433227539,-197.5893497467041" />
<path stroke-width="0.5" fill="none" stroke="red" fill-opacity="0.5" d="M110.00032424926758,-199.95999336242676" />
<path stroke-width="0.5" fill="none" stroke="red" fill-opacity="0.5" d="M110.00032424926758,-190.4773473739624" />
<path stroke-width="0.5" fill="none" stroke="red" fill-opacity="0.5" d="M102.50029563903809,-197.5893497467041" />
<path stroke-width="0.5" fill="none" stroke="red" fill-opacity="0.5" d="M97.50027656555176,-197.5893497467041" />
<path stroke-width="0.5" fill="none" stroke="red" fill-opacity="0.5" d="M90.00024795532227,-195.21868228912354" />
<path stroke-width="0.5" fill="none" stroke="red" fill-opacity="0.5" d="M87.5002384185791,-190.4773473739624" />
<path stroke-width="0.5" fill="none" stroke="red" fill-opacity="0.5" d="M82.50021934509277,-188.10667991638184" />
<path stroke-width="0.5" fill="none" stroke="red" fill-opacity="0.5" d="M77.50020027160645,-190.4773473739624" />
<path stroke-width="0.5" fill="none" stroke="red" fill-opacity="0.5" d="M85.00022888183594,-185.73601245880127" />
<path stroke-width="0.5" fill="none" stroke="red" fill-opacity="0.5" d="M87.5002384185791,-192.84801483154297" />
<path stroke-width="0.5" fill="none" stroke="red" fill-opacity="0.5" d="M90.00024795532227,-202.33068466186523" />
<path stroke-width="0.5" fill="none" stroke="red" fill-opacity="0.5" d="M87.5002384185791,-207.07201957702637" />
<path stroke-width="0.5" fill="none" stroke="red" fill-opacity="0.5" d="M90.00024795532227,-197.5893497467041" />
<path stroke-width="0.5" fill="none" stroke="red" fill-opacity="0.5" d="M77.50020027160645,-199.95999336242676" />
<path stroke-width="0.5" fill="none" stroke="red" fill-opacity="0.5" d="M77.50020027160645,-190.4773473739624" />
<path stroke-width="0.5" fill="none" stroke="red" fill-opacity="0.5" d="M72.50018119812012,-185.73601245880127" />
<path stroke-width="0.5" fill="none" stroke="red" fill-opacity="0.5" d="M67.50016212463379,-183.3653450012207" />
<path stroke-width="0.5" fill="none" stroke="red" fill-opacity="0.5" d="M65.00012874603271,-178.62401008605957" />
<path stroke-width="0.5" fill="none" stroke="red" fill-opacity="0.5" d="M60.0001335144043,-180.99467754364014" />
<path stroke-width="0.5" fill="none" stroke="red" fill-opacity="0.5" d="M65.00015258789062,-188.10667991638184" />
<path stroke-width="0.5" fill="none" stroke="red" fill-opacity="0.5" d="M75.00014305114746,-188.10667991638184" />
<path stroke-width="0.5" fill="none" stroke="red" fill-opacity="0.5" d="M75.00019073486328,-195.21868228912354" />
<path stroke-width="0.5" fill="none" stroke="red" fill-opacity="0.5" d="M77.50020027160645,-199.95999336242676" />
<path stroke-width="0.5" fill="none" stroke="red" fill-opacity="0.5" d="M137.50042915344238,-199.95999336242676 L130.0004005432129,-204.10871505737305 L130.0004005432129,-207.07201957702637 L130.00037670135498,-207.07201957702637 L125.00038146972656,-207.07201957702637 L122.5003719329834,-204.7013282775879 L115.0003433227539,-204.7013282775879 L117.50037670135498,-199.367356300354 L115.0003433227539,-201.73802375793457 L122.5003719329834,-207.07201957702637 L135.00041961669922,-201.73802375793457 L140.00046253204346,-202.33068466186523 L147.50049114227295,-202.33068466186523 L150.0005006790161,-192.84801483154297 L155.00049591064453,-185.73601245880127 L152.50051021575928,-180.99467754364014 L150.0004768371582,-176.253342628479 L142.50047206878662,-173.88267517089844 L137.50042915344238,-173.88267517089844 L132.50043392181396,-173.88267517089844 L127.50039100646973,-176.253342628479 L125.00040531158447,-178.62401008605957 L120.00038623809814,-185.73601245880127 L117.50035285949707,-190.4773473739624 L120.00036239624023,-192.84801483154297 L120.00038623809814,-188.10667991638184 L115.0003433227539,-199.95999336242676 L115.0003433227539,-197.5893497467041 L110.00032424926758,-199.95999336242676 L110.00032424926758,-190.4773473739624 L102.50029563903809,-197.5893497467041 L97.50027656555176,-197.5893497467041 L90.00024795532227,-195.21868228912354 L87.5002384185791,-190.4773473739624 L82.50021934509277,-188.10667991638184 L77.50020027160645,-190.4773473739624 L85.00022888183594,-185.73601245880127 L87.5002384185791,-192.84801483154297 L90.00024795532227,-202.33068466186523 L87.5002384185791,-207.07201957702637 L90.00024795532227,-197.5893497467041 L77.50020027160645,-199.95999336242676 L77.50020027160645,-190.4773473739624 L72.50018119812012,-185.73601245880127 L67.50016212463379,-183.3653450012207 L65.00012874603271,-178.62401008605957 L60.0001335144043,-180.99467754364014 L65.00015258789062,-188.10667991638184 L75.00014305114746,-188.10667991638184 L75.00019073486328,-195.21868228912354 L77.50020027160645,-199.95999336242676" />
<path stroke-width="0.5" fill="none" stroke="red" fill-opacity="0.5" d="M137.50042915344238,-199.95999336242676" />
<path stroke-width="0.5" fill="none" stroke="red" fill-opacity="0.5" d="M136.897611618042,-200.2425193786621" />
<path stroke-width="0.5" fill="none" stroke="red" fill-opacity="0.5" d="M135.82022190093994,-201.3564109802246" />
<path stroke-width="0.5" fill="none" stroke="red" fill-opacity="0.5" d="M134.49265956878662,-201.92604064941406" />
<path stroke-width="0.5" fill="none" stroke="red" fill-opacity="0.5" d="M133.90870094299316,-202.50110626220703" />
<path stroke-width="0.5" fill="none" stroke="red" fill-opacity="0.5" d="M131.40275478363037,-202.8156280517578" />
<path stroke-width="0.5" fill="none" stroke="red" fill-opacity="0.5" d="M128.74059677124023,-202.9076099395752" />
<path stroke-width="0.5" fill="none" stroke="red" fill-opacity="0.5" d="M125.52928924560547,-202.9500961303711" />
<path stroke-width="0.5" fill="none" stroke="red" fill-opacity="0.5" d="M123.38714599609375,-202.95844078063965" />
<path stroke-width="0.5" fill="none" stroke="red" fill-opacity="0.5" d="M123.04842472076416,-203.2433032989502" />
<path stroke-width="0.5" fill="none" stroke="red" fill-opacity="0.5" d="M124.07586574554443,-203.35845947265625" />
<path stroke-width="0.5" fill="none" stroke="red" fill-opacity="0.5" d="M127.51350402832031,-203.32059860229492" />
<path stroke-width="0.5" fill="none" stroke="red" fill-opacity="0.5" d="M132.173490524292,-202.60086059570312" />
<path stroke-width="0.5" fill="none" stroke="red" fill-opacity="0.5" d="M136.78672313690186,-202.05402374267578" />
<path stroke-width="0.5" fill="none" stroke="red" fill-opacity="0.5" d="M140.84181785583496,-198.22697639465332" />
<path stroke-width="0.5" fill="none" stroke="red" fill-opacity="0.5" d="M144.00570392608643,-193.47898960113525" />
<path stroke-width="0.5" fill="none" stroke="red" fill-opacity="0.5" d="M145.20094394683838,-188.73231410980225" />
<path stroke-width="0.5" fill="none" stroke="red" fill-opacity="0.5" d="M145.29931545257568,-185.14769077301025" />
<path stroke-width="0.5" fill="none" stroke="red" fill-opacity="0.5" d="M144.69571113586426,-182.6622486114502" />
<path stroke-width="0.5" fill="none" stroke="red" fill-opacity="0.5" d="M142.71740913391113,-181.07943534851074" />
<path stroke-width="0.5" fill="none" stroke="red" fill-opacity="0.5" d="M138.78612518310547,-180.50527572631836" />
<path stroke-width="0.5" fill="none" stroke="red" fill-opacity="0.5" d="M135.0698709487915,-180.42874336242676" />
<path stroke-width="0.5" fill="none" stroke="red" fill-opacity="0.5" d="M131.64145946502686,-180.60834407806396" />
<path stroke-width="0.5" fill="none" stroke="red" fill-opacity="0.5" d="M129.0471315383911,-181.40006065368652" />
<path stroke-width="0.5" fill="none" stroke="red" fill-opacity="0.5" d="M127.68313884735107,-182.62786865234375" />
<path stroke-width="0.5" fill="none" stroke="red" fill-opacity="0.5" d="M126.76572799682617,-184.1719627380371" />
<path stroke-width="0.5" fill="none" stroke="red" fill-opacity="0.5" d="M124.53269958496094,-187.42265701293945" />
<path stroke-width="0.5" fill="none" stroke="red" fill-opacity="0.5" d="M122.8999137878418,-189.34576511383057" />
<path stroke-width="0.5" fill="none" stroke="red" fill-opacity="0.5" d="M120.14234066009521,-191.49582386016846" />
<path stroke-width="0.5" fill="none" stroke="red" fill-opacity="0.5" d="M117.36650466918945,-192.4684762954712" />
<path stroke-width="0.5" fill="none" stroke="red" fill-opacity="0.5" d="M113.6709451675415,-193.02146434783936" />
<path stroke-width="0.5" fill="none" stroke="red" fill-opacity="0.5" d="M110.29863357543945,-193.4208869934082" />
<path stroke-width="0.5" fill="none" stroke="red" fill-opacity="0.5" d="M106.22527599334717,-193.46766471862793" />
<path stroke-width="0.5" fill="none" stroke="red" fill-opacity="0.5" d="M100.73568820953369,-193.45510005950928" />
<path stroke-width="0.5" fill="none" stroke="red" fill-opacity="0.5" d="M95.74439525604248,-193.2001829147339" />
<path stroke-width="0.5" fill="none" stroke="red" fill-opacity="0.5" d="M91.50543212890625,-192.68133640289307" />
<path stroke-width="0.5" fill="none" stroke="red" fill-opacity="0.5" d="M89.54813480377197,-192.0738697052002" />
<path stroke-width="0.5" fill="none" stroke="red" fill-opacity="0.5" d="M89.06192779541016,-192.0546531677246" />
<path stroke-width="0.5" fill="none" stroke="red" fill-opacity="0.5" d="M89.03095722198486,-193.12176704406738" />
<path stroke-width="0.5" fill="none" stroke="red" fill-opacity="0.5" d="M89.03131484985352,-195.38583755493164" />
<path stroke-width="0.5" fill="none" stroke="red" fill-opacity="0.5" d="M89.01288509368896,-196.6913938522339" />
<path stroke-width="0.5" fill="none" stroke="red" fill-opacity="0.5" d="M88.42871189117432,-196.74057960510254" />
<path stroke-width="0.5" fill="none" stroke="red" fill-opacity="0.5" d="M86.65907382965088,-196.57554626464844" />
<path stroke-width="0.5" fill="none" stroke="red" fill-opacity="0.5" d="M84.41100120544434,-195.06399631500244" />
<path stroke-width="0.5" fill="none" stroke="red" fill-opacity="0.5" d="M81.17637634277344,-192.4077033996582" />
<path stroke-width="0.5" fill="none" stroke="red" fill-opacity="0.5" d="M76.84171199798584,-189.9522066116333" />
<path stroke-width="0.5" fill="none" stroke="red" fill-opacity="0.5" d="M73.39692115783691,-187.98208236694336" />
<path stroke-width="0.5" fill="none" stroke="red" fill-opacity="0.5" d="M71.43049240112305,-187.48409748077393" />
<path stroke-width="0.5" fill="none" stroke="red" fill-opacity="0.5" d="M70.87178230285645,-187.6711368560791" />
<path stroke-width="0.5" fill="none" stroke="red" fill-opacity="0.5" d="M70.88449001312256,-188.54403495788574" />
<path stroke-width="0.5" fill="none" stroke="red" fill-opacity="0.5" d="M71.8177080154419,-189.85092639923096" />
<path stroke-width="0.5" fill="none" stroke="black" fill-opacity="0.5" d="M137.50042915344238,-199.95999336242676 L136.897611618042,-200.2425193786621 L135.82022190093994,-201.3564109802246 L134.49265956878662,-201.92604064941406 L133.90870094299316,-202.50110626220703 L131.40275478363037,-202.8156280517578 L128.74059677124023,-202.9076099395752 L125.52928924560547,-202.9500961303711 L123.38714599609375,-202.95844078063965 L123.04842472076416,-203.2433032989502 L124.07586574554443,-203.35845947265625 L127.51350402832031,-203.32059860229492 L132.173490524292,-202.60086059570312 L136.78672313690186,-202.05402374267578 L140.84181785583496,-198.22697639465332 L144.00570392608643,-193.47898960113525 L145.20094394683838,-188.73231410980225 L145.29931545257568,-185.14769077301025 L144.69571113586426,-182.6622486114502 L142.71740913391113,-181.07943534851074 L138.78612518310547,-180.50527572631836 L135.0698709487915,-180.42874336242676 L131.64145946502686,-180.60834407806396 L129.0471315383911,-181.40006065368652 L127.68313884735107,-182.62786865234375 L126.76572799682617,-184.1719627380371 L124.53269958496094,-187.42265701293945 L122.8999137878418,-189.34576511383057 L120.14234066009521,-191.49582386016846 L117.36650466918945,-192.4684762954712 L113.6709451675415,-193.02146434783936 L110.29863357543945,-193.4208869934082 L106.22527599334717,-193.46766471862793 L100.73568820953369,-193.45510005950928 L95.74439525604248,-193.2001829147339 L91.50543212890625,-192.68133640289307 L89.54813480377197,-192.0738697052002 L89.06192779541016,-192.0546531677246 L89.03095722198486,-193.12176704406738 L89.03131484985352,-195.38583755493164 L89.01288509368896,-196.6913938522339 L88.42871189117432,-196.74057960510254 L86.65907382965088,-196.57554626464844 L84.41100120544434,-195.06399631500244 L81.17637634277344,-192.4077033996582 L76.84171199798584,-189.9522066116333 L73.39692115783691,-187.98208236694336 L71.43049240112305,-187.48409748077393 L70.87178230285645,-187.6711368560791 L70.88449001312256,-188.54403495788574 L71.8177080154419,-189.85092639923096" />
</svg>