<?xml version="1.0" encoding="UTF-8"?>
<svg xmlns="http://www.w3.org/2000/svg" xmlns:xlink="http://www.w3.org/1999/xlink"
     width="600" height="600" viewBox="0 -300 300 300">
<defs>
</defs>
<path stroke-width="0.5" fill="none" stroke="red" fill-opacity="0.5" d="M97.50025272369385,-178.62401008605957" />
<path stroke-width="0.5" fill="none" stroke="red" fill-opacity="0.5" d="M92.50025749206543,-183.3653450012207" />
<path stroke-width="0.5" fill="none" stroke="red" fill-opacity="0.5" d="M92.50025749206543,-185.73601245880127" />
<path stroke-width="0.5" fill="none" stroke="red" fill-opacity="0.5" d="M95.0002670288086,-178.62401008605957" />
<path stroke-width="0.5" fill="none" stroke="red" fill-opacity="0.5" d="M107.50031471252441,-145.43466567993164" />
<path stroke-width="0.5" fill="none" stroke="red" fill-opacity="0.5" d="M102.50029563903809,-152.54666805267334" />
<path stroke-width="0.5" fill="none" stroke="red" fill-opacity="0.5" d="M97.50027656555176,-162.0293378829956" />
<path stroke-width="0.5" fill="none" stroke="red" fill-opacity="0.5" d="M95.00024318695068,-173.88267517089844" />
<path stroke-width="0.5" fill="none" stroke="red" fill-opacity="0.5" d="M97.50025272369385,-183.3653450012207" />
<path stroke-width="0.5" fill="none" stroke="red" fill-opacity="0.5" d="M92.50023365020752,-183.3653450012207" />
<path stroke-width="0.5" fill="none" stroke="red" fill-opacity="0.5" d="M92.50023365020752,-183.3653450012207" />
<path stroke-width="0.5" fill="none" stroke="red" fill-opacity="0.5" d="M105.00030517578125,-180.99467754364014" />
<path stroke-width="0.5" fill="none" stroke="red" fill-opacity="0.5" d="M112.50033378601074,-178.62401008605957" />
<path stroke-width="0.5" fill="none" stroke="red" fill-opacity="0.5" d="M110.00032424926758,-188.10667991638184" />
<path stroke-width="0.5" fill="none" stroke="red" fill-opacity="0.5" d="M115.00036716461182,-185.73601245880127" />
<path stroke-width="0.5" fill="none" stroke="red" fill-opacity="0.5" d="M117.50037670135498,-188.10667991638184" />
<path stroke-width="0.5" fill="none" stroke="red" fill-opacity="0.5" d="M132.50043392181396,-197.5893497467041" />
<path stroke-width="0.5" fill="none" stroke="red" fill-opacity="0.5" d="M132.50043392181396,-189.88466262817383" />
<path stroke-width="0.5" fill="none" stroke="red" fill-opacity="0.5" d="M135.00044345855713,-176.253342628479" />
<path stroke-width="0.5" fill="none" stroke="red" fill-opacity="0.5" d="M132.50041007995605,-162.0293378829956" />
<path stroke-width="0.5" fill="none" stroke="red" fill-opacity="0.5" d="M140.00046253204346,-162.0293378829956" />
<path stroke-width="0.5" fill="none" stroke="red" fill-opacity="0.5" d="M142.50047206878662,-173.88267517089844" />
<path stroke-width="0.5" fill="none" stroke="red" fill-opacity="0.5" d="M142.50047206878662,-185.73601245880127" />
<path stroke-width="0.5" fill="none" stroke="red" fill-opacity="0.5" d="M152.50048637390137,-190.4773473739624" />
<path stroke-width="0.5" fill="none" stroke="red" fill-opacity="0.5" d="M147.50049114227295,-188.10667991638184" />
<path stroke-width="0.5" fill="none" stroke="red" fill-opacity="0.5" d="M150.0004768371582,-164.40000534057617" />
<path stroke-width="0.5" fill="none" stroke="red" fill-opacity="0.5" d="M147.50046730041504,-154.9173355102539" />
<path stroke-width="0.5" fill="none" stroke="red" fill-opacity="0.5" d="M155.00051975250244,-164.40000534057617" />
<path stroke-width="0.5" fill="none" stroke="red" fill-opacity="0.5" d="M155.00051975250244,-192.84801483154297" />
<path stroke-width="0.5" fill="none" stroke="red" fill-opacity="0.5" d="M157.5005292892456,-194.62599754333496" />
<path stroke-width="0.5" fill="none" stroke="red" fill-opacity="0.5" d="M162.50052452087402,-188.10667991638184" />
<path stroke-width="0.5" fill="none" stroke="red" fill-opacity="0.5" d="M160.00053882598877,-183.3653450012207" />
<path stroke-width="0.5" fill="none" stroke="red" fill-opacity="0.5" d="M165.0005340576172,-157.28800296783447" />
<path stroke-width="0.5" fill="none" stroke="red" fill-opacity="0.5" d="M157.5005054473877,-147.8053331375122" />
<path stroke-width="0.5" fill="none" stroke="red" fill-opacity="0.5" d="M165.0005340576172,-150.17600059509277" />
<path stroke-width="0.5" fill="none" stroke="red" fill-opacity="0.5" d="M162.50054836273193,-166.77067279815674" />
<path stroke-width="0.5" fill="none" stroke="red" fill-opacity="0.5" d="M162.50054836273193,-190.4773473739624" />
<path stroke-width="0.5" fill="none" stroke="red" fill-opacity="0.5" d="M165.0005340576172,-199.367356300354" />
<path stroke-width="0.5" fill="none" stroke="red" fill-opacity="0.5" d="M165.0005578994751,-192.84801483154297" />
<path stroke-width="0.5" fill="none" stroke="red" fill-opacity="0.5" d="M170.00057697296143,-178.62401008605957" />
<path stroke-width="0.5" fill="none" stroke="red" fill-opacity="0.5" d="M185.0006341934204,-166.77067279815674" />
<path stroke-width="0.5" fill="none" stroke="red" fill-opacity="0.5" d="M185.0006103515625,-140.6933307647705" />
<path stroke-width="0.5" fill="none" stroke="red" fill-opacity="0.5" d="M185.0006103515625,-140.6933307647705" />
<path stroke-width="0.5" fill="none" stroke="red" fill-opacity="0.5" d="M185.0006103515625,-140.6933307647705" />
<path stroke-width="0.5" fill="none" stroke="red" fill-opacity="0.5" d="M185.0006103515625,-140.6933307647705" />
<path stroke-width="0.5" fill="none" stroke="red" fill-opacity="0.5" d="M185.0006103515625,-140.6933307647705" />
<path stroke-width="0.5" fill="none" stroke="red" fill-opacity="0.5" d="M185.0006103515625,-140.6933307647705" />
<path stroke-width="0.5" fill="none" stroke="red" fill-opacity="0.5" d="M185.0006103515625,-140.6933307647705" />
<path stroke-width="0.5" fill="none" stroke="red" fill-opacity="0.5" d="M185.0006103515625,-140.6933307647705" />
<path stroke-width="0.5" fill="none" stroke="red" fill-opacity="0.5" d="M97.50025272369385,-178.62401008605957 L92.50025749206543,-183.3653450012207 L92.50025749206543,-185.73601245880127 L95.0002670288086,-178.62401008605957 L107.50031471252441,-145.43466567993164 L102.50029563903809,-152.54666805267334 L97.50027656555176,-162.0293378829956 L95.00024318695068,-173.88267517089844 L97.50025272369385,-183.3653450012207 L92.50023365020752,-183.3653450012207 L92.50023365020752,-183.3653450012207 L105.00030517578125,-180.99467754364014 L112.50033378601074,-178.62401008605957 L110.00032424926758,-188.10667991638184 L115.00036716461182,-185.73601245880127 L117.50037670135498,-188.10667991638184 L132.50043392181396,-197.5893497467041 L132.50043392181396,-189.88466262817383 L135.00044345855713,-176.253342628479 L132.50041007995605,-162.0293378829956 L140.00046253204346,-162.0293378829956 L142.50047206878662,-173.88267517089844 L142.50047206878662,-185.73601245880127 L152.50048637390137,-190.4773473739624 L147.50049114227295,-188.10667991638184 L150.0004768371582,-164.40000534057617 L147.50046730041504,-154.9173355102539 L155.00051975250244,-164.40000534057617 L155.00051975250244,-192.84801483154297 L157.5005292892456,-194.62599754333496 L162.50052452087402,-188.10667991638184 L160.00053882598877,-183.3653450012207 L165.0005340576172,-157.28800296783447 L157.5005054473877,-147.8053331375122 L165.0005340576172,-150.17600059509277 L162.50054836273193,-166.77067279815674 L162.50054836273193,-190.4773473739624 L165.0005340576172,-199.367356300354 L165.0005578994751,-192.84801483154297 L170.00057697296143,-178.62401008605957 L185.0006341934204,-166.77067279815674 L185.0006103515625,-140.6933307647705 L185.0006103515625,-140.6933307647705 L185.0006103515625,-140.6933307647705 L185.0006103515625,-140.6933307647705 L185.0006103515625,-140.6933307647705 L185.0006103515625,-140.6933307647705 L185.0006103515625,-140.6933307647705 L185.0006103515625,-140.6933307647705" />
<path stroke-width="0.5" fill="none" stroke="red" fill-opacity="0.5" d="M97.50025272369385,-178.62401008605957" />
<path stroke-width="0.5" fill="none" stroke="red" fill-opacity="0.5" d="M97.12209701538086,-178.91459465026855" />
<path stroke-width="0.5" fill="none" stroke="red" fill-opacity="0.5" d="M96.92163467407227,-179.16080951690674" />
<path stroke-width="0.5" fill="none" stroke="red" fill-opacity="0.5" d="M96.86582088470459,-179.18615341186523" />
<path stroke-width="0.5" fill="none" stroke="red" fill-opacity="0.5" d="M97.29888439178467,-171.71587944030762" />
<path stroke-width="0.5" fill="none" stroke="red" fill-opacity="0.5" d="M98.25186729431152,-164.14811611175537" />
<path stroke-width="0.5" fill="none" stroke="red" fill-opacity="0.5" d="M98.26281070709229,-163.4984016418457" />
<path stroke-width="0.5" fill="none" stroke="red" fill-opacity="0.5" d="M98.21755886077881,-164.19448852539062" />
<path stroke-width="0.5" fill="none" stroke="red" fill-opacity="0.5" d="M98.23122024536133,-167.08195209503174" />
<path stroke-width="0.5" fill="none" stroke="red" fill-opacity="0.5" d="M97.90816307067871,-170.50929069519043" />
<path stroke-width="0.5" fill="none" stroke="red" fill-opacity="0.5" d="M97.28646278381348,-173.636794090271" />
<path stroke-width="0.5" fill="none" stroke="red" fill-opacity="0.5" d="M97.32348918914795,-175.22587776184082" />
<path stroke-width="0.5" fill="none" stroke="red" fill-opacity="0.5" d="M99.87635612487793,-175.657057762146" />
<path stroke-width="0.5" fill="none" stroke="red" fill-opacity="0.5" d="M102.43198871612549,-176.67481899261475" />
<path stroke-width="0.5" fill="none" stroke="red" fill-opacity="0.5" d="M104.17912006378174,-179.00283336639404" />
<path stroke-width="0.5" fill="none" stroke="red" fill-opacity="0.5" d="M107.38852024078369,-179.62143421173096" />
<path stroke-width="0.5" fill="none" stroke="red" fill-opacity="0.5" d="M111.06278896331787,-182.94596672058105" />
<path stroke-width="0.5" fill="none" stroke="red" fill-opacity="0.5" d="M118.37172508239746,-184.84468460083008" />
<path stroke-width="0.5" fill="none" stroke="red" fill-opacity="0.5" d="M123.44439029693604,-184.57825183868408" />
<path stroke-width="0.5" fill="none" stroke="red" fill-opacity="0.5" d="M126.28076076507568,-180.63147068023682" />
<path stroke-width="0.5" fill="none" stroke="red" fill-opacity="0.5" d="M129.28409576416016,-174.23019409179688" />
<path stroke-width="0.5" fill="none" stroke="red" fill-opacity="0.5" d="M132.40458965301514,-172.66511917114258" />
<path stroke-width="0.5" fill="none" stroke="red" fill-opacity="0.5" d="M134.95705127716064,-173.785138130188" />
<path stroke-width="0.5" fill="none" stroke="red" fill-opacity="0.5" d="M138.8199806213379,-179.49445247650146" />
<path stroke-width="0.5" fill="none" stroke="red" fill-opacity="0.5" d="M141.1341905593872,-182.3359251022339" />
<path stroke-width="0.5" fill="none" stroke="red" fill-opacity="0.5" d="M142.27657318115234,-181.44738674163818" />
<path stroke-width="0.5" fill="none" stroke="red" fill-opacity="0.5" d="M142.99359321594238,-173.81751537322998" />
<path stroke-width="0.5" fill="none" stroke="red" fill-opacity="0.5" d="M144.3317413330078,-169.6829080581665" />
<path stroke-width="0.5" fill="none" stroke="red" fill-opacity="0.5" d="M148.03156852722168,-172.2127914428711" />
<path stroke-width="0.5" fill="none" stroke="red" fill-opacity="0.5" d="M149.77710247039795,-179.8161745071411" />
<path stroke-width="0.5" fill="none" stroke="red" fill-opacity="0.5" d="M150.8695363998413,-183.64660739898682" />
<path stroke-width="0.5" fill="none" stroke="red" fill-opacity="0.5" d="M152.69544124603271,-184.37745571136475" />
<path stroke-width="0.5" fill="none" stroke="red" fill-opacity="0.5" d="M154.6767234802246,-180.02891540527344" />
<path stroke-width="0.5" fill="none" stroke="red" fill-opacity="0.5" d="M156.22472763061523,-168.6166524887085" />
<path stroke-width="0.5" fill="none" stroke="red" fill-opacity="0.5" d="M156.86306953430176,-160.7675075531006" />
<path stroke-width="0.5" fill="none" stroke="red" fill-opacity="0.5" d="M158.16407203674316,-159.92403030395508" />
<path stroke-width="0.5" fill="none" stroke="red" fill-opacity="0.5" d="M159.29105281829834,-166.72217845916748" />
<path stroke-width="0.5" fill="none" stroke="red" fill-opacity="0.5" d="M159.82422828674316,-175.90410709381104" />
<path stroke-width="0.5" fill="none" stroke="red" fill-opacity="0.5" d="M160.4084014892578,-184.12542343139648" />
<path stroke-width="0.5" fill="none" stroke="red" fill-opacity="0.5" d="M161.41817569732666,-184.7625970840454" />
<path stroke-width="0.5" fill="none" stroke="red" fill-opacity="0.5" d="M165.16454219818115,-182.59105682373047" />
<path stroke-width="0.5" fill="none" stroke="red" fill-opacity="0.5" d="M172.18148708343506,-170.60420513153076" />
<path stroke-width="0.5" fill="none" stroke="red" fill-opacity="0.5" d="M175.41391849517822,-157.6810121536255" />
<path stroke-width="0.5" fill="none" stroke="red" fill-opacity="0.5" d="M177.27949619293213,-152.44107246398926" />
<path stroke-width="0.5" fill="none" stroke="red" fill-opacity="0.5" d="M178.52704524993896,-149.73492622375488" />
<path stroke-width="0.5" fill="none" stroke="red" fill-opacity="0.5" d="M179.42466735839844,-148.06268215179443" />
<path stroke-width="0.5" fill="none" stroke="red" fill-opacity="0.5" d="M180.10292053222656,-146.91901206970215" />
<path stroke-width="0.5" fill="none" stroke="red" fill-opacity="0.5" d="M180.63414096832275,-146.08471393585205" />
<path stroke-width="0.5" fill="none" stroke="red" fill-opacity="0.5" d="M181.06181621551514,-145.44806480407715" />
<path stroke-width="0.5" fill="none" stroke="black" fill-opacity="0.5" d="M97.50025272369385,-178.62401008605957 L97.12209701538086,-178.91459465026855 L96.92163467407227,-179.16080951690674 L96.86582088470459,-179.18615341186523 L97.29888439178467,-171.71587944030762 L98.25186729431152,-164.14811611175537 L98.26281070709229,-163.4984016418457 L98.21755886077881,-164.19448852539062 L98.23122024536133,-167.08195209503174 L97.90816307067871,-170.50929069519043 L97.28646278381348,-173.636794090271 L97.32348918914795,-175.22587776184082 L99.87635612487793,-175.657057762146 L102.43198871612549,-176.67481899261475 L104.17912006378174,-179.00283336639404 L107.38852024078369,-179.62143421173096 L111.06278896331787,-182.94596672058105 L118.37172508239746,-184.84468460083008 L123.44439029693604,-184.57825183868408 L126.28076076507568,-180.63147068023682 L129.28409576416016,-174.23019409179688 L132.40458965301514,-172.66511917114258 L134.95705127716064,-173.785138130188 L138.8199806213379,-179.49445247650146 L141.1341905593872,-182.3359251022339 L142.27657318115234,-181.44738674163818 L142.99359321594238,-173.81751537322998 L144.3317413330078,-169.6829080581665 L148.03156852722168,-172.2127914428711 L149.77710247039795,-179.8161745071411 L150.8695363998413,-183.64660739898682 L152.69544124603271,-184.37745571136475 L154.6767234802246,-180.02891540527344 L156.22472763061523,-168.6166524887085 L156.86306953430176,-160.7675075531006 L158.16407203674316,-159.92403030395508 L159.29105281829834,-166.72217845916748 L159.82422828674316,-175.90410709381104 L160.4084014892578,-184.12542343139648 L161.41817569732666,-184.7625970840454 L165.16454219818115,-182.59105682373047 L172.18148708343506,-170.60420513153076 L175.41391849517822,-157.6810121536255 L177.27949619293213,-152.44107246398926 L178.52704524993896,-149.73492622375488 L179.42466735839844,-148.06268215179443 L180.10292053222656,-146.91901206970215 L180.63414096832275,-146.08471393585205 L181.06181621551514,-145.44806480407715" />
</svg>