<?xml version="1.0" encoding="UTF-8"?>
<svg xmlns="http://www.w3.org/2000/svg" xmlns:xlink="http://www.w3.org/1999/xlink"
     width="600" height="600" viewBox="0 -300 300 300">
<defs>
</defs>
<path stroke-width="0.5" fill="none" stroke="red" fill-opacity="0.5" d="M120.00033855438232,-204.7013282775879" />
<path stroke-width="0.5" fill="none" stroke="red" fill-opacity="0.5" d="M117.50032901763916,-197.5893497467041" />
<path stroke-width="0.5" fill="none" stroke="red" fill-opacity="0.5" d="M122.50034809112549,-195.21868228912354" />
<path stroke-width="0.5" fill="none" stroke="red" fill-opacity="0.5" d="M122.50034809112549,-195.21868228912354" />
<path stroke-width="0.5" fill="none" stroke="red" fill-opacity="0.5" d="M122.50034809112549,-195.21868228912354" />
<path stroke-width="0.5" fill="none" stroke="red" fill-opacity="0.5" d="M122.50034809112549,-195.21868228912354" />
<path stroke-width="0.5" fill="none" stroke="red" fill-opacity="0.5" d="M122.50034809112549,-195.21868228912354" />
<path stroke-width="0.5" fill="none" stroke="red" fill-opacity="0.5" d="M107.5002908706665,-207.07201957702637" />
<path stroke-width="0.5" fill="none" stroke="red" fill-opacity="0.5" d="M105.00028133392334,-204.7013282775879" />
<path stroke-width="0.5" fill="none" stroke="red" fill-opacity="0.5" d="M107.50031471252441,-190.4773473739624" />
<path stroke-width="0.5" fill="none" stroke="red" fill-opacity="0.5" d="M117.50035285949707,-169.1413402557373" />
<path stroke-width="0.5" fill="none" stroke="red" fill-opacity="0.5" d="M112.50030994415283,-159.65867042541504" />
<path stroke-width="0.5" fill="none" stroke="red" fill-opacity="0.5" d="M112.50030994415283,-150.17600059509277" />
<path stroke-width="0.5" fill="none" stroke="red" fill-opacity="0.5" d="M95.00024318695068,-150.17600059509277" />
<path stroke-width="0.5" fill="none" stroke="red" fill-opacity="0.5" d="M80.0001859664917,-162.0293378829956" />
<path stroke-width="0.5" fill="none" stroke="red" fill-opacity="0.5" d="M77.50017642974854,-173.88267517089844" />
<path stroke-width="0.5" fill="none" stroke="red" fill-opacity="0.5" d="M80.0001859664917,-185.73601245880127" />
<path stroke-width="0.5" fill="none" stroke="red" fill-opacity="0.5" d="M92.50023365020752,-197.5893497467041" />
<path stroke-width="0.5" fill="none" stroke="red" fill-opacity="0.5" d="M107.5002908706665,-204.7013282775879" />
<path stroke-width="0.5" fill="none" stroke="red" fill-opacity="0.5" d="M122.5003719329834,-194.62599754333496" />
<path stroke-width="0.5" fill="none" stroke="red" fill-opacity="0.5" d="M137.50042915344238,-189.88466262817383" />
<path stroke-width="0.5" fill="none" stroke="red" fill-opacity="0.5" d="M150.0004768371582,-185.73601245880127" />
<path stroke-width="0.5" fill="none" stroke="red" fill-opacity="0.5" d="M155.00051975250244,-171.51200771331787" />
<path stroke-width="0.5" fill="none" stroke="red" fill-opacity="0.5" d="M162.50052452087402,-169.1413402557373" />
<path stroke-width="0.5" fill="none" stroke="red" fill-opacity="0.5" d="M162.50052452087402,-169.1413402557373" />
<path stroke-width="0.5" fill="none" stroke="red" fill-opacity="0.5" d="M162.50052452087402,-169.1413402557373" />
<path stroke-width="0.5" fill="none" stroke="red" fill-opacity="0.5" d="M162.50052452087402,-169.1413402557373" />
<path stroke-width="0.5" fill="none" stroke="red" fill-opacity="0.5" d="M162.50052452087402,-169.1413402557373" />
<path stroke-width="0.5" fill="none" stroke="red" fill-opacity="0.5" d="M162.50052452087402,-169.1413402557373" />
<path stroke-width="0.5" fill="none" stroke="red" fill-opacity="0.5" d="M162.50052452087402,-169.1413402557373" />
<path stroke-width="0.5" fill="none" stroke="red" fill-opacity="0.5" d="M120.00033855438232,-204.7013282775879 L117.50032901763916,-197.5893497467041 L122.50034809112549,-195.21868228912354 L122.50034809112549,-195.21868228912354 L122.50034809112549,-195.21868228912354 L122.50034809112549,-195.21868228912354 L122.50034809112549,-195.21868228912354 L107.5002908706665,-207.07201957702637 L105.00028133392334,-204.7013282775879 L107.50031471252441,-190.4773473739624 L117.50035285949707,-169.1413402557373 L112.50030994415283,-159.65867042541504 L112.50030994415283,-150.17600059509277 L95.00024318695068,-150.17600059509277 L80.0001859664917,-162.0293378829956 L77.50017642974854,-173.88267517089844 L80.0001859664917,-185.73601245880127 L92.50023365020752,-197.5893497467041 L107.5002908706665,-204.7013282775879 L122.5003719329834,-194.62599754333496 L137.50042915344238,-189.88466262817383 L150.0004768371582,-185.73601245880127 L155.00051975250244,-171.51200771331787 L162.50052452087402,-169.1413402557373 L162.50052452087402,-169.1413402557373 L162.50052452087402,-169.1413402557373 L162.50052452087402,-169.1413402557373 L162.50052452087402,-169.1413402557373 L162.50052452087402,-169.1413402557373 L162.50052452087402,-169.1413402557373" />
<path stroke-width="0.5" fill="none" stroke="red" fill-opacity="0.5" d="M120.00033855438232,-204.7013282775879" />
<path stroke-width="0.5" fill="none" stroke="red" fill-opacity="0.5" d="M119.92502212524414,-204.2923927307129" />
<path stroke-width="0.5" fill="none" stroke="red" fill-opacity="0.5" d="M119.9155330657959,-202.84667015075684" />
<path stroke-width="0.5" fill="none" stroke="red" fill-opacity="0.5" d="M120.06151676177979,-201.63488388061523" />
<path stroke-width="0.5" fill="none" stroke="red" fill-opacity="0.5" d="M120.2031135559082,-200.7524013519287" />
<path stroke-width="0.5" fill="none" stroke="red" fill-opacity="0.5" d="M120.32995223999023,-200.0838279724121" />
<path stroke-width="0.5" fill="none" stroke="red" fill-opacity="0.5" d="M120.44391632080078,-199.55925941467285" />
<path stroke-width="0.5" fill="none" stroke="red" fill-opacity="0.5" d="M119.2948579788208,-200.57334899902344" />
<path stroke-width="0.5" fill="none" stroke="red" fill-opacity="0.5" d="M116.39266014099121,-201.1777400970459" />
<path stroke-width="0.5" fill="none" stroke="red" fill-opacity="0.5" d="M114.40718173980713,-200.5284309387207" />
<path stroke-width="0.5" fill="none" stroke="red" fill-opacity="0.5" d="M113.96453380584717,-194.40670013427734" />
<path stroke-width="0.5" fill="none" stroke="red" fill-opacity="0.5" d="M114.0162467956543,-181.47313594818115" />
<path stroke-width="0.5" fill="none" stroke="red" fill-opacity="0.5" d="M114.05251026153564,-170.43273448944092" />
<path stroke-width="0.5" fill="none" stroke="red" fill-opacity="0.5" d="M111.3926649093628,-163.5195255279541" />
<path stroke-width="0.5" fill="none" stroke="red" fill-opacity="0.5" d="M104.14302349090576,-161.60383224487305" />
<path stroke-width="0.5" fill="none" stroke="red" fill-opacity="0.5" d="M94.59905624389648,-162.34509944915771" />
<path stroke-width="0.5" fill="none" stroke="red" fill-opacity="0.5" d="M89.78352546691895,-167.49048233032227" />
<path stroke-width="0.5" fill="none" stroke="red" fill-opacity="0.5" d="M89.06927108764648,-176.65143013000488" />
<path stroke-width="0.5" fill="none" stroke="red" fill-opacity="0.5" d="M90.65573215484619,-186.1055850982666" />
<path stroke-width="0.5" fill="none" stroke="red" fill-opacity="0.5" d="M99.88160133361816,-190.78378677368164" />
<path stroke-width="0.5" fill="none" stroke="red" fill-opacity="0.5" d="M112.04583644866943,-191.6254758834839" />
<path stroke-width="0.5" fill="none" stroke="red" fill-opacity="0.5" d="M124.7870683670044,-191.35377407073975" />
<path stroke-width="0.5" fill="none" stroke="red" fill-opacity="0.5" d="M133.61082077026367,-187.82830238342285" />
<path stroke-width="0.5" fill="none" stroke="red" fill-opacity="0.5" d="M144.92204189300537,-182.4779510498047" />
<path stroke-width="0.5" fill="none" stroke="red" fill-opacity="0.5" d="M150.45199394226074,-179.1048526763916" />
<path stroke-width="0.5" fill="none" stroke="red" fill-opacity="0.5" d="M153.28452587127686,-177.105712890625" />
<path stroke-width="0.5" fill="none" stroke="red" fill-opacity="0.5" d="M155.016827583313,-175.78415870666504" />
<path stroke-width="0.5" fill="none" stroke="red" fill-opacity="0.5" d="M156.19378089904785,-174.84209537506104" />
<path stroke-width="0.5" fill="none" stroke="red" fill-opacity="0.5" d="M157.04853534698486,-174.13504123687744" />
<path stroke-width="0.5" fill="none" stroke="red" fill-opacity="0.5" d="M157.69870281219482,-173.583984375" />
<path stroke-width="0.5" fill="none" stroke="black" fill-opacity="0.5" d="M120.00033855438232,-204.7013282775879 L119.92502212524414,-204.2923927307129 L119.9155330657959,-202.84667015075684 L120.06151676177979,-201.63488388061523 L120.2031135559082,-200.7524013519287 L120.32995223999023,-200.0838279724121 L120.44391632080078,-199.55925941467285 L119.2948579788208,-200.57334899902344 L116.39266014099121,-201.1777400970459 L114.40718173980713,-200.5284309387207 L113.96453380584717,-194.40670013427734 L114.0162467956543,-181.47313594818115 L114.05251026153564,-170.43273448944092 L111.3926649093628,-163.5195255279541 L104.14302349090576,-161.60383224487305 L94.59905624389648,-162.34509944915771 L89.78352546691895,-167.49048233032227 L89.06927108764648,-176.65143013000488 L90.65573215484619,-186.1055850982666 L99.88160133361816,-190.78378677368164 L112.04583644866943,-191.6254758834839 L124.7870683670044,-191.35377407073975 L133.61082077026367,-187.82830238342285 L144.92204189300537,-182.4779510498047 L150.45199394226074,-179.1048526763916 L153.28452587127686,-177.105712890625 L155.016827583313,-175.78415870666504 L156.19378089904785,-174.84209537506104 L157.04853534698486,-174.13504123687744 L157.69870281219482,-173.583984375" />
</svg>