<?xml version="1.0" encoding="UTF-8"?>
<svg xmlns="http://www.w3.org/2000/svg" xmlns:xlink="http://www.w3.org/1999/xlink"
     width="600" height="600" viewBox="0 -300 300 300">
<defs>
</defs>
<path stroke-width="0.5" fill="none" stroke="red" fill-opacity="0.5" d="M135.0003957748413,-209.44271087646484" />
<path stroke-width="0.5" fill="none" stroke="red" fill-opacity="0.5" d="M135.0003957748413,-202.33068466186523" />
<path stroke-width="0.5" fill="none" stroke="red" fill-opacity="0.5" d="M135.00041961669922,-214.18404579162598" />
<path stroke-width="0.5" fill="none" stroke="red" fill-opacity="0.5" d="M135.00041961669922,-206.4793586730957" />
<path stroke-width="0.5" fill="none" stroke="red" fill-opacity="0.5" d="M137.50040531158447,-211.8133544921875" />
<path stroke-width="0.5" fill="none" stroke="red" fill-opacity="0.5" d="M135.00041961669922,-214.18404579162598" />
<path stroke-width="0.5" fill="none" stroke="red" fill-opacity="0.5" d="M132.50041007995605,-209.44271087646484" />
<path stroke-width="0.5" fill="none" stroke="red" fill-opacity="0.5" d="M127.50039100646973,-202.33068466186523" />
<path stroke-width="0.5" fill="none" stroke="red" fill-opacity="0.5" d="M130.0004243850708,-185.73601245880127" />
<path stroke-width="0.5" fill="none" stroke="red" fill-opacity="0.5" d="M120.00038623809814,-188.10667991638184" />
<path stroke-width="0.5" fill="none" stroke="red" fill-opacity="0.5" d="M112.50033378601074,-180.99467754364014" />
<path stroke-width="0.5" fill="none" stroke="red" fill-opacity="0.5" d="M112.50033378601074,-169.1413402557373" />
<path stroke-width="0.5" fill="none" stroke="red" fill-opacity="0.5" d="M102.50027179718018,-166.77067279815674" />
<path stroke-width="0.5" fill="none" stroke="red" fill-opacity="0.5" d="M97.50027656555176,-164.40000534057617" />
<path stroke-width="0.5" fill="none" stroke="red" fill-opacity="0.5" d="M85.00020503997803,-164.40000534057617" />
<path stroke-width="0.5" fill="none" stroke="red" fill-opacity="0.5" d="M77.50017642974854,-164.40000534057617" />
<path stroke-width="0.5" fill="none" stroke="red" fill-opacity="0.5" d="M65.00012874603271,-166.77067279815674" />
<path stroke-width="0.5" fill="none" stroke="red" fill-opacity="0.5" d="M65.00012874603271,-169.1413402557373" />
<path stroke-width="0.5" fill="none" stroke="red" fill-opacity="0.5" d="M62.50011920928955,-173.88267517089844" />
<path stroke-width="0.5" fill="none" stroke="red" fill-opacity="0.5" d="M65.00012874603271,-180.99467754364014" />
<path stroke-width="0.5" fill="none" stroke="red" fill-opacity="0.5" d="M70.00014781951904,-185.73601245880127" />
<path stroke-width="0.5" fill="none" stroke="red" fill-opacity="0.5" d="M70.00014781951904,-192.84801483154297" />
<path stroke-width="0.5" fill="none" stroke="red" fill-opacity="0.5" d="M75.00016689300537,-197.5893497467041" />
<path stroke-width="0.5" fill="none" stroke="red" fill-opacity="0.5" d="M87.50021457672119,-202.33068466186523" />
<path stroke-width="0.5" fill="none" stroke="red" fill-opacity="0.5" d="M87.50021457672119,-211.8133544921875" />
<path stroke-width="0.5" fill="none" stroke="red" fill-opacity="0.5" d="M92.50023365020752,-216.55473709106445" />
<path stroke-width="0.5" fill="none" stroke="red" fill-opacity="0.5" d="M97.50025272369385,-218.9253807067871" />
<path stroke-width="0.5" fill="none" stroke="red" fill-opacity="0.5" d="M107.5002908706665,-214.18404579162598" />
<path stroke-width="0.5" fill="none" stroke="red" fill-opacity="0.5" d="M117.50032901763916,-214.18404579162598" />
<path stroke-width="0.5" fill="none" stroke="red" fill-opacity="0.5" d="M122.50034809112549,-207.07201957702637" />
<path stroke-width="0.5" fill="none" stroke="red" fill-opacity="0.5" d="M120.00036239624023,-202.33068466186523" />
<path stroke-width="0.5" fill="none" stroke="red" fill-opacity="0.5" d="M122.50034809112549,-204.10871505737305" />
<path stroke-width="0.5" fill="none" stroke="red" fill-opacity="0.5" d="M125.00038146972656,-195.21868228912354" />
<path stroke-width="0.5" fill="none" stroke="red" fill-opacity="0.5" d="M122.5003719329834,-194.62599754333496" />
<path stroke-width="0.5" fill="none" stroke="red" fill-opacity="0.5" d="M125.00038146972656,-192.84801483154297" />
<path stroke-width="0.5" fill="none" stroke="red" fill-opacity="0.5" d="M125.00038146972656,-190.4773473739624" />
<path stroke-width="0.5" fill="none" stroke="red" fill-opacity="0.5" d="M130.0004005432129,-183.3653450012207" />
<path stroke-width="0.5" fill="none" stroke="red" fill-opacity="0.5" d="M130.0004005432129,-183.3653450012207" />
<path stroke-width="0.5" fill="none" stroke="red" fill-opacity="0.5" d="M135.00041961669922,-176.253342628479" />
<path stroke-width="0.5" fill="none" stroke="red" fill-opacity="0.5" d="M142.5004482269287,-178.62401008605957" />
<path stroke-width="0.5" fill="none" stroke="red" fill-opacity="0.5" d="M145.00045776367188,-180.99467754364014" />
<path stroke-width="0.5" fill="none" stroke="red" fill-opacity="0.5" d="M150.0005006790161,-180.99467754364014" />
<path stroke-width="0.5" fill="none" stroke="red" fill-opacity="0.5" d="M157.5005054473877,-183.3653450012207" />
<path stroke-width="0.5" fill="none" stroke="red" fill-opacity="0.5" d="M157.5005292892456,-182.77266025543213" />
<path stroke-width="0.5" fill="none" stroke="red" fill-opacity="0.5" d="M162.50054836273193,-190.4773473739624" />
<path stroke-width="0.5" fill="none" stroke="red" fill-opacity="0.5" d="M162.50054836273193,-189.88466262817383" />
<path stroke-width="0.5" fill="none" stroke="red" fill-opacity="0.5" d="M165.0005578994751,-199.95999336242676" />
<path stroke-width="0.5" fill="none" stroke="red" fill-opacity="0.5" d="M167.50056743621826,-202.33068466186523" />
<path stroke-width="0.5" fill="none" stroke="red" fill-opacity="0.5" d="M170.00057697296143,-204.7013282775879" />
<path stroke-width="0.5" fill="none" stroke="red" fill-opacity="0.5" d="M172.5005865097046,-204.7013282775879" />
<path stroke-width="0.5" fill="none" stroke="red" fill-opacity="0.5" d="M177.50060558319092,-207.07201957702637" />
<path stroke-width="0.5" fill="none" stroke="red" fill-opacity="0.5" d="M135.0003957748413,-209.44271087646484 L135.0003957748413,-202.33068466186523 L135.00041961669922,-214.18404579162598 L135.00041961669922,-206.4793586730957 L137.50040531158447,-211.8133544921875 L135.00041961669922,-214.18404579162598 L132.50041007995605,-209.44271087646484 L127.50039100646973,-202.33068466186523 L130.0004243850708,-185.73601245880127 L120.00038623809814,-188.10667991638184 L112.50033378601074,-180.99467754364014 L112.50033378601074,-169.1413402557373 L102.50027179718018,-166.77067279815674 L97.50027656555176,-164.40000534057617 L85.00020503997803,-164.40000534057617 L77.50017642974854,-164.40000534057617 L65.00012874603271,-166.77067279815674 L65.00012874603271,-169.1413402557373 L62.50011920928955,-173.88267517089844 L65.00012874603271,-180.99467754364014 L70.00014781951904,-185.73601245880127 L70.00014781951904,-192.84801483154297 L75.00016689300537,-197.5893497467041 L87.50021457672119,-202.33068466186523 L87.50021457672119,-211.8133544921875 L92.50023365020752,-216.55473709106445 L97.50025272369385,-218.9253807067871 L107.5002908706665,-214.18404579162598 L117.50032901763916,-214.18404579162598 L122.50034809112549,-207.07201957702637 L120.00036239624023,-202.33068466186523 L122.50034809112549,-204.10871505737305 L125.00038146972656,-195.21868228912354 L122.5003719329834,-194.62599754333496 L125.00038146972656,-192.84801483154297 L125.00038146972656,-190.4773473739624 L130.0004005432129,-183.3653450012207 L130.0004005432129,-183.3653450012207 L135.00041961669922,-176.253342628479 L142.5004482269287,-178.62401008605957 L145.00045776367188,-180.99467754364014 L150.0005006790161,-180.99467754364014 L157.5005054473877,-183.3653450012207 L157.5005292892456,-182.77266025543213 L162.50054836273193,-190.4773473739624 L162.50054836273193,-189.88466262817383 L165.0005578994751,-199.95999336242676 L167.50056743621826,-202.33068466186523 L170.00057697296143,-204.7013282775879 L172.5005865097046,-204.7013282775879 L177.50060558319092,-207.07201957702637" />
<path stroke-width="0.5" fill="none" stroke="red" fill-opacity="0.5" d="M135.0003957748413,-209.44271087646484" />
<path stroke-width="0.5" fill="none" stroke="red" fill-opacity="0.5" d="M135.0393295288086,-209.196138381958" />
<path stroke-width="0.5" fill="none" stroke="red" fill-opacity="0.5" d="M135.03897190093994,-209.22670364379883" />
<path stroke-width="0.5" fill="none" stroke="red" fill-opacity="0.5" d="M135.0214719772339,-209.29365158081055" />
<path stroke-width="0.5" fill="none" stroke="red" fill-opacity="0.5" d="M135.11011600494385,-209.0686321258545" />
<path stroke-width="0.5" fill="none" stroke="red" fill-opacity="0.5" d="M135.14606952667236,-209.1444492340088" />
<path stroke-width="0.5" fill="none" stroke="red" fill-opacity="0.5" d="M135.07459163665771,-209.3088150024414" />
<path stroke-width="0.5" fill="none" stroke="red" fill-opacity="0.5" d="M134.57345962524414,-209.03449058532715" />
<path stroke-width="0.5" fill="none" stroke="red" fill-opacity="0.5" d="M133.8897705078125,-206.09731674194336" />
<path stroke-width="0.5" fill="none" stroke="red" fill-opacity="0.5" d="M131.81257247924805,-201.37505531311035" />
<path stroke-width="0.5" fill="none" stroke="red" fill-opacity="0.5" d="M128.61192226409912,-196.07067108154297" />
<path stroke-width="0.5" fill="none" stroke="red" fill-opacity="0.5" d="M124.66692924499512,-188.46821784973145" />
<path stroke-width="0.5" fill="none" stroke="red" fill-opacity="0.5" d="M119.36852931976318,-181.76252841949463" />
<path stroke-width="0.5" fill="none" stroke="red" fill-opacity="0.5" d="M112.88790702819824,-177.24392414093018" />
<path stroke-width="0.5" fill="none" stroke="red" fill-opacity="0.5" d="M105.5964708328247,-174.34277534484863" />
<path stroke-width="0.5" fill="none" stroke="red" fill-opacity="0.5" d="M96.33421897888184,-172.3707914352417" />
<path stroke-width="0.5" fill="none" stroke="red" fill-opacity="0.5" d="M86.79230213165283,-171.39160633087158" />
<path stroke-width="0.5" fill="none" stroke="red" fill-opacity="0.5" d="M78.99441719055176,-171.02065086364746" />
<path stroke-width="0.5" fill="none" stroke="red" fill-opacity="0.5" d="M74.56958293914795,-171.00887298583984" />
<path stroke-width="0.5" fill="none" stroke="red" fill-opacity="0.5" d="M72.16160297393799,-171.65257930755615" />
<path stroke-width="0.5" fill="none" stroke="red" fill-opacity="0.5" d="M71.55115604400635,-174.10638332366943" />
<path stroke-width="0.5" fill="none" stroke="red" fill-opacity="0.5" d="M71.40438556671143,-178.2461643218994" />
<path stroke-width="0.5" fill="none" stroke="red" fill-opacity="0.5" d="M71.56891822814941,-183.02946090698242" />
<path stroke-width="0.5" fill="none" stroke="red" fill-opacity="0.5" d="M73.94087314605713,-187.69972324371338" />
<path stroke-width="0.5" fill="none" stroke="red" fill-opacity="0.5" d="M77.32281684875488,-193.6640501022339" />
<path stroke-width="0.5" fill="none" stroke="red" fill-opacity="0.5" d="M80.6833267211914,-201.07049942016602" />
<path stroke-width="0.5" fill="none" stroke="red" fill-opacity="0.5" d="M85.01226902008057,-206.56347274780273" />
<path stroke-width="0.5" fill="none" stroke="red" fill-opacity="0.5" d="M90.89374542236328,-209.132719039917" />
<path stroke-width="0.5" fill="none" stroke="red" fill-opacity="0.5" d="M98.35264682769775,-209.67016220092773" />
<path stroke-width="0.5" fill="none" stroke="red" fill-opacity="0.5" d="M104.8048734664917,-209.67741012573242" />
<path stroke-width="0.5" fill="none" stroke="red" fill-opacity="0.5" d="M109.98163223266602,-209.2440128326416" />
<path stroke-width="0.5" fill="none" stroke="red" fill-opacity="0.5" d="M113.18364143371582,-208.86049270629883" />
<path stroke-width="0.5" fill="none" stroke="red" fill-opacity="0.5" d="M115.34438133239746,-207.37347602844238" />
<path stroke-width="0.5" fill="none" stroke="red" fill-opacity="0.5" d="M116.85047149658203,-204.6666145324707" />
<path stroke-width="0.5" fill="none" stroke="red" fill-opacity="0.5" d="M118.15240383148193,-201.6845703125" />
<path stroke-width="0.5" fill="none" stroke="red" fill-opacity="0.5" d="M119.3180799484253,-199.26679134368896" />
<path stroke-width="0.5" fill="none" stroke="red" fill-opacity="0.5" d="M120.7273006439209,-196.26622200012207" />
<path stroke-width="0.5" fill="none" stroke="red" fill-opacity="0.5" d="M122.4360704421997,-193.37778091430664" />
<path stroke-width="0.5" fill="none" stroke="red" fill-opacity="0.5" d="M125.21109580993652,-189.8447036743164" />
<path stroke-width="0.5" fill="none" stroke="red" fill-opacity="0.5" d="M128.25181484222412,-188.18306922912598" />
<path stroke-width="0.5" fill="none" stroke="red" fill-opacity="0.5" d="M132.26146697998047,-186.96134090423584" />
<path stroke-width="0.5" fill="none" stroke="red" fill-opacity="0.5" d="M136.7617130279541,-185.95898151397705" />
<path stroke-width="0.5" fill="none" stroke="red" fill-opacity="0.5" d="M141.39211177825928,-185.61384677886963" />
<path stroke-width="0.5" fill="none" stroke="red" fill-opacity="0.5" d="M144.63515281677246,-185.394549369812" />
<path stroke-width="0.5" fill="none" stroke="red" fill-opacity="0.5" d="M148.53522777557373,-185.3492021560669" />
<path stroke-width="0.5" fill="none" stroke="red" fill-opacity="0.5" d="M152.11181640625,-186.11934185028076" />
<path stroke-width="0.5" fill="none" stroke="red" fill-opacity="0.5" d="M154.81557846069336,-188.33231925964355" />
<path stroke-width="0.5" fill="none" stroke="red" fill-opacity="0.5" d="M157.75995254516602,-191.07632637023926" />
<path stroke-width="0.5" fill="none" stroke="red" fill-opacity="0.5" d="M160.52768230438232,-193.72859001159668" />
<path stroke-width="0.5" fill="none" stroke="red" fill-opacity="0.5" d="M163.43271732330322,-195.87302207946777" />
<path stroke-width="0.5" fill="none" stroke="red" fill-opacity="0.5" d="M165.52019119262695,-197.59485721588135" />
<path stroke-width="0.5" fill="none" stroke="black" fill-opacity="0.5" d="M135.0003957748413,-209.44271087646484 L135.0393295288086,-209.196138381958 L135.03897190093994,-209.22670364379883 L135.0214719772339,-209.29365158081055 L135.11011600494385,-209.0686321258545 L135.14606952667236,-209.1444492340088 L135.07459163665771,-209.3088150024414 L134.57345962524414,-209.03449058532715 L133.8897705078125,-206.09731674194336 L131.81257247924805,-201.37505531311035 L128.61192226409912,-196.07067108154297 L124.66692924499512,-188.46821784973145 L119.36852931976318,-181.76252841949463 L112.88790702819824,-177.24392414093018 L105.5964708328247,-174.34277534484863 L96.33421897888184,-172.3707914352417 L86.79230213165283,-171.39160633087158 L78.99441719055176,-171.02065086364746 L74.56958293914795,-171.00887298583984 L72.16160297393799,-171.65257930755615 L71.55115604400635,-174.10638332366943 L71.40438556671143,-178.2461643218994 L71.56891822814941,-183.02946090698242 L73.94087314605713,-187.69972324371338 L77.32281684875488,-193.6640501022339 L80.6833267211914,-201.07049942016602 L85.01226902008057,-206.56347274780273 L90.89374542236328,-209.132719039917 L98.35264682769775,-209.67016220092773 L104.8048734664917,-209.67741012573242 L109.98163223266602,-209.2440128326416 L113.18364143371582,-208.86049270629883 L115.34438133239746,-207.37347602844238 L116.85047149658203,-204.6666145324707 L118.15240383148193,-201.6845703125 L119.3180799484253,-199.26679134368896 L120.7273006439209,-196.26622200012207 L122.4360704421997,-193.37778091430664 L125.21109580993652,-189.8447036743164 L128.25181484222412,-188.18306922912598 L132.26146697998047,-186.96134090423584 L136.7617130279541,-185.95898151397705 L141.39211177825928,-185.61384677886963 L144.63515281677246,-185.394549369812 L148.53522777557373,-185.3492021560669 L152.11181640625,-186.11934185028076 L154.81557846069336,-188.33231925964355 L157.75995254516602,-191.07632637023926 L160.52768230438232,-193.72859001159668 L163.43271732330322,-195.87302207946777 L165.52019119262695,-197.59485721588135" />
</svg>