<?xml version="1.0" encoding="UTF-8"?>
<svg xmlns="http://www.w3.org/2000/svg" xmlns:xlink="http://www.w3.org/1999/xlink"
     width="600" height="600" viewBox="0 -300 300 300">
<defs>
</defs>
<path stroke-width="0.5" fill="none" stroke="red" fill-opacity="0.5" d="M92.50025749206543,-173.88267517089844" />
<path stroke-width="0.5" fill="none" stroke="red" fill-opacity="0.5" d="M90.00022411346436,-178.62401008605957" />
<path stroke-width="0.5" fill="none" stroke="red" fill-opacity="0.5" d="M95.00024318695068,-171.51200771331787" />
<path stroke-width="0.5" fill="none" stroke="red" fill-opacity="0.5" d="M130.0004005432129,-154.9173355102539" />
<path stroke-width="0.5" fill="none" stroke="red" fill-opacity="0.5" d="M107.50031471252441,-178.62401008605957" />
<path stroke-width="0.5" fill="none" stroke="red" fill-opacity="0.5" d="M107.50033855438232,-185.73601245880127" />
<path stroke-width="0.5" fill="none" stroke="red" fill-opacity="0.5" d="M107.50031471252441,-192.84801483154297" />
<path stroke-width="0.5" fill="none" stroke="red" fill-opacity="0.5" d="M122.5003719329834,-190.4773473739624" />
<path stroke-width="0.5" fill="none" stroke="red" fill-opacity="0.5" d="M125.00038146972656,-204.7013282775879" />
<path stroke-width="0.5" fill="none" stroke="red" fill-opacity="0.5" d="M137.50042915344238,-197.5893497467041" />
<path stroke-width="0.5" fill="none" stroke="red" fill-opacity="0.5" d="M137.50042915344238,-197.5893497467041" />
<path stroke-width="0.5" fill="none" stroke="red" fill-opacity="0.5" d="M137.50042915344238,-197.5893497467041" />
<path stroke-width="0.5" fill="none" stroke="red" fill-opacity="0.5" d="M137.50042915344238,-197.5893497467041" />
<path stroke-width="0.5" fill="none" stroke="red" fill-opacity="0.5" d="M137.50042915344238,-197.5893497467041" />
<path stroke-width="0.5" fill="none" stroke="red" fill-opacity="0.5" d="M137.50042915344238,-197.5893497467041" />
<path stroke-width="0.5" fill="none" stroke="red" fill-opacity="0.5" d="M137.5004529953003,-197.5893497467041" />
<path stroke-width="0.5" fill="none" stroke="red" fill-opacity="0.5" d="M137.5004529953003,-197.5893497467041" />
<path stroke-width="0.5" fill="none" stroke="red" fill-opacity="0.5" d="M137.50042915344238,-197.5893497467041" />
<path stroke-width="0.5" fill="none" stroke="red" fill-opacity="0.5" d="M137.50042915344238,-197.5893497467041" />
<path stroke-width="0.5" fill="none" stroke="red" fill-opacity="0.5" d="M137.50042915344238,-197.5893497467041" />
<path stroke-width="0.5" fill="none" stroke="red" fill-opacity="0.5" d="M137.50042915344238,-197.5893497467041" />
<path stroke-width="0.5" fill="none" stroke="red" fill-opacity="0.5" d="M137.50042915344238,-197.5893497467041" />
<path stroke-width="0.5" fill="none" stroke="red" fill-opacity="0.5" d="M137.50042915344238,-197.5893497467041" />
<path stroke-width="0.5" fill="none" stroke="red" fill-opacity="0.5" d="M137.50042915344238,-197.5893497467041" />
<path stroke-width="0.5" fill="none" stroke="red" fill-opacity="0.5" d="M137.50042915344238,-197.5893497467041" />
<path stroke-width="0.5" fill="none" stroke="red" fill-opacity="0.5" d="M137.50042915344238,-197.5893497467041" />
<path stroke-width="0.5" fill="none" stroke="red" fill-opacity="0.5" d="M137.50042915344238,-197.5893497467041" />
<path stroke-width="0.5" fill="none" stroke="red" fill-opacity="0.5" d="M137.50042915344238,-140.6933307647705" />
<path stroke-width="0.5" fill="none" stroke="red" fill-opacity="0.5" d="M137.50042915344238,-140.6933307647705" />
<path stroke-width="0.5" fill="none" stroke="red" fill-opacity="0.5" d="M95.0002670288086,-173.88267517089844" />
<path stroke-width="0.5" fill="none" stroke="red" fill-opacity="0.5" d="M90.00022411346436,-176.253342628479" />
<path stroke-width="0.5" fill="none" stroke="red" fill-opacity="0.5" d="M92.50025749206543,-169.1413402557373" />
<path stroke-width="0.5" fill="none" stroke="red" fill-opacity="0.5" d="M87.50021457672119,-164.40000534057617" />
<path stroke-width="0.5" fill="none" stroke="red" fill-opacity="0.5" d="M87.50021457672119,-164.40000534057617" />
<path stroke-width="0.5" fill="none" stroke="red" fill-opacity="0.5" d="M87.50021457672119,-164.40000534057617" />
<path stroke-width="0.5" fill="none" stroke="red" fill-opacity="0.5" d="M87.50021457672119,-164.40000534057617" />
<path stroke-width="0.5" fill="none" stroke="red" fill-opacity="0.5" d="M87.50021457672119,-164.40000534057617" />
<path stroke-width="0.5" fill="none" stroke="red" fill-opacity="0.5" d="M87.50021457672119,-164.40000534057617" />
<path stroke-width="0.5" fill="none" stroke="red" fill-opacity="0.5" d="M87.50021457672119,-164.40000534057617" />
<path stroke-width="0.5" fill="none" stroke="red" fill-opacity="0.5" d="M92.50025749206543,-173.88267517089844 L90.00022411346436,-178.62401008605957 L95.00024318695068,-171.51200771331787 L130.0004005432129,-154.9173355102539 L107.50031471252441,-178.62401008605957 L107.50033855438232,-185.73601245880127 L107.50031471252441,-192.84801483154297 L122.5003719329834,-190.4773473739624 L125.00038146972656,-204.7013282775879 L137.50042915344238,-197.5893497467041 L137.50042915344238,-197.5893497467041 L137.50042915344238,-197.5893497467041 L137.50042915344238,-197.5893497467041 L137.50042915344238,-197.5893497467041 L137.50042915344238,-197.5893497467041 L137.5004529953003,-197.5893497467041 L137.5004529953003,-197.5893497467041 L137.50042915344238,-197.5893497467041 L137.50042915344238,-197.5893497467041 L137.50042915344238,-197.5893497467041 L137.50042915344238,-197.5893497467041 L137.50042915344238,-197.5893497467041 L137.50042915344238,-197.5893497467041 L137.50042915344238,-197.5893497467041 L137.50042915344238,-197.5893497467041 L137.50042915344238,-197.5893497467041 L137.50042915344238,-197.5893497467041 L137.50042915344238,-140.6933307647705 L137.50042915344238,-140.6933307647705 L95.0002670288086,-173.88267517089844 L90.00022411346436,-176.253342628479 L92.50025749206543,-169.1413402557373 L87.50021457672119,-164.40000534057617 L87.50021457672119,-164.40000534057617 L87.50021457672119,-164.40000534057617 L87.50021457672119,-164.40000534057617 L87.50021457672119,-164.40000534057617 L87.50021457672119,-164.40000534057617 L87.50021457672119,-164.40000534057617" />
<path stroke-width="0.5" fill="none" stroke="red" fill-opacity="0.5" d="M92.50025749206543,-173.88267517089844" />
<path stroke-width="0.5" fill="none" stroke="red" fill-opacity="0.5" d="M92.48480796813965,-174.10032749176025" />
<path stroke-width="0.5" fill="none" stroke="red" fill-opacity="0.5" d="M92.4870491027832,-174.2506980895996" />
<path stroke-width="0.5" fill="none" stroke="red" fill-opacity="0.5" d="M105.1569938659668,-169.88940238952637" />
<path stroke-width="0.5" fill="none" stroke="red" fill-opacity="0.5" d="M106.6232681274414,-169.66969966888428" />
<path stroke-width="0.5" fill="none" stroke="red" fill-opacity="0.5" d="M106.82806968688965,-172.0339298248291" />
<path stroke-width="0.5" fill="none" stroke="red" fill-opacity="0.5" d="M106.8507194519043,-177.06923484802246" />
<path stroke-width="0.5" fill="none" stroke="red" fill-opacity="0.5" d="M107.69467353820801,-182.85322189331055" />
<path stroke-width="0.5" fill="none" stroke="red" fill-opacity="0.5" d="M113.34240436553955,-186.84556484222412" />
<path stroke-width="0.5" fill="none" stroke="red" fill-opacity="0.5" d="M118.41144561767578,-191.8123483657837" />
<path stroke-width="0.5" fill="none" stroke="red" fill-opacity="0.5" d="M124.55708980560303,-192.61603355407715" />
<path stroke-width="0.5" fill="none" stroke="red" fill-opacity="0.5" d="M127.77369022369385,-193.16561222076416" />
<path stroke-width="0.5" fill="none" stroke="red" fill-opacity="0.5" d="M129.6870470046997,-193.60406398773193" />
<path stroke-width="0.5" fill="none" stroke="red" fill-opacity="0.5" d="M130.9624195098877,-193.96390914916992" />
<path stroke-width="0.5" fill="none" stroke="red" fill-opacity="0.5" d="M131.87685012817383,-194.26474571228027" />
<path stroke-width="0.5" fill="none" stroke="red" fill-opacity="0.5" d="M132.5660228729248,-194.52006816864014" />
<path stroke-width="0.5" fill="none" stroke="red" fill-opacity="0.5" d="M133.1047773361206,-194.73953247070312" />
<path stroke-width="0.5" fill="none" stroke="red" fill-opacity="0.5" d="M133.5379123687744,-194.93024349212646" />
<path stroke-width="0.5" fill="none" stroke="red" fill-opacity="0.5" d="M133.89389514923096,-195.09751796722412" />
<path stroke-width="0.5" fill="none" stroke="red" fill-opacity="0.5" d="M134.19175148010254,-195.24548053741455" />
<path stroke-width="0.5" fill="none" stroke="red" fill-opacity="0.5" d="M134.44478511810303,-195.3772783279419" />
<path stroke-width="0.5" fill="none" stroke="red" fill-opacity="0.5" d="M134.66241359710693,-195.49541473388672" />
<path stroke-width="0.5" fill="none" stroke="red" fill-opacity="0.5" d="M134.85159873962402,-195.6019639968872" />
<path stroke-width="0.5" fill="none" stroke="red" fill-opacity="0.5" d="M135.01768112182617,-195.69849967956543" />
<path stroke-width="0.5" fill="none" stroke="red" fill-opacity="0.5" d="M135.16459465026855,-195.7864284515381" />
<path stroke-width="0.5" fill="none" stroke="red" fill-opacity="0.5" d="M135.29553413391113,-195.86679935455322" />
<path stroke-width="0.5" fill="none" stroke="red" fill-opacity="0.5" d="M135.41295528411865,-195.94061374664307" />
<path stroke-width="0.5" fill="none" stroke="red" fill-opacity="0.5" d="M135.6811761856079,-184.972882270813" />
<path stroke-width="0.5" fill="none" stroke="red" fill-opacity="0.5" d="M135.780668258667,-161.49466037750244" />
<path stroke-width="0.5" fill="none" stroke="red" fill-opacity="0.5" d="M120.9355115890503,-163.00640106201172" />
<path stroke-width="0.5" fill="none" stroke="red" fill-opacity="0.5" d="M108.88543128967285,-166.36121273040771" />
<path stroke-width="0.5" fill="none" stroke="red" fill-opacity="0.5" d="M103.78701686859131,-167.57516860961914" />
<path stroke-width="0.5" fill="none" stroke="red" fill-opacity="0.5" d="M99.5203971862793,-167.464280128479" />
<path stroke-width="0.5" fill="none" stroke="red" fill-opacity="0.5" d="M96.72060012817383,-167.25075244903564" />
<path stroke-width="0.5" fill="none" stroke="red" fill-opacity="0.5" d="M94.98755931854248,-167.06011295318604" />
<path stroke-width="0.5" fill="none" stroke="red" fill-opacity="0.5" d="M93.80955696105957,-166.89271926879883" />
<path stroke-width="0.5" fill="none" stroke="red" fill-opacity="0.5" d="M92.95415878295898,-166.74470901489258" />
<path stroke-width="0.5" fill="none" stroke="red" fill-opacity="0.5" d="M92.30356216430664,-166.6128396987915" />
<path stroke-width="0.5" fill="none" stroke="red" fill-opacity="0.5" d="M91.7914867401123,-166.49465560913086" />
<path stroke-width="0.5" fill="none" stroke="black" fill-opacity="0.5" d="M92.50025749206543,-173.88267517089844 L92.48480796813965,-174.10032749176025 L92.4870491027832,-174.2506980895996 L105.1569938659668,-169.88940238952637 L106.6232681274414,-169.66969966888428 L106.82806968688965,-172.0339298248291 L106.8507194519043,-177.06923484802246 L107.69467353820801,-182.85322189331055 L113.34240436553955,-186.84556484222412 L118.41144561767578,-191.8123483657837 L124.55708980560303,-192.61603355407715 L127.77369022369385,-193.16561222076416 L129.6870470046997,-193.60406398773193 L130.9624195098877,-193.96390914916992 L131.87685012817383,-194.26474571228027 L132.5660228729248,-194.52006816864014 L133.1047773361206,-194.73953247070312 L133.5379123687744,-194.93024349212646 L133.89389514923096,-195.09751796722412 L134.19175148010254,-195.24548053741455 L134.44478511810303,-195.3772783279419 L134.66241359710693,-195.49541473388672 L134.85159873962402,-195.6019639968872 L135.01768112182617,-195.69849967956543 L135.16459465026855,-195.7864284515381 L135.29553413391113,-195.86679935455322 L135.41295528411865,-195.94061374664307 L135.6811761856079,-184.972882270813 L135.780668258667,-161.49466037750244 L120.9355115890503,-163.00640106201172 L108.88543128967285,-166.36121273040771 L103.78701686859131,-167.57516860961914 L99.5203971862793,-167.464280128479 L96.72060012817383,-167.25075244903564 L94.98755931854248,-167.06011295318604 L93.80955696105957,-166.89271926879883 L92.95415878295898,-166.74470901489258 L92.30356216430664,-166.6128396987915 L91.7914867401123,-166.49465560913086" />
</svg>