<?xml version="1.0" encoding="UTF-8"?>
<svg xmlns="http://www.w3.org/2000/svg" xmlns:xlink="http://www.w3.org/1999/xlink"
     width="600" height="600" viewBox="0 -300 300 300">
<defs>
</defs>
<path stroke-width="0.5" fill="none" stroke="red" fill-opacity="0.5" d="M87.50021457672119,-162.0293378829956" />
<path stroke-width="0.5" fill="none" stroke="red" fill-opacity="0.5" d="M90.00022411346436,-176.253342628479" />
<path stroke-width="0.5" fill="none" stroke="red" fill-opacity="0.5" d="M87.5002384185791,-176.253342628479" />
<path stroke-width="0.5" fill="none" stroke="red" fill-opacity="0.5" d="M122.5003719329834,-147.8053331375122" />
<path stroke-width="0.5" fill="none" stroke="red" fill-opacity="0.5" d="M112.50033378601074,-171.51200771331787" />
<path stroke-width="0.5" fill="none" stroke="red" fill-opacity="0.5" d="M117.50035285949707,-180.99467754364014" />
<path stroke-width="0.5" fill="none" stroke="red" fill-opacity="0.5" d="M117.50035285949707,-190.4773473739624" />
<path stroke-width="0.5" fill="none" stroke="red" fill-opacity="0.5" d="M125.00040531158447,-185.73601245880127" />
<path stroke-width="0.5" fill="none" stroke="red" fill-opacity="0.5" d="M122.50039577484131,-197.5893497467041" />
<path stroke-width="0.5" fill="none" stroke="red" fill-opacity="0.5" d="M125.00040531158447,-194.62599754333496" />
<path stroke-width="0.5" fill="none" stroke="red" fill-opacity="0.5" d="M130.0004005432129,-199.95999336242676" />
<path stroke-width="0.5" fill="none" stroke="red" fill-opacity="0.5" d="M130.0004005432129,-202.33068466186523" />
<path stroke-width="0.5" fill="none" stroke="red" fill-opacity="0.5" d="M137.50042915344238,-199.95999336242676" />
<path stroke-width="0.5" fill="none" stroke="red" fill-opacity="0.5" d="M137.50042915344238,-197.5893497467041" />
<path stroke-width="0.5" fill="none" stroke="red" fill-opacity="0.5" d="M137.50042915344238,-197.5893497467041" />
<path stroke-width="0.5" fill="none" stroke="red" fill-opacity="0.5" d="M137.50042915344238,-197.5893497467041" />
<path stroke-width="0.5" fill="none" stroke="red" fill-opacity="0.5" d="M137.50042915344238,-197.5893497467041" />
<path stroke-width="0.5" fill="none" stroke="red" fill-opacity="0.5" d="M137.50042915344238,-197.5893497467041" />
<path stroke-width="0.5" fill="none" stroke="red" fill-opacity="0.5" d="M137.50042915344238,-197.5893497467041" />
<path stroke-width="0.5" fill="none" stroke="red" fill-opacity="0.5" d="M137.50042915344238,-197.5893497467041" />
<path stroke-width="0.5" fill="none" stroke="red" fill-opacity="0.5" d="M87.50021457672119,-162.0293378829956 L90.00022411346436,-176.253342628479 L87.5002384185791,-176.253342628479 L122.5003719329834,-147.8053331375122 L112.50033378601074,-171.51200771331787 L117.50035285949707,-180.99467754364014 L117.50035285949707,-190.4773473739624 L125.00040531158447,-185.73601245880127 L122.50039577484131,-197.5893497467041 L125.00040531158447,-194.62599754333496 L130.0004005432129,-199.95999336242676 L130.0004005432129,-202.33068466186523 L137.50042915344238,-199.95999336242676 L137.50042915344238,-197.5893497467041 L137.50042915344238,-197.5893497467041 L137.50042915344238,-197.5893497467041 L137.50042915344238,-197.5893497467041 L137.50042915344238,-197.5893497467041 L137.50042915344238,-197.5893497467041 L137.50042915344238,-197.5893497467041" />
<path stroke-width="0.5" fill="none" stroke="red" fill-opacity="0.5" d="M87.50021457672119,-162.0293378829956" />
<path stroke-width="0.5" fill="none" stroke="red" fill-opacity="0.5" d="M87.44242191314697,-167.63432025909424" />
<path stroke-width="0.5" fill="none" stroke="red" fill-opacity="0.5" d="M87.4786376953125,-169.49315071105957" />
<path stroke-width="0.5" fill="none" stroke="red" fill-opacity="0.5" d="M90.78631401062012,-168.6626672744751" />
<path stroke-width="0.5" fill="none" stroke="red" fill-opacity="0.5" d="M102.53539085388184,-164.9456024169922" />
<path stroke-width="0.5" fill="none" stroke="red" fill-opacity="0.5" d="M105.34343719482422,-167.85941123962402" />
<path stroke-width="0.5" fill="none" stroke="red" fill-opacity="0.5" d="M108.11288356781006,-174.18477535247803" />
<path stroke-width="0.5" fill="none" stroke="red" fill-opacity="0.5" d="M111.49067878723145,-177.7817726135254" />
<path stroke-width="0.5" fill="none" stroke="red" fill-opacity="0.5" d="M114.65015411376953,-181.71777725219727" />
<path stroke-width="0.5" fill="none" stroke="red" fill-opacity="0.5" d="M117.69886016845703,-183.93731117248535" />
<path stroke-width="0.5" fill="none" stroke="red" fill-opacity="0.5" d="M120.64387798309326,-186.95616722106934" />
<path stroke-width="0.5" fill="none" stroke="red" fill-opacity="0.5" d="M122.4200963973999,-191.1052942276001" />
<path stroke-width="0.5" fill="none" stroke="red" fill-opacity="0.5" d="M125.54566860198975,-192.66843795776367" />
<path stroke-width="0.5" fill="none" stroke="red" fill-opacity="0.5" d="M128.29537391662598,-193.45359802246094" />
<path stroke-width="0.5" fill="none" stroke="red" fill-opacity="0.5" d="M130.0222635269165,-193.84558200836182" />
<path stroke-width="0.5" fill="none" stroke="red" fill-opacity="0.5" d="M131.19754791259766,-194.16546821594238" />
<path stroke-width="0.5" fill="none" stroke="red" fill-opacity="0.5" d="M132.05132484436035,-194.43540573120117" />
<path stroke-width="0.5" fill="none" stroke="red" fill-opacity="0.5" d="M132.70084857940674,-194.6664810180664" />
<path stroke-width="0.5" fill="none" stroke="red" fill-opacity="0.5" d="M133.21216106414795,-194.86658573150635" />
<path stroke-width="0.5" fill="none" stroke="red" fill-opacity="0.5" d="M133.62548351287842,-195.04151344299316" />
<path stroke-width="0.5" fill="none" stroke="black" fill-opacity="0.5" d="M87.50021457672119,-162.0293378829956 L87.44242191314697,-167.63432025909424 L87.4786376953125,-169.49315071105957 L90.78631401062012,-168.6626672744751 L102.53539085388184,-164.9456024169922 L105.34343719482422,-167.85941123962402 L108.11288356781006,-174.18477535247803 L111.49067878723145,-177.7817726135254 L114.65015411376953,-181.71777725219727 L117.69886016845703,-183.93731117248535 L120.64387798309326,-186.95616722106934 L122.4200963973999,-191.1052942276001 L125.54566860198975,-192.66843795776367 L128.29537391662598,-193.45359802246094 L130.0222635269165,-193.84558200836182 L131.19754791259766,-194.16546821594238 L132.05132484436035,-194.43540573120117 L132.70084857940674,-194.6664810180664 L133.21216106414795,-194.86658573150635 L133.62548351287842,-195.04151344299316" />
</svg>