<?xml version="1.0" encoding="UTF-8"?>
<svg xmlns="http://www.w3.org/2000/svg" xmlns:xlink="http://www.w3.org/1999/xlink"
     width="600" height="600" viewBox="0 -300 300 300">
<defs>
</defs>
<path stroke-width="0.5" fill="none" stroke="red" fill-opacity="0.5" d="M110.00027656555176,-204.7013282775879" />
<path stroke-width="0.5" fill="none" stroke="red" fill-opacity="0.5" d="M115.000319480896,-201.73802375793457" />
<path stroke-width="0.5" fill="none" stroke="red" fill-opacity="0.5" d="M125.00035762786865,-209.44271087646484" />
<path stroke-width="0.5" fill="none" stroke="red" fill-opacity="0.5" d="M142.5004482269287,-199.95999336242676" />
<path stroke-width="0.5" fill="none" stroke="red" fill-opacity="0.5" d="M147.50046730041504,-206.4793586730957" />
<path stroke-width="0.5" fill="none" stroke="red" fill-opacity="0.5" d="M155.00049591064453,-197.5893497467041" />
<path stroke-width="0.5" fill="none" stroke="red" fill-opacity="0.5" d="M162.50052452087402,-192.84801483154297" />
<path stroke-width="0.5" fill="none" stroke="red" fill-opacity="0.5" d="M160.00053882598877,-195.21868228912354" />
<path stroke-width="0.5" fill="none" stroke="red" fill-opacity="0.5" d="M160.00053882598877,-195.21868228912354" />
<path stroke-width="0.5" fill="none" stroke="red" fill-opacity="0.5" d="M160.00053882598877,-195.21868228912354" />
<path stroke-width="0.5" fill="none" stroke="red" fill-opacity="0.5" d="M160.00053882598877,-195.21868228912354" />
<path stroke-width="0.5" fill="none" stroke="red" fill-opacity="0.5" d="M160.00053882598877,-195.21868228912354" />
<path stroke-width="0.5" fill="none" stroke="red" fill-opacity="0.5" d="M160.00053882598877,-195.21868228912354" />
<path stroke-width="0.5" fill="none" stroke="red" fill-opacity="0.5" d="M160.00053882598877,-195.21868228912354" />
<path stroke-width="0.5" fill="none" stroke="red" fill-opacity="0.5" d="M110.00027656555176,-204.7013282775879 L115.000319480896,-201.73802375793457 L125.00035762786865,-209.44271087646484 L142.5004482269287,-199.95999336242676 L147.50046730041504,-206.4793586730957 L155.00049591064453,-197.5893497467041 L162.50052452087402,-192.84801483154297 L160.00053882598877,-195.21868228912354 L160.00053882598877,-195.21868228912354 L160.00053882598877,-195.21868228912354 L160.00053882598877,-195.21868228912354 L160.00053882598877,-195.21868228912354 L160.00053882598877,-195.21868228912354 L160.00053882598877,-195.21868228912354" />
<path stroke-width="0.5" fill="none" stroke="red" fill-opacity="0.5" d="M110.00027656555176,-204.7013282775879" />
<path stroke-width="0.5" fill="none" stroke="red" fill-opacity="0.5" d="M110.3048324584961,-204.41546440124512" />
<path stroke-width="0.5" fill="none" stroke="red" fill-opacity="0.5" d="M112.25793361663818,-204.2407512664795" />
<path stroke-width="0.5" fill="none" stroke="red" fill-opacity="0.5" d="M118.8237190246582,-204.1942596435547" />
<path stroke-width="0.5" fill="none" stroke="red" fill-opacity="0.5" d="M128.8407564163208,-203.6874294281006" />
<path stroke-width="0.5" fill="none" stroke="red" fill-opacity="0.5" d="M136.2910032272339,-203.28927040100098" />
<path stroke-width="0.5" fill="none" stroke="red" fill-opacity="0.5" d="M145.35119533538818,-202.21047401428223" />
<path stroke-width="0.5" fill="none" stroke="red" fill-opacity="0.5" d="M149.45435523986816,-201.16291046142578" />
<path stroke-width="0.5" fill="none" stroke="red" fill-opacity="0.5" d="M151.67810916900635,-200.3976821899414" />
<path stroke-width="0.5" fill="none" stroke="red" fill-opacity="0.5" d="M153.1123399734497,-199.80742931365967" />
<path stroke-width="0.5" fill="none" stroke="red" fill-opacity="0.5" d="M154.12049293518066,-199.33767318725586" />
<path stroke-width="0.5" fill="none" stroke="red" fill-opacity="0.5" d="M154.86996173858643,-198.9546537399292" />
<path stroke-width="0.5" fill="none" stroke="red" fill-opacity="0.5" d="M155.44981956481934,-198.63622188568115" />
<path stroke-width="0.5" fill="none" stroke="red" fill-opacity="0.5" d="M155.91225624084473,-198.36721420288086" />
<path stroke-width="0.5" fill="none" stroke="black" fill-opacity="0.5" d="M110.00027656555176,-204.7013282775879 L110.3048324584961,-204.41546440124512 L112.25793361663818,-204.2407512664795 L118.8237190246582,-204.1942596435547 L128.8407564163208,-203.6874294281006 L136.2910032272339,-203.28927040100098 L145.35119533538818,-202.21047401428223 L149.45435523986816,-201.16291046142578 L151.67810916900635,-200.3976821899414 L153.1123399734497,-199.80742931365967 L154.12049293518066,-199.33767318725586 L154.86996173858643,-198.9546537399292 L155.44981956481934,-198.63622188568115 L155.91225624084473,-198.36721420288086" />
</svg>